<?xml version="1.0" encoding="UTF-8"?>
<!--Generator: Apple Native CoreSVG 149-->
<!DOCTYPE svg
PUBLIC "-//W3C//DTD SVG 1.1//EN"
       "http://www.w3.org/Graphics/SVG/1.1/DTD/svg11.dtd">
<svg version="1.1" xmlns="http://www.w3.org/2000/svg" xmlns:xlink="http://www.w3.org/1999/xlink" width="3300" height="2200">
 <!--glyph: "uni10077C.medium", point size: 100.000000, font version: "Version 16.0d18e1", template writer version: "8"-->
 <g id="Notes">
  <rect height="2200" id="artboard" style="fill:white;opacity:1" width="3300" x="0" y="0"/>
  <line id="" style="fill:none;stroke:black;opacity:1;stroke-width:0.5;" x1="263" x2="3036" y1="292" y2="292"/>
  <text style="stroke:none;fill:black;font-family:-apple-system,&quot;SF Pro Display&quot;,&quot;SF Pro Text&quot;,Helvetica,sans-serif;font-weight:bold;" transform="matrix(1 0 0 1 263 322)">Weight/Scale Variations</text>
  <text style="stroke:none;fill:black;font-family:-apple-system,&quot;SF Pro Display&quot;,&quot;SF Pro Text&quot;,Helvetica,sans-serif;text-anchor:middle;" transform="matrix(1 0 0 1 559.711 322)">Ultralight</text>
  <text style="stroke:none;fill:black;font-family:-apple-system,&quot;SF Pro Display&quot;,&quot;SF Pro Text&quot;,Helvetica,sans-serif;text-anchor:middle;" transform="matrix(1 0 0 1 856.422 322)">Thin</text>
  <text style="stroke:none;fill:black;font-family:-apple-system,&quot;SF Pro Display&quot;,&quot;SF Pro Text&quot;,Helvetica,sans-serif;text-anchor:middle;" transform="matrix(1 0 0 1 1153.13 322)">Light</text>
  <text style="stroke:none;fill:black;font-family:-apple-system,&quot;SF Pro Display&quot;,&quot;SF Pro Text&quot;,Helvetica,sans-serif;text-anchor:middle;" transform="matrix(1 0 0 1 1449.84 322)">Regular</text>
  <text style="stroke:none;fill:black;font-family:-apple-system,&quot;SF Pro Display&quot;,&quot;SF Pro Text&quot;,Helvetica,sans-serif;text-anchor:middle;" transform="matrix(1 0 0 1 1746.56 322)">Medium</text>
  <text style="stroke:none;fill:black;font-family:-apple-system,&quot;SF Pro Display&quot;,&quot;SF Pro Text&quot;,Helvetica,sans-serif;text-anchor:middle;" transform="matrix(1 0 0 1 2043.27 322)">Semibold</text>
  <text style="stroke:none;fill:black;font-family:-apple-system,&quot;SF Pro Display&quot;,&quot;SF Pro Text&quot;,Helvetica,sans-serif;text-anchor:middle;" transform="matrix(1 0 0 1 2339.98 322)">Bold</text>
  <text style="stroke:none;fill:black;font-family:-apple-system,&quot;SF Pro Display&quot;,&quot;SF Pro Text&quot;,Helvetica,sans-serif;text-anchor:middle;" transform="matrix(1 0 0 1 2636.69 322)">Heavy</text>
  <text style="stroke:none;fill:black;font-family:-apple-system,&quot;SF Pro Display&quot;,&quot;SF Pro Text&quot;,Helvetica,sans-serif;text-anchor:middle;" transform="matrix(1 0 0 1 2933.4 322)">Black</text>
  <line id="" style="fill:none;stroke:black;opacity:1;stroke-width:0.5;" x1="263" x2="3036" y1="1903" y2="1903"/>
  <g id="" transform="matrix(1 0 0 1 263 1933)">
   <path d="M9.24805 0.830078C13.5547 0.830078 17.1387-2.74414 17.1387-7.05078C17.1387-11.3574 13.5449-14.9316 9.23828-14.9316C4.94141-14.9316 1.36719-11.3574 1.36719-7.05078C1.36719-2.74414 4.95117 0.830078 9.24805 0.830078ZM9.24805-0.654297C5.70312-0.654297 2.87109-3.49609 2.87109-7.05078C2.87109-10.6055 5.69336-13.4473 9.23828-13.4473C12.793-13.4473 15.6348-10.6055 15.6445-7.05078C15.6543-3.49609 12.8027-0.654297 9.24805-0.654297ZM6.39648-6.31836L8.50586-6.31836L8.50586-4.19922C8.50586-3.75977 8.79883-3.45703 9.22852-3.45703C9.67773-3.45703 9.9707-3.75977 9.9707-4.19922L9.9707-6.31836L12.0996-6.31836C12.5391-6.31836 12.8418-6.61133 12.8418-7.04102C12.8418-7.48047 12.5391-7.7832 12.0996-7.7832L9.9707-7.7832L9.9707-9.89258C9.9707-10.3418 9.67773-10.6445 9.22852-10.6445C8.79883-10.6445 8.50586-10.3418 8.50586-9.89258L8.50586-7.7832L6.39648-7.7832C5.94727-7.7832 5.64453-7.48047 5.64453-7.04102C5.64453-6.61133 5.94727-6.31836 6.39648-6.31836Z"/>
  </g>
  <g id="" transform="matrix(1 0 0 1 281.506 1933)">
   <path d="M11.709 2.91016C17.1582 2.91016 21.6699-1.61133 21.6699-7.05078C21.6699-12.5 17.1484-17.0117 11.6992-17.0117C6.25977-17.0117 1.74805-12.5 1.74805-7.05078C1.74805-1.61133 6.26953 2.91016 11.709 2.91016ZM11.709 1.25C7.09961 1.25 3.41797-2.44141 3.41797-7.05078C3.41797-11.6602 7.08984-15.3516 11.6992-15.3516C16.3086-15.3516 20-11.6602 20.0098-7.05078C20.0195-2.44141 16.3184 1.25 11.709 1.25ZM7.98828-6.23047L10.8789-6.23047L10.8789-3.32031C10.8789-2.83203 11.2109-2.5 11.6895-2.5C12.1777-2.5 12.5195-2.83203 12.5195-3.32031L12.5195-6.23047L15.4297-6.23047C15.918-6.23047 16.25-6.5625 16.25-7.04102C16.25-7.5293 15.918-7.87109 15.4297-7.87109L12.5195-7.87109L12.5195-10.7617C12.5195-11.2695 12.1777-11.6016 11.6895-11.6016C11.2109-11.6016 10.8789-11.2598 10.8789-10.7617L10.8789-7.87109L7.98828-7.87109C7.48047-7.87109 7.14844-7.5293 7.14844-7.04102C7.14844-6.5625 7.49023-6.23047 7.98828-6.23047Z"/>
  </g>
  <g id="" transform="matrix(1 0 0 1 304.924 1933)">
   <path d="M14.9707 5.66406C21.9336 5.66406 27.6953-0.0976562 27.6953-7.05078C27.6953-14.0137 21.9238-19.7754 14.9609-19.7754C8.00781-19.7754 2.25586-14.0137 2.25586-7.05078C2.25586-0.0976562 8.01758 5.66406 14.9707 5.66406ZM14.9707 3.84766C8.93555 3.84766 4.08203-1.01562 4.08203-7.05078C4.08203-13.0957 8.92578-17.9492 14.9609-17.9492C21.0059-17.9492 25.8594-13.0957 25.8691-7.05078C25.8789-1.01562 21.0156 3.84766 14.9707 3.84766ZM10.0586-6.14258L14.0625-6.14258L14.0625-2.12891C14.0625-1.5918 14.4336-1.2207 14.9512-1.2207C15.4883-1.2207 15.8594-1.5918 15.8594-2.12891L15.8594-6.14258L19.8828-6.14258C20.4102-6.14258 20.791-6.51367 20.791-7.03125C20.791-7.56836 20.4199-7.94922 19.8828-7.94922L15.8594-7.94922L15.8594-11.9531C15.8594-12.5098 15.4883-12.8809 14.9512-12.8809C14.4336-12.8809 14.0625-12.5 14.0625-11.9531L14.0625-7.94922L10.0586-7.94922C9.50195-7.94922 9.13086-7.56836 9.13086-7.03125C9.13086-6.51367 9.51172-6.14258 10.0586-6.14258Z"/>
  </g>
  <text style="stroke:none;fill:black;font-family:-apple-system,&quot;SF Pro Display&quot;,&quot;SF Pro Text&quot;,Helvetica,sans-serif;font-weight:bold;" transform="matrix(1 0 0 1 263 1953)">Design Variations</text>
  <text style="stroke:none;fill:black;font-family:-apple-system,&quot;SF Pro Display&quot;,&quot;SF Pro Text&quot;,Helvetica,sans-serif;" transform="matrix(1 0 0 1 263 1971)">Symbols are supported in up to nine weights and three scales.</text>
  <text style="stroke:none;fill:black;font-family:-apple-system,&quot;SF Pro Display&quot;,&quot;SF Pro Text&quot;,Helvetica,sans-serif;" transform="matrix(1 0 0 1 263 1989)">For optimal layout with text and other symbols, vertically align</text>
  <text style="stroke:none;fill:black;font-family:-apple-system,&quot;SF Pro Display&quot;,&quot;SF Pro Text&quot;,Helvetica,sans-serif;" transform="matrix(1 0 0 1 263 2007)">symbols with the adjacent text.</text>
  <line id="" style="fill:none;stroke:#00AEEF;stroke-width:0.5;opacity:1.0;" x1="776" x2="776" y1="1919" y2="1933"/>
  <g id="" transform="matrix(1 0 0 1 776 1933)">
   <path d="M3.31055 0.126953C3.82812 0.126953 4.08203-0.0683594 4.26758-0.605469L5.52734-4.0625L11.2891-4.0625L12.5488-0.605469C12.7344-0.0683594 12.9883 0.126953 13.4961 0.126953C14.0137 0.126953 14.3457-0.185547 14.3457-0.673828C14.3457-0.839844 14.3164-0.986328 14.2383-1.20117L9.6582-13.3887C9.43359-13.9941 9.0332-14.2871 8.4082-14.2871C7.80273-14.2871 7.39258-13.9941 7.17773-13.3984L2.59766-1.19141C2.51953-0.976562 2.49023-0.830078 2.49023-0.664062C2.49023-0.175781 2.80273 0.126953 3.31055 0.126953ZM6.00586-5.53711L8.37891-12.1094L8.42773-12.1094L10.8008-5.53711Z"/>
  </g>
  <line id="" style="fill:none;stroke:#00AEEF;stroke-width:0.5;opacity:1.0;" x1="792.836" x2="792.836" y1="1919" y2="1933"/>
  <text style="stroke:none;fill:black;font-family:-apple-system,&quot;SF Pro Display&quot;,&quot;SF Pro Text&quot;,Helvetica,sans-serif;font-weight:bold;" transform="matrix(1 0 0 1 776 1953)">Margins</text>
  <text style="stroke:none;fill:black;font-family:-apple-system,&quot;SF Pro Display&quot;,&quot;SF Pro Text&quot;,Helvetica,sans-serif;" transform="matrix(1 0 0 1 776 1971)">Leading and trailing margins on the left and right side of each symbol</text>
  <text style="stroke:none;fill:black;font-family:-apple-system,&quot;SF Pro Display&quot;,&quot;SF Pro Text&quot;,Helvetica,sans-serif;" transform="matrix(1 0 0 1 776 1989)">can be adjusted by modifying the x-location of the margin guidelines.</text>
  <text style="stroke:none;fill:black;font-family:-apple-system,&quot;SF Pro Display&quot;,&quot;SF Pro Text&quot;,Helvetica,sans-serif;" transform="matrix(1 0 0 1 776 2007)">Modifications are automatically applied proportionally to all</text>
  <text style="stroke:none;fill:black;font-family:-apple-system,&quot;SF Pro Display&quot;,&quot;SF Pro Text&quot;,Helvetica,sans-serif;" transform="matrix(1 0 0 1 776 2025)">scales and weights.</text>
  <g id="" transform="matrix(1 0 0 1 1289 1933)">
   <path d="M2.8418 1.86523L4.54102 3.57422C5.40039 4.44336 6.38672 4.38477 7.31445 3.35938L17.4902-7.85156C17.7539-7.76367 18.0273-7.7832 18.3398-7.8418L19.4043-8.03711L20.0684-7.36328L20.0293-6.80664C19.9902-6.30859 20.1172-5.92773 20.6055-5.44922L21.3672-4.70703C21.8457-4.22852 22.4609-4.19922 22.9297-4.66797L25.8398-7.58789C26.3086-8.05664 26.2891-8.65234 25.8105-9.13086L25.0391-9.89258C24.5605-10.3711 24.1895-10.5273 23.7109-10.4883L23.1348-10.4395L22.4902-11.0742L22.7344-12.1973C22.8613-12.7637 22.7051-13.2031 22.1191-13.7891L19.9219-15.9766C16.582-19.2969 12.1484-19.2188 9.25781-16.3281C8.83789-15.918 8.80859-15.3418 9.04297-14.9512C9.27734-14.5898 9.73633-14.3555 10.3809-14.5215C11.8457-14.8633 13.3691-14.9219 14.7949-13.9844L14.209-12.5293C14.0137-12.0508 13.9844-11.6504 14.1113-11.2891L3.04688-0.898438C2.06055 0.0195312 1.98242 0.996094 2.8418 1.86523ZM10.752-15.957C13.1836-17.7344 16.4746-17.4316 18.7012-15.2051L21.1328-12.793C21.3672-12.5586 21.4062-12.373 21.3379-12.0312L21.0156-10.5469L22.5195-9.0625L23.5059-9.12109C23.7598-9.13086 23.8379-9.11133 24.0332-8.91602L24.6094-8.33984L22.168-5.89844L21.5918-6.47461C21.3965-6.66992 21.3672-6.74805 21.377-7.01172L21.4453-7.98828L19.9512-9.47266L18.4277-9.21875C18.1055-9.15039 17.959-9.17969 17.7148-9.41406L15.7129-11.416C15.459-11.6504 15.4297-11.8164 15.5859-12.1875L16.4648-14.2773C14.9023-15.7324 12.8711-16.3574 10.8398-15.7617C10.6836-15.7227 10.625-15.8496 10.752-15.957ZM5.27344 2.30469L4.10156 1.14258C3.63281 0.683594 3.74023 0.341797 4.14062-0.0195312L14.9512-10.1953L16.416-8.71094L6.42578 2.27539C6.07422 2.67578 5.74219 2.77344 5.27344 2.30469Z"/>
  </g>
  <text style="stroke:none;fill:black;font-family:-apple-system,&quot;SF Pro Display&quot;,&quot;SF Pro Text&quot;,Helvetica,sans-serif;font-weight:bold;" transform="matrix(1 0 0 1 1289 1953)">Exporting</text>
  <text style="stroke:none;fill:black;font-family:-apple-system,&quot;SF Pro Display&quot;,&quot;SF Pro Text&quot;,Helvetica,sans-serif;" transform="matrix(1 0 0 1 1289 1971)">Symbols should be outlined when exporting to ensure the</text>
  <text style="stroke:none;fill:black;font-family:-apple-system,&quot;SF Pro Display&quot;,&quot;SF Pro Text&quot;,Helvetica,sans-serif;" transform="matrix(1 0 0 1 1289 1989)">design is preserved when submitting to Xcode.</text>
  <text id="template-version" style="stroke:none;fill:black;font-family:-apple-system,&quot;SF Pro Display&quot;,&quot;SF Pro Text&quot;,Helvetica,sans-serif;text-anchor:end;" transform="matrix(1 0 0 1 3036 1933)">Template v.2.0</text>
  <text style="stroke:none;fill:black;font-family:-apple-system,&quot;SF Pro Display&quot;,&quot;SF Pro Text&quot;,Helvetica,sans-serif;text-anchor:end;" transform="matrix(1 0 0 1 3036 1951)">Requires Xcode 12 or greater</text>
  <text style="stroke:none;fill:black;font-family:-apple-system,&quot;SF Pro Display&quot;,&quot;SF Pro Text&quot;,Helvetica,sans-serif;text-anchor:end;" transform="matrix(1 0 0 1 3036 1969)">Generated from figure.wave.circle</text>
  <text style="stroke:none;fill:black;font-family:-apple-system,&quot;SF Pro Display&quot;,&quot;SF Pro Text&quot;,Helvetica,sans-serif;text-anchor:end;" transform="matrix(1 0 0 1 3036 1987)">Typeset at 100 points</text>
  <text style="stroke:none;fill:black;font-family:-apple-system,&quot;SF Pro Display&quot;,&quot;SF Pro Text&quot;,Helvetica,sans-serif;" transform="matrix(1 0 0 1 263 726)">Small</text>
  <text style="stroke:none;fill:black;font-family:-apple-system,&quot;SF Pro Display&quot;,&quot;SF Pro Text&quot;,Helvetica,sans-serif;" transform="matrix(1 0 0 1 263 1156)">Medium</text>
  <text style="stroke:none;fill:black;font-family:-apple-system,&quot;SF Pro Display&quot;,&quot;SF Pro Text&quot;,Helvetica,sans-serif;" transform="matrix(1 0 0 1 263 1586)">Large</text>
 </g>
 <g id="Guides">
  <g id="H-reference" style="fill:#27AAE1;stroke:none;" transform="matrix(1 0 0 1 339 696)">
   <path d="M0.976562 0L3.66211 0L12.9883-24.4629L45.752-24.4629L55.127 0L57.7637 0L30.6152-70.459L28.125-70.459ZM29.3457-67.1387L29.4434-67.1387L44.873-26.709L13.8672-26.709Z"/>
  </g>
  <line id="Baseline-S" style="fill:none;stroke:#27AAE1;opacity:1;stroke-width:0.5;" x1="263" x2="3036" y1="696" y2="696"/>
  <line id="Capline-S" style="fill:none;stroke:#27AAE1;opacity:1;stroke-width:0.5;" x1="263" x2="3036" y1="625.541" y2="625.541"/>
  <g id="H-reference" style="fill:#27AAE1;stroke:none;" transform="matrix(1 0 0 1 339 1126)">
   <path d="M0.976562 0L3.66211 0L12.9883-24.4629L45.752-24.4629L55.127 0L57.7637 0L30.6152-70.459L28.125-70.459ZM29.3457-67.1387L29.4434-67.1387L44.873-26.709L13.8672-26.709Z"/>
  </g>
  <line id="Baseline-M" style="fill:none;stroke:#27AAE1;opacity:1;stroke-width:0.5;" x1="263" x2="3036" y1="1126" y2="1126"/>
  <line id="Capline-M" style="fill:none;stroke:#27AAE1;opacity:1;stroke-width:0.5;" x1="263" x2="3036" y1="1055.54" y2="1055.54"/>
  <g id="H-reference" style="fill:#27AAE1;stroke:none;" transform="matrix(1 0 0 1 339 1556)">
   <path d="M0.976562 0L3.66211 0L12.9883-24.4629L45.752-24.4629L55.127 0L57.7637 0L30.6152-70.459L28.125-70.459ZM29.3457-67.1387L29.4434-67.1387L44.873-26.709L13.8672-26.709Z"/>
  </g>
  <line id="Baseline-L" style="fill:none;stroke:#27AAE1;opacity:1;stroke-width:0.5;" x1="263" x2="3036" y1="1556" y2="1556"/>
  <line id="Capline-L" style="fill:none;stroke:#27AAE1;opacity:1;stroke-width:0.5;" x1="263" x2="3036" y1="1485.54" y2="1485.54"/>
  <line id="left-margin" style="fill:none;stroke:#00AEEF;stroke-width:0.5;opacity:1.0;" x1="1391.3" x2="1391.3" y1="1030.79" y2="1150.12"/>
  <line id="right-margin" style="fill:none;stroke:#00AEEF;stroke-width:0.5;opacity:1.0;" x1="1508.39" x2="1508.39" y1="1030.79" y2="1150.12"/>
 </g>
 <g id="Symbols">
  <g id="Black-L" transform="matrix(1 0 0 1 2854.05 1556)">
   <path d="M79.3457 32.8613C116.748 32.8613 147.412 2.19727 147.412-35.2051C147.412-72.6074 116.748-103.271 79.2969-103.271C41.8945-103.271 11.2793-72.6074 11.2793-35.2051C11.2793 2.19727 41.9434 32.8613 79.3457 32.8613ZM79.3457 12.4023C52.9785 12.4023 31.7383-8.83789 31.7383-35.2051C31.7383-61.5723 52.9297-82.8125 79.2969-82.8125C105.664-82.8125 126.953-61.5723 126.953-35.2051C127.002-8.83789 105.713 12.4023 79.3457 12.4023ZM73.584 5.12695C76.123 5.12695 77.7832 3.4668 77.7832 0.537109L77.7832-22.1191C77.7832-23.3398 78.3691-24.0234 79.3457-24.0234C80.1758-24.0234 80.8594-23.3398 80.8594-22.1191L80.8594 0.537109C80.8594 3.41797 82.5195 5.12695 85.0098 5.12695C87.5977 5.12695 89.209 3.4668 89.209 0.537109L89.209-38.6719C89.209-39.7461 89.7949-40.5273 90.6738-40.5273C91.4551-40.5273 92.0898-39.7461 92.0898-38.6719L92.0898-23.6816C92.0898-21.0449 93.7012-19.4336 95.9473-19.4336C98.291-19.4336 99.8535-21.0449 99.8535-23.6816L99.8535-38.1836C99.8535-48.6816 93.9941-52.1484 79.3945-52.1484L74.4141-52.1484C72.0215-52.1484 70.8984-52.3926 69.1406-53.8086L64.209-57.8125L63.4766-69.2383C63.3301-71.9238 61.5234-73.3887 59.2285-73.2422C56.8359-73.1445 55.2246-71.4355 55.3711-68.7012L56.2012-56.8848C56.3477-54.4922 57.4707-52.9785 59.375-51.416L67.9199-44.3848C68.9453-43.5059 69.4336-42.6758 69.4336-41.3574L69.4336 0.537109C69.4336 3.41797 71.1426 5.12695 73.584 5.12695ZM79.3945-55.3711C83.7402-55.3711 87.4023-59.0332 87.4023-63.2324C87.4023-67.627 83.7402-71.2891 79.3945-71.2891C75-71.2891 71.5332-67.627 71.5332-63.2324C71.5332-58.9844 75-55.3711 79.3945-55.3711Z"/>
  </g>
  <g id="Heavy-L" transform="matrix(1 0 0 1 2558.39 1556)">
   <path d="M78.2715 31.7871C115.088 31.7871 145.312 1.5625 145.312-35.2051C145.312-72.0215 115.039-102.246 78.2715-102.246C41.4551-102.246 11.2793-72.0215 11.2793-35.2051C11.2793 1.5625 41.5039 31.7871 78.2715 31.7871ZM78.2715 14.0137C51.0254 14.0137 29.0527-7.95898 29.0527-35.2051C29.0527-62.5 50.9766-84.4727 78.2715-84.4727C105.518-84.4727 127.49-62.5 127.539-35.2051C127.539-7.95898 105.566 14.0137 78.2715 14.0137ZM72.5586 5.61523C75.0977 5.61523 76.709 4.05273 76.709 1.12305L76.709-22.3633C76.709-23.584 77.2949-24.3164 78.2715-24.3164C79.1504-24.3164 79.7852-23.584 79.7852-22.3633L79.7852 1.12305C79.7852 4.00391 81.4453 5.61523 83.9355 5.61523C86.4258 5.61523 88.0371 4.05273 88.0371 1.12305L88.0371-39.5508C88.0371-40.6738 88.623-41.4062 89.502-41.4062C90.2832-41.4062 90.918-40.6738 90.918-39.5508L90.918-23.6816C90.918-21.0938 92.4805-19.5312 94.7266-19.5312C97.0215-19.5312 98.5352-21.0938 98.5352-23.6816L98.5352-39.0137C98.5352-49.6094 92.627-52.9785 78.3203-52.9785L73.291-52.9785C70.8984-52.9785 69.7754-53.2715 67.9688-54.6875L62.9395-58.6426L62.1582-70.3125C62.0117-72.9492 60.3027-74.4141 58.0078-74.2676C55.7129-74.1211 54.1504-72.5098 54.2969-69.8242L55.127-57.8613C55.2734-55.4199 56.3965-53.9062 58.252-52.3926L66.8945-45.459C67.9688-44.6289 68.457-43.7012 68.457-42.3828L68.457 1.12305C68.457 4.00391 70.166 5.61523 72.5586 5.61523ZM78.3203-56.2988C82.7148-56.2988 86.377-60.0098 86.377-64.209C86.377-68.6523 82.7148-72.3145 78.3203-72.3145C73.9258-72.3145 70.4102-68.6523 70.4102-64.209C70.4102-59.9609 73.9258-56.2988 78.3203-56.2988Z"/>
  </g>
  <g id="Bold-L" transform="matrix(1 0 0 1 2262.88 1556)">
   <path d="M77.0996 30.5664C113.232 30.5664 142.92 0.878906 142.92-35.2539C142.92-71.3379 113.184-101.074 77.0508-101.074C40.9668-101.074 11.2793-71.3379 11.2793-35.2539C11.2793 0.878906 41.0156 30.5664 77.0996 30.5664ZM77.0996 15.8203C48.8281 15.8203 26.0742-6.98242 26.0742-35.2539C26.0742-63.5254 48.7793-86.2793 77.0508-86.2793C105.371-86.2793 128.125-63.5254 128.174-35.2539C128.174-6.98242 105.371 15.8203 77.0996 15.8203ZM71.4355 6.20117C73.9258 6.20117 75.5371 4.63867 75.5371 1.75781L75.5371-22.6562C75.5371-23.877 76.0742-24.6094 77.0996-24.6094C77.9785-24.6094 78.5645-23.9258 78.5645-22.6562L78.5645 1.75781C78.5645 4.58984 80.2734 6.20117 82.7148 6.20117C85.1562 6.20117 86.7676 4.63867 86.7676 1.75781L86.7676-40.5762C86.7676-41.6504 87.3535-42.3828 88.1836-42.3828C89.0137-42.3828 89.5508-41.6992 89.5508-40.5762L89.5508-23.6816C89.5508-21.1426 91.1133-19.6289 93.3594-19.6289C95.5566-19.6289 97.0215-21.1426 97.0215-23.6816L97.0215-39.9414C97.0215-50.6348 91.1133-53.9551 77.1484-53.9551L72.0703-53.9551C69.6289-53.9551 68.5547-54.2969 66.6992-55.6641L61.5234-59.5703L60.6934-71.5332C60.5469-74.1211 58.8867-75.5371 56.6895-75.3906C54.4434-75.2441 52.9297-73.6816 53.125-71.0449L53.9062-58.9844C54.0527-56.4453 55.2246-54.8828 57.0312-53.4668L65.7715-46.6797C66.8945-45.8496 67.334-44.873 67.334-43.5059L67.334 1.75781C67.334 4.58984 69.043 6.20117 71.4355 6.20117ZM77.1484-57.4219C81.5918-57.4219 85.2539-61.084 85.2539-65.332C85.2539-69.8242 81.5918-73.4375 77.1484-73.4375C72.7051-73.4375 69.1895-69.8242 69.1895-65.332C69.1895-61.084 72.7051-57.4219 77.1484-57.4219Z"/>
  </g>
  <g id="Semibold-L" transform="matrix(1 0 0 1 1966.97 1556)">
   <path d="M76.2695 29.7363C111.914 29.7363 141.309 0.390625 141.309-35.2539C141.309-70.8984 111.865-100.244 76.2695-100.244C40.625-100.244 11.2793-70.8984 11.2793-35.2539C11.2793 0.390625 40.6738 29.7363 76.2695 29.7363ZM76.2695 17.041C47.3145 17.041 24.0234-6.25 24.0234-35.2539C24.0234-64.209 47.2656-87.5488 76.2695-87.5488C105.225-87.5488 128.564-64.209 128.613-35.2539C128.662-6.25 105.273 17.041 76.2695 17.041ZM70.6543 6.5918C73.0957 6.5918 74.707 5.07812 74.707 2.24609L74.707-22.8516C74.707-24.1211 75.2441-24.8535 76.2695-24.8535C77.1973-24.8535 77.7832-24.1211 77.7832-22.8516L77.7832 2.24609C77.7832 5.0293 79.4434 6.5918 81.8848 6.5918C84.2773 6.5918 85.8398 5.07812 85.8398 2.24609L85.8398-41.3086C85.8398-42.334 86.4258-43.0664 87.2559-43.0664C88.0859-43.0664 88.6719-42.3828 88.6719-41.3086L88.6719-23.6816C88.6719-21.1426 90.1855-19.7266 92.3828-19.7266C94.5312-19.7266 95.9961-21.1426 95.9961-23.6816L95.9961-40.625C95.9961-51.3184 90.0879-54.5898 76.3672-54.5898L71.2402-54.5898C68.75-54.5898 67.6758-54.9805 65.8203-56.3477L60.5469-60.2051L59.7168-72.3633C59.5703-74.9512 57.959-76.3184 55.7617-76.1719C53.5645-76.0254 52.0996-74.5117 52.2949-71.875L53.0762-59.7168C53.2227-57.1777 54.3945-55.5664 56.2012-54.248L64.9902-47.5586C66.1133-46.6797 66.6016-45.7031 66.6016-44.2871L66.6016 2.24609C66.6016 5.0293 68.3105 6.5918 70.6543 6.5918ZM76.3672-58.1543C80.8105-58.1543 84.4238-61.8652 84.4238-66.1133C84.4238-70.6055 80.8105-74.2188 76.3672-74.2188C71.875-74.2188 68.3594-70.6055 68.3594-66.1133C68.3594-61.8652 71.875-58.1543 76.3672-58.1543Z"/>
  </g>
  <g id="Medium-L" transform="matrix(1 0 0 1 1670.87 1556)">
   <path d="M75.6836 29.1504C110.938 29.1504 140.088 0 140.088-35.2539C140.088-70.5078 110.889-99.6582 75.6348-99.6582C40.3809-99.6582 11.2793-70.5078 11.2793-35.2539C11.2793 0 40.3809 29.1504 75.6836 29.1504ZM75.6836 18.0176C46.1426 18.0176 22.4609-5.76172 22.4609-35.2539C22.4609-64.7461 46.1426-88.5254 75.6348-88.5254C105.127-88.5254 128.906-64.7461 128.906-35.2539C128.955-5.76172 105.176 18.0176 75.6836 18.0176ZM70.0684 6.88477C72.5098 6.88477 74.0723 5.41992 74.0723 2.58789L74.0723-22.998C74.0723-24.2676 74.6094-25 75.6348-25C76.5625-25 77.1484-24.3164 77.1484-22.998L77.1484 2.58789C77.1484 5.37109 78.8086 6.88477 81.25 6.88477C83.5938 6.88477 85.1562 5.41992 85.1562 2.58789L85.1562-41.8457C85.1562-42.8711 85.791-43.5547 86.5723-43.5547C87.4023-43.5547 87.9395-42.9199 87.9395-41.8457L87.9395-23.6816C87.9395-21.1914 89.502-19.7754 91.6504-19.7754C93.7988-19.7754 95.2637-21.1914 95.2637-23.6816L95.2637-41.0645C95.2637-51.8555 89.3066-55.0781 75.7324-55.0781L70.5566-55.0781C68.0664-55.0781 66.9922-55.5176 65.1367-56.8359L59.8145-60.6934L58.9355-72.998C58.7891-75.5859 57.2266-76.9043 55.0781-76.7578C52.8809-76.6113 51.5137-75.0977 51.6602-72.5098L52.4414-60.3027C52.6367-57.7148 53.7598-56.1035 55.5664-54.7852L64.3555-48.1934C65.5273-47.3145 66.0156-46.2891 66.0156-44.873L66.0156 2.58789C66.0156 5.37109 67.7246 6.88477 70.0684 6.88477ZM75.7324-58.6914C80.2246-58.6914 83.8379-62.4023 83.8379-66.6992C83.8379-71.1914 80.2246-74.8047 75.7324-74.8047C71.2402-74.8047 67.7246-71.1914 67.7246-66.6992C67.7246-62.4023 71.2402-58.6914 75.7324-58.6914Z"/>
  </g>
  <g id="Regular-L" transform="matrix(1 0 0 1 1374.97 1556)">
   <path d="M74.8535 28.3203C109.668 28.3203 138.477-0.488281 138.477-35.2539C138.477-70.0684 109.619-98.877 74.8047-98.877C40.0391-98.877 11.2793-70.0684 11.2793-35.2539C11.2793-0.488281 40.0879 28.3203 74.8535 28.3203ZM74.8535 19.2383C44.6777 19.2383 20.4102-5.07812 20.4102-35.2539C20.4102-65.4785 44.6289-89.7461 74.8047-89.7461C105.029-89.7461 129.297-65.4785 129.346-35.2539C129.395-5.07812 105.078 19.2383 74.8535 19.2383ZM69.3359 7.27539C71.6797 7.27539 73.2422 5.81055 73.2422 3.02734L73.2422-23.1934C73.2422-24.4629 73.7793-25.1953 74.8535-25.1953C75.7812-25.1953 76.3184-24.5117 76.3184-23.1934L76.3184 3.02734C76.3184 5.81055 78.0273 7.27539 80.4199 7.27539C82.7637 7.27539 84.2773 5.81055 84.2773 3.02734L84.2773-42.5293C84.2773-43.5547 84.8633-44.2383 85.6934-44.2383C86.5234-44.2383 87.0605-43.6035 87.0605-42.5293L87.0605-23.6816C87.0605-21.2402 88.5742-19.8242 90.7227-19.8242C92.8223-19.8242 94.2383-21.2402 94.2383-23.6816L94.2383-41.6992C94.2383-52.5391 88.2812-55.7617 74.9512-55.7617L69.7266-55.7617C67.2363-55.7617 66.1621-56.2012 64.2578-57.5195L58.8379-61.2793L57.959-73.8281C57.8125-76.3672 56.2988-77.6367 54.1504-77.5391C52.0508-77.3438 50.6836-75.9277 50.8301-73.3887L51.6602-61.0352C51.8066-58.4473 52.9297-56.7871 54.7363-55.5176L63.5742-49.0234C64.7949-48.1445 65.2832-47.1191 65.2832-45.6543L65.2832 3.02734C65.2832 5.81055 66.9922 7.27539 69.3359 7.27539ZM74.9512-59.4238C79.4434-59.4238 83.0566-63.1348 83.0566-67.4805C83.0566-72.0215 79.4434-75.5859 74.9512-75.5859C70.4102-75.5859 66.8945-72.0215 66.8945-67.4805C66.8945-63.1836 70.4102-59.4238 74.9512-59.4238Z"/>
  </g>
  <g id="Light-L" transform="matrix(1 0 0 1 1079.18 1556)">
   <path d="M73.9258 27.3926C108.301 27.3926 136.621-0.927734 136.621-35.2539C136.621-69.6289 108.252-97.9492 73.9258-97.9492C39.5508-97.9492 11.2793-69.6289 11.2793-35.2539C11.2793-0.927734 39.5996 27.3926 73.9258 27.3926ZM73.9258 20.5078C43.1152 20.5078 18.2129-4.44336 18.2129-35.2539C18.2129-66.1133 43.0664-91.0156 73.9258-91.0156C104.736-91.0156 129.688-66.1133 129.736-35.2539C129.736-4.44336 104.785 20.5078 73.9258 20.5078ZM68.75 7.03125C70.9961 7.03125 72.4121 5.56641 72.4121 2.97852L72.4121-23.7793C72.4121-25 72.9492-25.7324 73.9258-25.7324C74.8535-25.7324 75.3418-25.0488 75.3418-23.7793L75.3418 2.97852C75.3418 5.51758 76.9531 7.03125 79.1992 7.03125C81.3965 7.03125 82.8125 5.56641 82.8125 2.97852L82.8125-43.3105C82.8125-44.3359 83.4473-45.0195 84.2285-45.0195C85.1074-45.0195 85.5957-44.3848 85.5957-43.3105L85.5957-23.877C85.5957-21.582 86.9629-20.2637 89.0137-20.2637C90.918-20.2637 92.2363-21.582 92.2363-23.877L92.2363-42.7246C92.2363-52.9785 86.8164-56.2988 74.0723-56.2988L68.9941-56.2988C66.6016-56.2988 65.6738-56.7871 63.916-57.959L58.4961-61.6699L57.6172-74.1699C57.4219-76.5137 56.0547-77.7344 54.1016-77.6367C52.0996-77.4414 50.8301-76.0742 50.9766-73.7305L51.8066-61.7676C51.9531-59.2285 52.9785-57.5684 54.7363-56.3477L63.2812-50.1465C64.4531-49.3164 64.9414-48.1934 64.9414-46.6797L64.9414 2.97852C64.9414 5.51758 66.5039 7.03125 68.75 7.03125ZM74.0723-60.0098C78.5156-60.0098 82.0312-63.623 82.0312-67.9199C82.0312-72.3633 78.5645-75.9277 74.0723-75.9277C69.6777-75.9277 66.1133-72.3633 66.1133-67.9199C66.1133-63.6719 69.6777-60.0098 74.0723-60.0098Z"/>
  </g>
  <g id="Thin-L" transform="matrix(1 0 0 1 783.693 1556)">
   <path d="M72.7051 26.1719C106.494 26.1719 134.18-1.51367 134.18-35.2539C134.18-69.043 106.494-96.7285 72.7051-96.7285C38.9648-96.7285 11.2793-69.043 11.2793-35.2539C11.2793-1.51367 38.9648 26.1719 72.7051 26.1719ZM72.7051 22.168C41.0156 22.168 15.2832-3.56445 15.2832-35.2539C15.2832-66.9922 41.0156-92.7246 72.7051-92.7246C104.395-92.7246 130.176-66.9922 130.176-35.2539C130.176-3.56445 104.443 22.168 72.7051 22.168ZM68.0176 6.64062C70.0684 6.64062 71.2891 5.27344 71.2891 2.92969L71.2891-24.6094C71.2891-25.6836 71.875-26.416 72.7051-26.416C73.584-26.416 74.0723-25.7324 74.0723-24.6094L74.0723 2.92969C74.0723 5.17578 75.4883 6.64062 77.6367 6.64062C79.5898 6.64062 80.9082 5.27344 80.9082 2.92969L80.9082-44.3359C80.9082-45.3613 81.4941-46.0938 82.2754-46.0938C83.1543-46.0938 83.6426-45.459 83.6426-44.3359L83.6426-24.1211C83.6426-22.0215 84.8633-20.8008 86.7188-20.8008C88.4766-20.8008 89.6484-22.0215 89.6484-24.1211L89.6484-44.0918C89.6484-53.5156 84.8633-57.0312 72.9004-57.0312L67.9688-57.0312C65.7715-57.0312 64.9902-57.5195 63.4277-58.5938L58.1055-62.1582L57.1289-74.5605C56.9824-76.709 55.8105-77.8809 54.0039-77.7832C52.1973-77.5879 51.0254-76.3184 51.1719-74.2188L52.002-62.6953C52.1484-60.3027 52.9785-58.6426 54.7363-57.4219L62.8906-51.6113C63.9648-50.8789 64.4531-49.6582 64.4531-48.0957L64.4531 2.92969C64.4531 5.17578 65.8691 6.64062 68.0176 6.64062ZM72.9004-60.7422C77.2949-60.7422 80.7129-64.209 80.7129-68.5059C80.7129-72.8516 77.3438-76.3184 72.9004-76.3184C68.6523-76.3184 65.1367-72.8516 65.1367-68.5059C65.1367-64.3066 68.6523-60.7422 72.9004-60.7422Z"/>
  </g>
  <g id="Ultralight-L" transform="matrix(1 0 0 1 487.616 1556)">
   <path d="M72.1191 25.5371C105.566 25.5371 132.91-1.80664 132.91-35.2539C132.91-68.75 105.566-96.0938 72.1191-96.0938C38.623-96.0938 11.2793-68.75 11.2793-35.2539C11.2793-1.80664 38.623 25.5371 72.1191 25.5371ZM72.1191 23.0469C39.9414 23.0469 13.7695-3.125 13.7695-35.2539C13.7695-67.4316 39.9414-93.6035 72.1191-93.6035C104.248-93.6035 130.42-67.4316 130.42-35.2539C130.42-3.125 104.248 23.0469 72.1191 23.0469ZM67.627 6.44531C69.5801 6.44531 70.752 5.12695 70.752 2.92969L70.752-25C70.752-26.0254 71.2891-26.7578 72.0703-26.7578C72.9492-26.7578 73.4375-26.123 73.4375-25L73.4375 2.92969C73.4375 5.0293 74.7559 6.44531 76.8066 6.44531C78.7109 6.44531 79.9316 5.12695 79.9316 2.92969L79.9316-44.873C79.9316-45.8984 80.5176-46.6309 81.2988-46.6309C82.1777-46.6309 82.666-45.9961 82.666-44.873L82.666-24.2188C82.666-22.2656 83.7402-21.0938 85.5469-21.0938C87.207-21.0938 88.2812-22.2656 88.2812-24.2188L88.2812-44.7754C88.2812-53.8086 83.8867-57.4219 72.3145-57.4219L67.4805-57.4219C65.332-57.4219 64.6484-57.9102 63.1836-58.8867L57.8613-62.4023L56.8848-74.7559C56.7383-76.8066 55.6641-77.9297 53.9551-77.832C52.1973-77.6855 51.123-76.416 51.2695-74.4629L52.0996-63.1836C52.2461-60.8887 52.9785-59.1797 54.7852-57.959L62.6953-52.3438C63.7207-51.6602 64.209-50.4395 64.209-48.7793L64.209 2.92969C64.209 5.0293 65.5273 6.44531 67.627 6.44531ZM72.3145-61.084C76.6602-61.084 80.0293-64.5508 80.0293-68.7988C80.0293-73.0957 76.7578-76.5625 72.3145-76.5625C68.1152-76.5625 64.6484-73.0957 64.6484-68.7988C64.6484-64.5996 68.1152-61.084 72.3145-61.084Z"/>
  </g>
  <g id="Black-M" transform="matrix(1 0 0 1 2870.97 1126)">
   <path d="M62.4023 18.457C91.9922 18.457 116.113-5.61523 116.113-35.2051C116.113-64.7949 91.9922-88.8672 62.4023-88.8672C32.8125-88.8672 8.74023-64.7949 8.74023-35.2051C8.74023-5.61523 32.8125 18.457 62.4023 18.457ZM62.4023 0.195312C42.8711 0.195312 27.002-15.625 27.002-35.2051C27.002-54.7363 42.8711-70.6055 62.4023-70.6055C81.9824-70.6055 97.8027-54.7363 97.8027-35.2051C97.8027-15.625 81.9824 0.195312 62.4023 0.195312ZM58.0566-4.78516C60.0098-4.78516 61.2793-6.10352 61.2793-8.34961L61.2793-25.0488C61.2793-25.9277 61.7188-26.4648 62.4023-26.4648C62.9883-26.4648 63.5742-25.9277 63.5742-25.0488L63.5742-8.34961C63.5742-6.15234 64.7461-4.78516 66.6992-4.78516C68.6523-4.78516 69.9219-6.10352 69.9219-8.34961L69.9219-37.0605C69.9219-37.9395 70.3613-38.5742 71.0449-38.5742C71.6797-38.5742 72.168-37.9395 72.168-37.0605L72.168-26.3672C72.168-24.3652 73.3398-23.0957 75.0977-23.0957C76.9043-23.0957 78.0762-24.3652 78.0762-26.3672L78.0762-36.9629C78.0762-44.6289 73.877-47.4609 62.4512-47.4609L58.7402-47.4609C56.9824-47.4609 56.2012-47.6074 54.8828-48.7305L51.2695-51.8066L50.7324-60.2539C50.5859-62.3047 49.2188-63.5254 47.4121-63.3789C45.5566-63.3301 44.2871-61.9629 44.4336-59.9121L45.0684-51.0742C45.166-49.3652 45.9961-48.2422 47.4609-46.9238L53.8086-41.4062C54.541-40.8203 54.9316-40.1855 54.9316-39.1602L54.9316-8.34961C54.9316-6.15234 56.1523-4.78516 58.0566-4.78516ZM62.4512-49.8047C65.7715-49.8047 68.5547-52.6367 68.5547-55.8105C68.5547-59.1797 65.7715-61.9629 62.4512-61.9629C59.1797-61.9629 56.4941-59.1797 56.4941-55.8105C56.4941-52.5391 59.1797-49.8047 62.4512-49.8047Z"/>
  </g>
  <g id="Heavy-M" transform="matrix(1 0 0 1 2575.19 1126)">
   <path d="M61.5234 17.5293C90.5273 17.5293 114.258-6.20117 114.258-35.2051C114.258-64.2578 90.5273-87.9883 61.4746-87.9883C32.4707-87.9883 8.74023-64.2578 8.74023-35.2051C8.74023-6.20117 32.4707 17.5293 61.5234 17.5293ZM61.5234 1.61133C41.1133 1.61133 24.6582-14.8438 24.6582-35.2051C24.6582-55.6152 41.1133-72.0703 61.4746-72.0703C81.8848-72.0703 98.3398-55.6152 98.3398-35.2051C98.3398-14.8438 81.8848 1.61133 61.5234 1.61133ZM57.0801-4.15039C59.082-4.15039 60.3027-5.41992 60.3027-7.66602L60.3027-25.1465C60.3027-26.0742 60.7422-26.6113 61.4746-26.6113C62.1094-26.6113 62.6465-26.0742 62.6465-25.1465L62.6465-7.66602C62.6465-5.46875 63.8672-4.15039 65.8203-4.15039C67.7734-4.15039 69.043-5.41992 69.043-7.66602L69.043-37.8418C69.043-38.7207 69.4824-39.3066 70.1172-39.3066C70.752-39.3066 71.2402-38.7207 71.2402-37.8418L71.2402-26.3184C71.2402-24.3164 72.4609-23.0957 74.1699-23.0957C75.9766-23.0957 77.1484-24.3164 77.1484-26.3184L77.1484-37.5977C77.1484-45.5566 72.7539-48.2422 61.5234-48.2422L57.7148-48.2422C55.9082-48.2422 55.0781-48.4375 53.7109-49.5605L50-52.6367L49.4141-61.377C49.2676-63.4277 47.9492-64.5996 46.1426-64.4531C44.2871-64.4043 43.0664-63.0859 43.2129-60.9863L43.8477-51.9531C43.9453-50.1465 44.8242-48.9746 46.2891-47.7539L52.7832-42.334C53.5645-41.6992 53.9551-41.0156 53.9551-39.9902L53.9551-7.66602C53.9551-5.46875 55.2246-4.15039 57.0801-4.15039ZM61.5234-50.7324C64.8926-50.7324 67.6758-53.5645 67.6758-56.7871C67.6758-60.2051 64.8926-62.9883 61.5234-62.9883C58.1543-62.9883 55.4688-60.2051 55.4688-56.7871C55.4688-53.5156 58.1543-50.7324 61.5234-50.7324Z"/>
  </g>
  <g id="Bold-M" transform="matrix(1 0 0 1 2279.5 1126)">
   <path d="M60.498 16.5039C88.8672 16.5039 112.207-6.83594 112.207-35.2051C112.207-63.623 88.8672-86.9629 60.4492-86.9629C32.0312-86.9629 8.74023-63.623 8.74023-35.2051C8.74023-6.83594 32.0801 16.5039 60.498 16.5039ZM60.498 3.22266C39.1602 3.22266 22.0703-13.916 22.0703-35.2051C22.0703-56.543 39.1602-73.6816 60.4492-73.6816C81.7383-73.6816 98.9258-56.543 98.9258-35.2051C98.9746-13.916 81.7871 3.22266 60.498 3.22266ZM56.0547-3.4668C57.959-3.4668 59.2285-4.6875 59.2285-6.93359L59.2285-25.293C59.2285-26.2695 59.668-26.8066 60.4492-26.8066C61.1328-26.8066 61.6211-26.2695 61.6211-25.293L61.6211-6.93359C61.6211-4.73633 62.8906-3.4668 64.8438-3.4668C66.748-3.4668 68.0176-4.6875 68.0176-6.93359L68.0176-38.7695C68.0176-39.5996 68.457-40.1855 69.1406-40.1855C69.7754-40.1855 70.2148-39.5996 70.2148-38.7695L70.2148-26.2695C70.2148-24.2676 71.4355-23.0957 73.1934-23.0957C74.9512-23.0957 76.123-24.2676 76.123-26.2695L76.123-38.3301C76.123-46.5332 71.5332-49.1211 60.498-49.1211L56.5918-49.1211C54.6875-49.1211 53.8574-49.3652 52.4414-50.4883L48.5352-53.5156L47.9004-62.5977C47.8027-64.6973 46.4844-65.7715 44.7266-65.6738C42.9199-65.5762 41.748-64.3066 41.8457-62.2559L42.4805-52.9785C42.627-51.0254 43.5059-49.8535 44.9219-48.6816L51.6113-43.3594C52.4902-42.6758 52.832-41.9922 52.832-40.918L52.832-6.93359C52.832-4.73633 54.1504-3.4668 56.0547-3.4668ZM60.498-51.7578C63.916-51.7578 66.748-54.5898 66.748-57.8613C66.748-61.3281 63.916-64.1602 60.498-64.1602C57.0801-64.1602 54.3457-61.3281 54.3457-57.8613C54.3457-54.5898 57.0801-51.7578 60.498-51.7578Z"/>
  </g>
  <g id="Semibold-M" transform="matrix(1 0 0 1 1983.5 1126)">
   <path d="M59.7656 15.8203C87.7441 15.8203 110.791-7.27539 110.791-35.2539C110.791-63.2324 87.6953-86.2793 59.7656-86.2793C31.7871-86.2793 8.74023-63.2324 8.74023-35.2539C8.74023-7.27539 31.7871 15.8203 59.7656 15.8203ZM59.7656 4.3457C37.8418 4.3457 20.2637-13.3301 20.2637-35.2539C20.2637-57.1777 37.793-74.8047 59.7656-74.8047C81.6895-74.8047 99.3164-57.1777 99.3652-35.2539C99.3652-13.3301 81.6895 4.3457 59.7656 4.3457ZM55.3223-2.97852C57.2266-2.97852 58.4961-4.19922 58.4961-6.44531L58.4961-25.3906C58.4961-26.3672 58.9355-26.9531 59.7656-26.9531C60.4492-26.9531 60.8887-26.3672 60.8887-25.3906L60.8887-6.44531C60.8887-4.19922 62.2559-2.97852 64.1602-2.97852C66.0645-2.97852 67.334-4.19922 67.334-6.44531L67.334-39.3555C67.334-40.1855 67.7734-40.7227 68.457-40.7227C69.043-40.7227 69.5312-40.1855 69.5312-39.3555L69.5312-26.2207C69.5312-24.2188 70.752-23.0469 72.4609-23.0469C74.2188-23.0469 75.3906-24.2188 75.3906-26.2207L75.3906-38.8184C75.3906-47.2168 70.7031-49.7559 59.8145-49.7559L55.8105-49.7559C53.8574-49.7559 53.0273-50.0488 51.5625-51.123L47.5098-54.1504L46.875-63.4766C46.7773-65.5273 45.459-66.6016 43.7012-66.5039C41.9434-66.4062 40.8203-65.1855 40.918-63.0859L41.5527-53.6621C41.6504-51.6602 42.5781-50.4395 43.9941-49.3652L50.8301-44.043C51.709-43.4082 52.0996-42.627 52.0996-41.6016L52.0996-6.44531C52.0996-4.19922 53.418-2.97852 55.3223-2.97852ZM59.8145-52.4414C63.2324-52.4414 66.0645-55.3223 66.0645-58.6426C66.0645-62.1094 63.2324-64.9414 59.8145-64.9414C56.3477-64.9414 53.5645-62.1094 53.5645-58.6426C53.5645-55.3223 56.3477-52.4414 59.8145-52.4414Z"/>
  </g>
  <g id="Medium-M" transform="matrix(1 0 0 1 1687.3 1126)">
   <path d="M59.2285 15.2344C86.9141 15.2344 109.766-7.61719 109.766-35.2539C109.766-62.8906 86.8652-85.7422 59.1797-85.7422C31.543-85.7422 8.74023-62.8906 8.74023-35.2539C8.74023-7.61719 31.5918 15.2344 59.2285 15.2344ZM59.2285 5.17578C36.8164 5.17578 18.8965-12.8418 18.8965-35.2539C18.8965-57.666 36.8164-75.6348 59.1797-75.6348C81.5918-75.6348 99.6094-57.666 99.6582-35.2539C99.707-12.8418 81.6406 5.17578 59.2285 5.17578ZM54.7363-2.58789C56.6895-2.58789 57.959-3.80859 57.959-6.05469L57.959-25.4395C57.959-26.4648 58.3984-27.0508 59.2285-27.0508C59.9121-27.0508 60.3516-26.4648 60.3516-25.4395L60.3516-6.05469C60.3516-3.80859 61.7188-2.58789 63.623-2.58789C65.5762-2.58789 66.7969-3.80859 66.7969-6.05469L66.7969-39.8438C66.7969-40.6738 67.2852-41.2109 67.9199-41.2109C68.5547-41.2109 68.9941-40.6738 68.9941-39.8438L68.9941-26.2207C68.9941-24.2188 70.2148-23.0469 71.9727-23.0469C73.6816-23.0469 74.8535-24.2188 74.8535-26.2207L74.8535-39.209C74.8535-47.7539 70.0684-50.1953 59.2773-50.1953L55.2246-50.1953C53.2715-50.1953 52.3438-50.5371 50.8789-51.6113L46.7285-54.5898L46.0938-64.1113C45.9961-66.1621 44.6777-67.2363 42.9688-67.1387C41.2109-66.9922 40.0879-65.8203 40.2344-63.7207L40.8203-54.1504C40.9668-52.1484 41.8945-50.8789 43.3105-49.8535L50.2441-44.5801C51.123-43.8965 51.5137-43.1641 51.5137-42.0898L51.5137-6.05469C51.5137-3.80859 52.8809-2.58789 54.7363-2.58789ZM59.2773-52.9785C62.7441-52.9785 65.5762-55.9082 65.5762-59.2285C65.5762-62.7441 62.7441-65.5762 59.2773-65.5762C55.7617-65.5762 52.9785-62.7441 52.9785-59.2285C52.9785-55.9082 55.7617-52.9785 59.2773-52.9785Z"/>
  </g>
  <g id="Regular-M" transform="matrix(1 0 0 1 1391.3 1126)">
   <path d="M58.5449 14.5508C85.791 14.5508 108.35-8.05664 108.35-35.2539C108.35-62.5 85.7422-85.0586 58.4961-85.0586C31.2988-85.0586 8.74023-62.5 8.74023-35.2539C8.74023-8.05664 31.3477 14.5508 58.5449 14.5508ZM58.5449 6.25C35.498 6.25 17.0898-12.207 17.0898-35.2539C17.0898-58.3008 35.4492-76.7578 58.4961-76.7578C81.543-76.7578 100-58.3008 100.049-35.2539C100.098-12.207 81.5918 6.25 58.5449 6.25ZM54.0527-2.09961C55.9082-2.09961 57.2266-3.27148 57.2266-5.56641L57.2266-25.5371C57.2266-26.6113 57.666-27.1484 58.4961-27.1484C59.2285-27.1484 59.668-26.6113 59.668-25.5371L59.668-5.56641C59.668-3.27148 61.084-2.09961 62.9883-2.09961C64.8438-2.09961 66.1133-3.27148 66.1133-5.56641L66.1133-40.4297C66.1133-41.2598 66.6016-41.748 67.2363-41.748C67.8711-41.748 68.2617-41.2598 68.2617-40.4297L68.2617-26.1719C68.2617-24.1699 69.5312-23.0469 71.2891-23.0469C72.9492-23.0469 74.1211-24.1699 74.1211-26.1719L74.1211-39.6973C74.1211-48.3887 69.1895-50.8301 58.5449-50.8301L54.4434-50.8301C52.4414-50.8301 51.5137-51.1719 50-52.2461L45.752-55.2246L45.1172-64.9902C44.9707-67.041 43.7012-68.0664 41.9922-67.9199C40.2832-67.8223 39.1602-66.6504 39.3066-64.5508L39.8926-54.834C40.0391-52.7344 41.0156-51.4648 42.3828-50.4883L49.4141-45.3125C50.3906-44.5801 50.7812-43.7988 50.7812-42.7246L50.7812-5.56641C50.7812-3.27148 52.1484-2.09961 54.0527-2.09961ZM58.5449-53.6621C62.0605-53.6621 64.9414-56.5918 64.9414-59.9609C64.9414-63.5254 62.0605-66.3574 58.5449-66.3574C54.9805-66.3574 52.2461-63.5254 52.2461-59.9609C52.2461-56.5918 54.9805-53.6621 58.5449-53.6621Z"/>
  </g>
  <g id="Light-M" transform="matrix(1 0 0 1 1095.42 1126)">
   <path d="M57.7148 13.7207C84.5215 13.7207 106.689-8.44727 106.689-35.2539C106.689-62.1094 84.5215-84.2285 57.666-84.2285C30.8594-84.2285 8.74023-62.1094 8.74023-35.2539C8.74023-8.44727 30.9082 13.7207 57.7148 13.7207ZM57.7148 7.37305C34.082 7.37305 15.0879-11.6699 15.0879-35.2539C15.0879-58.8867 34.082-77.9297 57.666-77.9297C81.2988-77.9297 100.342-58.8867 100.391-35.2539C100.391-11.6699 81.3477 7.37305 57.7148 7.37305ZM53.5156-2.39258C55.3223-2.39258 56.4453-3.51562 56.4453-5.61523L56.4453-26.0742C56.4453-27.0508 56.8848-27.6367 57.666-27.6367C58.3984-27.6367 58.7891-27.0996 58.7891-26.0742L58.7891-5.61523C58.7891-3.51562 60.1074-2.39258 61.9141-2.39258C63.6719-2.39258 64.8438-3.51562 64.8438-5.61523L64.8438-41.1133C64.8438-41.9434 65.2832-42.4805 65.918-42.4805C66.5527-42.4805 66.9922-41.9922 66.9922-41.1133L66.9922-26.3184C66.9922-24.5117 68.1152-23.4375 69.7266-23.4375C71.2891-23.4375 72.3633-24.5117 72.3633-26.3184L72.3633-40.5762C72.3633-48.7793 67.9199-51.3184 57.7637-51.3184L53.7598-51.3184C51.8555-51.3184 51.0742-51.6602 49.6582-52.6367L45.459-55.5664L44.7754-65.2344C44.6777-67.1387 43.5059-68.1152 41.9434-68.0176C40.332-67.9199 39.3066-66.7969 39.4043-64.8926L40.0391-55.4688C40.1855-53.4668 41.0156-52.1973 42.3828-51.2207L49.1699-46.2891C50.0977-45.6543 50.4395-44.7754 50.4395-43.6523L50.4395-5.61523C50.4395-3.51562 51.7578-2.39258 53.5156-2.39258ZM57.7637-54.1992C61.2305-54.1992 64.0137-57.0312 64.0137-60.3516C64.0137-63.8672 61.2793-66.6016 57.7637-66.6016C54.2969-66.6016 51.5625-63.8672 51.5625-60.3516C51.5625-57.0312 54.2969-54.1992 57.7637-54.1992Z"/>
  </g>
  <g id="Thin-M" transform="matrix(1 0 0 1 799.806 1126)">
   <path d="M56.6406 12.5977C82.9102 12.5977 104.492-8.98438 104.492-35.2539C104.492-61.5723 82.9102-83.1543 56.5918-83.1543C30.3223-83.1543 8.74023-61.5723 8.74023-35.2539C8.74023-8.98438 30.3223 12.5977 56.6406 12.5977ZM56.6406 8.88672C32.2266 8.88672 12.4512-10.8887 12.4512-35.2539C12.4512-59.6191 32.2266-79.4434 56.5918-79.4434C81.0059-79.4434 100.781-59.6191 100.781-35.2539C100.781-10.8887 81.0059 8.88672 56.6406 8.88672ZM52.832-2.68555C54.4922-2.68555 55.4688-3.75977 55.4688-5.61523L55.4688-26.8066C55.4688-27.6855 55.9082-28.2227 56.5918-28.2227C57.2754-28.2227 57.666-27.7344 57.666-26.8066L57.666-5.61523C57.666-3.80859 58.7891-2.68555 60.498-2.68555C62.0605-2.68555 63.1348-3.75977 63.1348-5.61523L63.1348-42.041C63.1348-42.8711 63.5742-43.4082 64.209-43.4082C64.8438-43.4082 65.2344-42.9199 65.2344-42.041L65.2344-26.5625C65.2344-24.9023 66.2109-23.9258 67.7246-23.9258C69.0918-23.9258 70.0195-24.9023 70.0195-26.5625L70.0195-41.7969C70.0195-49.3164 66.2109-51.9531 56.7383-51.9531L52.8809-51.9531C51.123-51.9531 50.4883-52.3438 49.2676-53.2227L45.1172-56.0059L44.3848-65.625C44.2383-67.334 43.3105-68.2617 41.8457-68.1641C40.4297-68.0664 39.502-66.9922 39.5996-65.332L40.2344-56.2988C40.3809-54.4434 41.0645-53.125 42.4316-52.1973L48.8281-47.6074C49.6582-47.0215 50.0488-46.0938 50.0488-44.873L50.0488-5.61523C50.0488-3.80859 51.1719-2.68555 52.832-2.68555ZM56.7383-54.834C60.1562-54.834 62.8418-57.5684 62.8418-60.8887C62.8418-64.3066 60.2051-66.9922 56.7383-66.9922C53.418-66.9922 50.6836-64.3066 50.6836-60.8887C50.6836-57.6172 53.418-54.834 56.7383-54.834Z"/>
  </g>
  <g id="Ultralight-M" transform="matrix(1 0 0 1 503.656 1126)">
   <path d="M56.0547 12.0605C82.0801 12.0605 103.369-9.22852 103.369-35.2539C103.369-61.2793 82.0801-82.5684 56.0547-82.5684C30.0293-82.5684 8.74023-61.2793 8.74023-35.2539C8.74023-9.22852 30.0293 12.0605 56.0547 12.0605ZM56.0547 9.66797C31.2988 9.66797 11.1328-10.498 11.1328-35.2539C11.1328-60.0586 31.2988-80.1758 56.0547-80.1758C80.8594-80.1758 100.977-60.0586 100.977-35.2539C100.977-10.498 80.8594 9.66797 56.0547 9.66797ZM52.4902-2.88086C54.0527-2.88086 54.9805-3.90625 54.9805-5.66406L54.9805-27.1973C54.9805-27.9785 55.4199-28.5645 56.0547-28.5645C56.7383-28.5645 57.0801-28.0762 57.0801-27.1973L57.0801-5.66406C57.0801-4.00391 58.1543-2.88086 59.7656-2.88086C61.2793-2.88086 62.2559-3.90625 62.2559-5.66406L62.2559-42.5293C62.2559-43.3594 62.6953-43.8965 63.3301-43.8965C64.0137-43.8965 64.3555-43.4082 64.3555-42.5293L64.3555-26.6602C64.3555-25.0977 65.2344-24.1699 66.6504-24.1699C67.9688-24.1699 68.8477-25.0977 68.8477-26.6602L68.8477-42.4316C68.8477-49.5605 65.2832-52.2949 56.25-52.2949L52.4414-52.2949C50.7812-52.2949 50.1953-52.6855 49.0234-53.4668L44.9219-56.2012L44.1895-65.8203C44.043-67.4316 43.1641-68.3105 41.7969-68.2129C40.4297-68.1152 39.5996-67.1387 39.6973-65.5762L40.332-56.7383C40.4785-54.9316 41.0645-53.6133 42.4316-52.6855L48.6816-48.291C49.4629-47.7051 49.8535-46.7773 49.8535-45.5566L49.8535-5.66406C49.8535-4.00391 50.8789-2.88086 52.4902-2.88086ZM56.25-55.1758C59.6191-55.1758 62.207-57.8613 62.207-61.1328C62.207-64.502 59.668-67.1875 56.25-67.1875C52.9297-67.1875 50.2441-64.502 50.2441-61.1328C50.2441-57.9102 52.9297-55.1758 56.25-55.1758Z"/>
  </g>
  <g id="Black-S" transform="matrix(1 0 0 1 2884.57 696)">
   <path d="M48.8281 6.78711C71.9727 6.78711 90.8203-12.0605 90.8203-35.2051C90.8203-58.3496 71.9727-77.1973 48.8281-77.1973C25.6836-77.1973 6.83594-58.3496 6.83594-35.2051C6.83594-12.0605 25.6836 6.78711 48.8281 6.78711ZM48.8281-7.37305C33.4473-7.37305 20.9961-19.8242 20.9961-35.2051C20.9961-50.5859 33.4473-63.0371 48.8281-63.0371C64.209-63.0371 76.6602-50.5859 76.6602-35.2051C76.6602-19.8242 64.209-7.37305 48.8281-7.37305ZM45.4102-11.3281C46.9727-11.3281 47.9492-12.3535 47.9492-14.1113L47.9492-27.2461C47.9492-27.9297 48.291-28.3691 48.8281-28.3691C49.3164-28.3691 49.7559-27.9297 49.7559-27.2461L49.7559-14.1113C49.7559-12.4023 50.6836-11.3281 52.1973-11.3281C53.7598-11.3281 54.7363-12.3535 54.7363-14.1113L54.7363-36.7188C54.7363-37.4023 55.0781-37.8906 55.6152-37.8906C56.1035-37.8906 56.4941-37.4023 56.4941-36.7188L56.4941-28.2715C56.4941-26.709 57.4219-25.7324 58.7891-25.7324C60.2051-25.7324 61.1328-26.709 61.1328-28.2715L61.1328-36.6211C61.1328-42.6758 57.8125-44.873 48.877-44.873L45.9473-44.873C44.5801-44.873 43.9453-44.9707 42.9199-45.8496L40.0879-48.291L39.6484-54.9316C39.5508-56.543 38.4766-57.4707 37.0605-57.373C35.5957-57.3242 34.6191-56.25 34.7168-54.6387L35.2051-47.7051C35.3027-46.3379 35.9375-45.459 37.1094-44.4336L42.0898-40.1367C42.6758-39.6484 42.9688-39.1602 42.9688-38.3789L42.9688-14.1113C42.9688-12.4023 43.9453-11.3281 45.4102-11.3281ZM48.877-46.7285C51.4648-46.7285 53.6621-48.9258 53.6621-51.416C53.6621-54.0527 51.4648-56.25 48.877-56.25C46.2891-56.25 44.1895-54.0527 44.1895-51.416C44.1895-48.877 46.2891-46.7285 48.877-46.7285Z"/>
  </g>
  <g id="Heavy-S" transform="matrix(1 0 0 1 2588.47 696)">
   <path d="M48.2422 6.15234C70.9961 6.15234 89.5996-12.4512 89.5996-35.2051C89.5996-57.959 70.9961-76.6113 48.1934-76.6113C25.4395-76.6113 6.83594-57.959 6.83594-35.2051C6.83594-12.4512 25.4395 6.15234 48.2422 6.15234ZM48.2422-6.39648C32.2754-6.39648 19.4336-19.2871 19.4336-35.2051C19.4336-51.1719 32.2754-64.0137 48.1934-64.0137C64.1602-64.0137 77.002-51.1719 77.0508-35.2051C77.0508-19.2871 64.1602-6.39648 48.2422-6.39648ZM44.7754-10.8398C46.2891-10.8398 47.3145-11.8164 47.3145-13.623L47.3145-27.2949C47.3145-28.0273 47.6562-28.4668 48.2422-28.4668C48.7305-28.4668 49.1699-28.0273 49.1699-27.2949L49.1699-13.623C49.1699-11.8652 50.1465-10.8398 51.6602-10.8398C53.2227-10.8398 54.1992-11.8164 54.1992-13.623L54.1992-37.2559C54.1992-37.9395 54.541-38.3789 55.0781-38.3789C55.5664-38.3789 55.957-37.9395 55.957-37.2559L55.957-28.2227C55.957-26.6602 56.8848-25.6836 58.3008-25.6836C59.668-25.6836 60.6445-26.6602 60.6445-28.2227L60.6445-37.0117C60.6445-43.3105 57.1289-45.4102 48.291-45.4102L45.2637-45.4102C43.8477-45.4102 43.1641-45.5566 42.0898-46.4355L39.1113-48.877L38.6719-55.7617C38.5742-57.373 37.5-58.3008 36.084-58.2031C34.668-58.1055 33.6914-57.0801 33.7891-55.4688L34.2773-48.3398C34.375-46.875 35.0586-45.9473 36.1816-45.0195L41.3574-40.7227C41.9922-40.2344 42.2852-39.6973 42.2852-38.916L42.2852-13.623C42.2852-11.8652 43.2617-10.8398 44.7754-10.8398ZM48.291-47.3633C50.8789-47.3633 53.125-49.6094 53.125-52.0996C53.125-54.7852 50.8789-57.0312 48.291-57.0312C45.6055-57.0312 43.5059-54.7852 43.5059-52.0996C43.5059-49.5605 45.6055-47.3633 48.291-47.3633Z"/>
  </g>
  <g id="Bold-S" transform="matrix(1 0 0 1 2292.44 696)">
   <path d="M47.5586 5.46875C69.873 5.46875 88.2324-12.8906 88.2324-35.2539C88.2324-57.5684 69.873-75.9277 47.5098-75.9277C25.1953-75.9277 6.83594-57.5684 6.83594-35.2539C6.83594-12.8906 25.1953 5.46875 47.5586 5.46875ZM47.5586-5.32227C30.957-5.32227 17.6758-18.6523 17.6758-35.2539C17.6758-51.8066 30.957-65.1367 47.5098-65.1367C64.1113-65.1367 77.4414-51.8066 77.4414-35.2539C77.4414-18.6523 64.1113-5.32227 47.5586-5.32227ZM43.9941-10.2539C45.5566-10.2539 46.582-11.2305 46.582-13.0371L46.582-27.2949C46.582-28.0762 46.9238-28.5156 47.5586-28.5156C48.0957-28.5156 48.4863-28.0762 48.4863-27.2949L48.4863-13.0371C48.4863-11.2305 49.5117-10.2539 51.0254-10.2539C52.5879-10.2539 53.6133-11.2305 53.6133-13.0371L53.6133-37.8418C53.6133-38.5254 53.9551-38.9648 54.4922-38.9648C54.9805-38.9648 55.3223-38.5254 55.3223-37.8418L55.3223-28.1738C55.3223-26.5625 56.2988-25.6348 57.7148-25.6348C59.082-25.6348 60.0586-26.5625 60.0586-28.1738L60.0586-37.4512C60.0586-44.043 56.3477-46.0449 47.5586-46.0449L44.4824-46.0449C42.9688-46.0449 42.2852-46.2402 41.1621-47.1191L38.0371-49.5117L37.5977-56.6406C37.5-58.3008 36.4258-59.1797 35.0098-59.082C33.5938-59.0332 32.6172-58.0078 32.7148-56.3477L33.2031-49.0234C33.3008-47.4609 34.0332-46.5332 35.1562-45.6543L40.4785-41.4062C41.1621-40.8691 41.4551-40.332 41.4551-39.502L41.4551-13.0371C41.4551-11.2305 42.5293-10.2539 43.9941-10.2539ZM47.5586-48.0957C50.2441-48.0957 52.4902-50.3418 52.4902-52.9297C52.4902-55.6641 50.2441-57.8613 47.5586-57.8613C44.873-57.8613 42.7246-55.6641 42.7246-52.9297C42.7246-50.3418 44.873-48.0957 47.5586-48.0957Z"/>
  </g>
  <g id="Semibold-S" transform="matrix(1 0 0 1 1996.2 696)">
   <path d="M47.0703 4.98047C69.0918 4.98047 87.3047-13.1836 87.3047-35.2539C87.3047-57.2754 69.0918-75.4883 47.0215-75.4883C25-75.4883 6.83594-57.2754 6.83594-35.2539C6.83594-13.1836 25.0488 4.98047 47.0703 4.98047ZM47.0703-4.58984C30.0781-4.58984 16.4551-18.2129 16.4551-35.2539C16.4551-52.2461 30.0293-65.8691 47.0215-65.8691C64.0625-65.8691 77.6855-52.2461 77.7344-35.2539C77.7344-18.2129 64.0625-4.58984 47.0703-4.58984ZM43.5059-9.86328C45.0684-9.86328 46.0938-10.791 46.0938-12.6465L46.0938-27.3438C46.0938-28.125 46.4355-28.5645 47.0703-28.5645C47.6562-28.5645 47.998-28.125 47.998-27.3438L47.998-12.6465C47.998-10.8398 49.0723-9.86328 50.6348-9.86328C52.1973-9.86328 53.1738-10.791 53.1738-12.6465L53.1738-38.2812C53.1738-38.916 53.5645-39.3555 54.0527-39.3555C54.541-39.3555 54.8828-38.916 54.8828-38.2812L54.8828-28.125C54.8828-26.5137 55.9082-25.5859 57.3242-25.5859C58.6914-25.5859 59.668-26.5137 59.668-28.125L59.668-37.7441C59.668-44.5312 55.8105-46.4355 47.1191-46.4355L43.9453-46.4355C42.3828-46.4355 41.6504-46.6797 40.4785-47.5586L37.3047-49.9512L36.8164-57.2754C36.7188-58.9355 35.6445-59.8145 34.2773-59.7168C32.8613-59.6191 31.9336-58.6426 32.0312-56.9824L32.5195-49.4629C32.6172-47.9004 33.3496-46.9238 34.4727-46.0938L39.8926-41.8457C40.625-41.3086 40.918-40.7227 40.918-39.8926L40.918-12.6465C40.918-10.8398 41.9922-9.86328 43.5059-9.86328ZM47.1191-48.584C49.8047-48.584 52.0508-50.8789 52.0508-53.4668C52.0508-56.2012 49.8047-58.4473 47.1191-58.4473C44.3359-58.4473 42.1875-56.2012 42.1875-53.4668C42.1875-50.8301 44.3359-48.584 47.1191-48.584Z"/>
  </g>
  <g id="Medium-S" transform="matrix(1 0 0 1 1699.83 696)">
   <path d="M46.7285 4.63867C68.5547 4.63867 86.6211-13.4277 86.6211-35.2539C86.6211-57.0801 68.5059-75.1465 46.6797-75.1465C24.8535-75.1465 6.83594-57.0801 6.83594-35.2539C6.83594-13.4277 24.9023 4.63867 46.7285 4.63867ZM46.7285-4.00391C29.3945-4.00391 15.5273-17.9199 15.5273-35.2539C15.5273-52.5879 29.3457-66.4551 46.6797-66.4551C64.0137-66.4551 77.8809-52.5879 77.9297-35.2539C77.9785-17.9199 64.0625-4.00391 46.7285-4.00391ZM43.1152-9.57031C44.6777-9.57031 45.7031-10.498 45.7031-12.3535L45.7031-27.3438C45.7031-28.1738 46.0449-28.6133 46.7285-28.6133C47.3145-28.6133 47.6562-28.1738 47.6562-27.3438L47.6562-12.3535C47.6562-10.498 48.7793-9.57031 50.293-9.57031C51.8555-9.57031 52.8809-10.498 52.8809-12.3535L52.8809-38.5742C52.8809-39.209 53.2227-39.5996 53.7109-39.5996C54.248-39.5996 54.5898-39.209 54.5898-38.5742L54.5898-28.0762C54.5898-26.4648 55.6152-25.5371 56.9824-25.5371C58.3984-25.5371 59.375-26.4648 59.375-28.0762L59.375-37.9883C59.375-44.873 55.4199-46.7773 46.7285-46.7773L43.5547-46.7773C41.9434-46.7773 41.2109-47.0215 39.9902-47.9004L36.7188-50.293L36.2305-57.7637C36.1328-59.4238 35.1074-60.3027 33.6914-60.2051C32.2754-60.1074 31.3477-59.1309 31.4453-57.4219L31.9336-49.8047C32.0312-48.1934 32.8125-47.2168 33.9355-46.3867L39.4531-42.1875C40.1855-41.6016 40.4785-41.0645 40.4785-40.2344L40.4785-12.3535C40.4785-10.498 41.6016-9.57031 43.1152-9.57031ZM46.7285-48.9746C49.4629-48.9746 51.7578-51.2695 51.7578-53.8574C51.7578-56.6406 49.4629-58.8867 46.7285-58.8867C43.9453-58.8867 41.7969-56.6406 41.7969-53.8574C41.7969-51.2695 43.9453-48.9746 46.7285-48.9746Z"/>
  </g>
  <g id="Regular-S" transform="matrix(1 0 0 1 1403.58 696)">
   <path d="M46.2402 4.15039C67.7734 4.15039 85.6934-13.7207 85.6934-35.2539C85.6934-56.7871 67.7246-74.6582 46.1914-74.6582C24.707-74.6582 6.83594-56.7871 6.83594-35.2539C6.83594-13.7207 24.7559 4.15039 46.2402 4.15039ZM46.2402-3.27148C28.5156-3.27148 14.3555-17.4805 14.3555-35.2539C14.3555-53.0273 28.4668-67.2363 46.1914-67.2363C63.9648-67.2363 78.1738-53.0273 78.2227-35.2539C78.2715-17.4805 64.0137-3.27148 46.2402-3.27148ZM42.627-9.17969C44.1406-9.17969 45.2148-10.1074 45.2148-11.9629L45.2148-27.3926C45.2148-28.2227 45.5566-28.6621 46.2891-28.6621C46.8262-28.6621 47.168-28.2715 47.168-27.3926L47.168-11.9629C47.168-10.1074 48.3398-9.17969 49.9023-9.17969C51.416-9.17969 52.4414-10.1074 52.4414-11.9629L52.4414-38.9648C52.4414-39.5996 52.832-39.9902 53.3203-39.9902C53.8086-39.9902 54.1504-39.5996 54.1504-38.9648L54.1504-28.0762C54.1504-26.416 55.2246-25.4883 56.5918-25.4883C58.0078-25.4883 58.9844-26.416 58.9844-28.0762L58.9844-38.2812C58.9844-45.3613 54.8828-47.2168 46.2891-47.2168L43.0176-47.2168C41.3574-47.2168 40.625-47.5098 39.3555-48.3398L35.9863-50.7324L35.498-58.3984C35.4004-60.0586 34.375-60.8887 32.959-60.791C31.543-60.6934 30.6641-59.7656 30.7617-58.0566L31.25-50.293C31.3477-48.584 32.1289-47.6074 33.2031-46.8262L38.8672-42.627C39.6484-42.041 39.9414-41.4551 39.9414-40.625L39.9414-11.9629C39.9414-10.1074 41.1133-9.17969 42.627-9.17969ZM46.2891-49.4629C49.0723-49.4629 51.3184-51.7578 51.3184-54.3945C51.3184-57.2266 49.0723-59.4727 46.2891-59.4727C43.457-59.4727 41.2598-57.2266 41.2598-54.3945C41.2598-51.7578 43.457-49.4629 46.2891-49.4629Z"/>
  </g>
  <g id="Light-S" transform="matrix(1 0 0 1 1107.6 696)">
   <path d="M45.5078 3.41797C66.6992 3.41797 84.2285-14.0625 84.2285-35.2539C84.2285-56.4453 66.6504-73.9258 45.5078-73.9258C24.3164-73.9258 6.83594-56.4453 6.83594-35.2539C6.83594-14.0625 24.3652 3.41797 45.5078 3.41797ZM45.5078-2.29492C27.2461-2.29492 12.5977-16.9922 12.5977-35.2539C12.5977-53.5156 27.1973-68.2129 45.5078-68.2129C63.7695-68.2129 78.4668-53.5156 78.5156-35.2539C78.5156-16.9922 63.8184-2.29492 45.5078-2.29492ZM42.1387-9.375C43.6035-9.375 44.5312-10.3027 44.5312-12.0117L44.5312-27.8809C44.5312-28.6621 44.873-29.1016 45.5078-29.1016C46.0938-29.1016 46.4355-28.6621 46.4355-27.8809L46.4355-12.0117C46.4355-10.3027 47.4609-9.375 48.9258-9.375C50.3418-9.375 51.3184-10.3027 51.3184-12.0117L51.3184-39.5996C51.3184-40.2344 51.6602-40.625 52.1484-40.625C52.6855-40.625 52.9785-40.2344 52.9785-39.5996L52.9785-28.2227C52.9785-26.709 53.9062-25.8301 55.2246-25.8301C56.4941-25.8301 57.373-26.709 57.373-28.2227L57.373-39.0625C57.373-45.7031 53.7109-47.6562 45.6055-47.6562L42.4316-47.6562C40.8691-47.6562 40.2344-47.9492 39.0625-48.7305L35.7422-51.0254L35.2051-58.6426C35.1074-60.2051 34.1797-60.9863 32.9102-60.8887C31.5918-60.791 30.7617-59.9121 30.8594-58.3496L31.3477-50.8301C31.4453-49.2676 32.1289-48.2422 33.2031-47.5098L38.623-43.5059C39.3555-42.9688 39.6484-42.334 39.6484-41.4551L39.6484-12.0117C39.6484-10.3027 40.7227-9.375 42.1387-9.375ZM45.6055-49.9023C48.291-49.9023 50.5371-52.1484 50.5371-54.7363C50.5371-57.5195 48.3398-59.7168 45.6055-59.7168C42.8223-59.7168 40.6738-57.5195 40.6738-54.7363C40.6738-52.1484 42.8223-49.9023 45.6055-49.9023Z"/>
  </g>
  <g id="Thin-S" transform="matrix(1 0 0 1 811.867 696)">
   <path d="M44.5801 2.49023C65.2832 2.49023 82.2754-14.5508 82.2754-35.2539C82.2754-55.957 65.2344-72.998 44.5312-72.998C23.8281-72.998 6.83594-55.957 6.83594-35.2539C6.83594-14.5508 23.877 2.49023 44.5801 2.49023ZM44.5801-0.927734C25.5859-0.927734 10.2539-16.3086 10.2539-35.2539C10.2539-54.1992 25.5859-69.5801 44.5312-69.5801C63.5254-69.5801 78.8574-54.1992 78.8574-35.2539C78.8574-16.3086 63.5254-0.927734 44.5801-0.927734ZM41.5527-9.66797C42.8711-9.66797 43.6523-10.5469 43.6523-12.0117L43.6523-28.5156C43.6523-29.1992 43.9941-29.6387 44.5801-29.6387C45.1172-29.6387 45.4102-29.248 45.4102-28.5156L45.4102-12.0117C45.4102-10.5469 46.3379-9.66797 47.6562-9.66797C48.9258-9.66797 49.8047-10.5469 49.8047-12.0117L49.8047-40.3809C49.8047-41.0156 50.1465-41.4551 50.6348-41.4551C51.1719-41.4551 51.4648-41.0645 51.4648-40.3809L51.4648-28.3691C51.4648-27.0508 52.2461-26.2695 53.418-26.2695C54.541-26.2695 55.3223-27.0508 55.3223-28.3691L55.3223-40.1367C55.3223-46.1426 52.1973-48.1934 44.6777-48.1934L41.6016-48.1934C40.2344-48.1934 39.6973-48.4863 38.6719-49.2188L35.4004-51.416L34.8633-58.9844C34.7656-60.3516 33.9844-61.084 32.8125-60.9863C31.6406-60.8887 30.9082-60.1074 31.0059-58.7402L31.4941-51.5625C31.5918-50.0977 32.1777-49.0723 33.252-48.3398L38.3301-44.6777C39.0137-44.1895 39.3066-43.5059 39.3066-42.5781L39.3066-12.0117C39.3066-10.5469 40.2344-9.66797 41.5527-9.66797ZM44.6777-50.4395C47.3633-50.4395 49.4629-52.6367 49.4629-55.2246C49.4629-57.9102 47.3633-60.0586 44.6777-60.0586C42.041-60.0586 39.8926-57.9102 39.8926-55.2246C39.8926-52.6367 42.041-50.4395 44.6777-50.4395Z"/>
  </g>
  <g id="Ultralight-S" transform="matrix(1 0 0 1 515.644 696)">
   <path d="M44.043 1.95312C64.502 1.95312 81.2988-14.7949 81.2988-35.2539C81.2988-55.7129 64.502-72.4609 44.043-72.4609C23.584-72.4609 6.83594-55.7129 6.83594-35.2539C6.83594-14.7949 23.584 1.95312 44.043 1.95312ZM44.043-0.244141C24.7559-0.244141 9.08203-15.9668 9.08203-35.2539C9.08203-54.541 24.7559-70.2637 44.043-70.2637C63.3789-70.2637 79.0527-54.541 79.0527-35.2539C79.0527-15.9668 63.3789-0.244141 44.043-0.244141ZM41.2109-9.81445C42.4805-9.81445 43.2129-10.6445 43.2129-12.0605L43.2129-28.8086C43.2129-29.4922 43.5547-29.9316 44.043-29.9316C44.5801-29.9316 44.873-29.541 44.873-28.8086L44.873-12.0605C44.873-10.6934 45.752-9.81445 47.0215-9.81445C48.1934-9.81445 49.0234-10.6445 49.0234-12.0605L49.0234-40.8203C49.0234-41.4551 49.3652-41.8945 49.8535-41.8945C50.3906-41.8945 50.6836-41.5039 50.6836-40.8203L50.6836-28.5156C50.6836-27.2461 51.3672-26.5137 52.4902-26.5137C53.5645-26.5137 54.248-27.2461 54.248-28.5156L54.248-40.6738C54.248-46.3867 51.416-48.5352 44.1895-48.5352L41.2109-48.5352C39.8926-48.5352 39.4043-48.8281 38.4766-49.4629L35.2539-51.6113L34.668-59.1309C34.5703-60.4492 33.8867-61.1328 32.7637-61.084C31.6895-60.9863 31.0059-60.2051 31.1035-58.9355L31.5918-51.9531C31.6895-50.5371 32.1777-49.5117 33.252-48.7793L38.1836-45.2637C38.8184-44.8242 39.1113-44.0918 39.1113-43.1152L39.1113-12.0605C39.1113-10.6934 39.9414-9.81445 41.2109-9.81445ZM44.1895-50.7812C46.8262-50.7812 48.9258-52.8809 48.9258-55.4688C48.9258-58.1055 46.875-60.2051 44.1895-60.2051C41.6016-60.2051 39.502-58.1055 39.502-55.4688C39.502-52.9297 41.6016-50.7812 44.1895-50.7812Z"/>
  </g>
 </g>
</svg>
