<?xml version="1.0" encoding="UTF-8"?>
<!--Generator: Apple Native CoreSVG 149-->
<!DOCTYPE svg
PUBLIC "-//W3C//DTD SVG 1.1//EN"
       "http://www.w3.org/Graphics/SVG/1.1/DTD/svg11.dtd">
<svg version="1.1" xmlns="http://www.w3.org/2000/svg" xmlns:xlink="http://www.w3.org/1999/xlink" width="3300" height="2200">
 <!--glyph: "uni10020F.medium", point size: 100.000000, font version: "Version 16.0d18e1", template writer version: "8"-->
 <g id="Notes">
  <rect height="2200" id="artboard" style="fill:white;opacity:1" width="3300" x="0" y="0"/>
  <line id="" style="fill:none;stroke:black;opacity:1;stroke-width:0.5;" x1="263" x2="3036" y1="292" y2="292"/>
  <text style="stroke:none;fill:black;font-family:-apple-system,&quot;SF Pro Display&quot;,&quot;SF Pro Text&quot;,Helvetica,sans-serif;font-weight:bold;" transform="matrix(1 0 0 1 263 322)">Weight/Scale Variations</text>
  <text style="stroke:none;fill:black;font-family:-apple-system,&quot;SF Pro Display&quot;,&quot;SF Pro Text&quot;,Helvetica,sans-serif;text-anchor:middle;" transform="matrix(1 0 0 1 559.711 322)">Ultralight</text>
  <text style="stroke:none;fill:black;font-family:-apple-system,&quot;SF Pro Display&quot;,&quot;SF Pro Text&quot;,Helvetica,sans-serif;text-anchor:middle;" transform="matrix(1 0 0 1 856.422 322)">Thin</text>
  <text style="stroke:none;fill:black;font-family:-apple-system,&quot;SF Pro Display&quot;,&quot;SF Pro Text&quot;,Helvetica,sans-serif;text-anchor:middle;" transform="matrix(1 0 0 1 1153.13 322)">Light</text>
  <text style="stroke:none;fill:black;font-family:-apple-system,&quot;SF Pro Display&quot;,&quot;SF Pro Text&quot;,Helvetica,sans-serif;text-anchor:middle;" transform="matrix(1 0 0 1 1449.84 322)">Regular</text>
  <text style="stroke:none;fill:black;font-family:-apple-system,&quot;SF Pro Display&quot;,&quot;SF Pro Text&quot;,Helvetica,sans-serif;text-anchor:middle;" transform="matrix(1 0 0 1 1746.56 322)">Medium</text>
  <text style="stroke:none;fill:black;font-family:-apple-system,&quot;SF Pro Display&quot;,&quot;SF Pro Text&quot;,Helvetica,sans-serif;text-anchor:middle;" transform="matrix(1 0 0 1 2043.27 322)">Semibold</text>
  <text style="stroke:none;fill:black;font-family:-apple-system,&quot;SF Pro Display&quot;,&quot;SF Pro Text&quot;,Helvetica,sans-serif;text-anchor:middle;" transform="matrix(1 0 0 1 2339.98 322)">Bold</text>
  <text style="stroke:none;fill:black;font-family:-apple-system,&quot;SF Pro Display&quot;,&quot;SF Pro Text&quot;,Helvetica,sans-serif;text-anchor:middle;" transform="matrix(1 0 0 1 2636.69 322)">Heavy</text>
  <text style="stroke:none;fill:black;font-family:-apple-system,&quot;SF Pro Display&quot;,&quot;SF Pro Text&quot;,Helvetica,sans-serif;text-anchor:middle;" transform="matrix(1 0 0 1 2933.4 322)">Black</text>
  <line id="" style="fill:none;stroke:black;opacity:1;stroke-width:0.5;" x1="263" x2="3036" y1="1903" y2="1903"/>
  <g id="" transform="matrix(1 0 0 1 263 1933)">
   <path d="M9.24805 0.830078C13.5547 0.830078 17.1387-2.74414 17.1387-7.05078C17.1387-11.3574 13.5449-14.9316 9.23828-14.9316C4.94141-14.9316 1.36719-11.3574 1.36719-7.05078C1.36719-2.74414 4.95117 0.830078 9.24805 0.830078ZM9.24805-0.654297C5.70312-0.654297 2.87109-3.49609 2.87109-7.05078C2.87109-10.6055 5.69336-13.4473 9.23828-13.4473C12.793-13.4473 15.6348-10.6055 15.6445-7.05078C15.6543-3.49609 12.8027-0.654297 9.24805-0.654297ZM6.39648-6.31836L8.50586-6.31836L8.50586-4.19922C8.50586-3.75977 8.79883-3.45703 9.22852-3.45703C9.67773-3.45703 9.9707-3.75977 9.9707-4.19922L9.9707-6.31836L12.0996-6.31836C12.5391-6.31836 12.8418-6.61133 12.8418-7.04102C12.8418-7.48047 12.5391-7.7832 12.0996-7.7832L9.9707-7.7832L9.9707-9.89258C9.9707-10.3418 9.67773-10.6445 9.22852-10.6445C8.79883-10.6445 8.50586-10.3418 8.50586-9.89258L8.50586-7.7832L6.39648-7.7832C5.94727-7.7832 5.64453-7.48047 5.64453-7.04102C5.64453-6.61133 5.94727-6.31836 6.39648-6.31836Z"/>
  </g>
  <g id="" transform="matrix(1 0 0 1 281.506 1933)">
   <path d="M11.709 2.91016C17.1582 2.91016 21.6699-1.61133 21.6699-7.05078C21.6699-12.5 17.1484-17.0117 11.6992-17.0117C6.25977-17.0117 1.74805-12.5 1.74805-7.05078C1.74805-1.61133 6.26953 2.91016 11.709 2.91016ZM11.709 1.25C7.09961 1.25 3.41797-2.44141 3.41797-7.05078C3.41797-11.6602 7.08984-15.3516 11.6992-15.3516C16.3086-15.3516 20-11.6602 20.0098-7.05078C20.0195-2.44141 16.3184 1.25 11.709 1.25ZM7.98828-6.23047L10.8789-6.23047L10.8789-3.32031C10.8789-2.83203 11.2109-2.5 11.6895-2.5C12.1777-2.5 12.5195-2.83203 12.5195-3.32031L12.5195-6.23047L15.4297-6.23047C15.918-6.23047 16.25-6.5625 16.25-7.04102C16.25-7.5293 15.918-7.87109 15.4297-7.87109L12.5195-7.87109L12.5195-10.7617C12.5195-11.2695 12.1777-11.6016 11.6895-11.6016C11.2109-11.6016 10.8789-11.2598 10.8789-10.7617L10.8789-7.87109L7.98828-7.87109C7.48047-7.87109 7.14844-7.5293 7.14844-7.04102C7.14844-6.5625 7.49023-6.23047 7.98828-6.23047Z"/>
  </g>
  <g id="" transform="matrix(1 0 0 1 304.924 1933)">
   <path d="M14.9707 5.66406C21.9336 5.66406 27.6953-0.0976562 27.6953-7.05078C27.6953-14.0137 21.9238-19.7754 14.9609-19.7754C8.00781-19.7754 2.25586-14.0137 2.25586-7.05078C2.25586-0.0976562 8.01758 5.66406 14.9707 5.66406ZM14.9707 3.84766C8.93555 3.84766 4.08203-1.01562 4.08203-7.05078C4.08203-13.0957 8.92578-17.9492 14.9609-17.9492C21.0059-17.9492 25.8594-13.0957 25.8691-7.05078C25.8789-1.01562 21.0156 3.84766 14.9707 3.84766ZM10.0586-6.14258L14.0625-6.14258L14.0625-2.12891C14.0625-1.5918 14.4336-1.2207 14.9512-1.2207C15.4883-1.2207 15.8594-1.5918 15.8594-2.12891L15.8594-6.14258L19.8828-6.14258C20.4102-6.14258 20.791-6.51367 20.791-7.03125C20.791-7.56836 20.4199-7.94922 19.8828-7.94922L15.8594-7.94922L15.8594-11.9531C15.8594-12.5098 15.4883-12.8809 14.9512-12.8809C14.4336-12.8809 14.0625-12.5 14.0625-11.9531L14.0625-7.94922L10.0586-7.94922C9.50195-7.94922 9.13086-7.56836 9.13086-7.03125C9.13086-6.51367 9.51172-6.14258 10.0586-6.14258Z"/>
  </g>
  <text style="stroke:none;fill:black;font-family:-apple-system,&quot;SF Pro Display&quot;,&quot;SF Pro Text&quot;,Helvetica,sans-serif;font-weight:bold;" transform="matrix(1 0 0 1 263 1953)">Design Variations</text>
  <text style="stroke:none;fill:black;font-family:-apple-system,&quot;SF Pro Display&quot;,&quot;SF Pro Text&quot;,Helvetica,sans-serif;" transform="matrix(1 0 0 1 263 1971)">Symbols are supported in up to nine weights and three scales.</text>
  <text style="stroke:none;fill:black;font-family:-apple-system,&quot;SF Pro Display&quot;,&quot;SF Pro Text&quot;,Helvetica,sans-serif;" transform="matrix(1 0 0 1 263 1989)">For optimal layout with text and other symbols, vertically align</text>
  <text style="stroke:none;fill:black;font-family:-apple-system,&quot;SF Pro Display&quot;,&quot;SF Pro Text&quot;,Helvetica,sans-serif;" transform="matrix(1 0 0 1 263 2007)">symbols with the adjacent text.</text>
  <line id="" style="fill:none;stroke:#00AEEF;stroke-width:0.5;opacity:1.0;" x1="776" x2="776" y1="1919" y2="1933"/>
  <g id="" transform="matrix(1 0 0 1 776 1933)">
   <path d="M3.31055 0.126953C3.82812 0.126953 4.08203-0.0683594 4.26758-0.605469L5.52734-4.0625L11.2891-4.0625L12.5488-0.605469C12.7344-0.0683594 12.9883 0.126953 13.4961 0.126953C14.0137 0.126953 14.3457-0.185547 14.3457-0.673828C14.3457-0.839844 14.3164-0.986328 14.2383-1.20117L9.6582-13.3887C9.43359-13.9941 9.0332-14.2871 8.4082-14.2871C7.80273-14.2871 7.39258-13.9941 7.17773-13.3984L2.59766-1.19141C2.51953-0.976562 2.49023-0.830078 2.49023-0.664062C2.49023-0.175781 2.80273 0.126953 3.31055 0.126953ZM6.00586-5.53711L8.37891-12.1094L8.42773-12.1094L10.8008-5.53711Z"/>
  </g>
  <line id="" style="fill:none;stroke:#00AEEF;stroke-width:0.5;opacity:1.0;" x1="792.836" x2="792.836" y1="1919" y2="1933"/>
  <text style="stroke:none;fill:black;font-family:-apple-system,&quot;SF Pro Display&quot;,&quot;SF Pro Text&quot;,Helvetica,sans-serif;font-weight:bold;" transform="matrix(1 0 0 1 776 1953)">Margins</text>
  <text style="stroke:none;fill:black;font-family:-apple-system,&quot;SF Pro Display&quot;,&quot;SF Pro Text&quot;,Helvetica,sans-serif;" transform="matrix(1 0 0 1 776 1971)">Leading and trailing margins on the left and right side of each symbol</text>
  <text style="stroke:none;fill:black;font-family:-apple-system,&quot;SF Pro Display&quot;,&quot;SF Pro Text&quot;,Helvetica,sans-serif;" transform="matrix(1 0 0 1 776 1989)">can be adjusted by modifying the x-location of the margin guidelines.</text>
  <text style="stroke:none;fill:black;font-family:-apple-system,&quot;SF Pro Display&quot;,&quot;SF Pro Text&quot;,Helvetica,sans-serif;" transform="matrix(1 0 0 1 776 2007)">Modifications are automatically applied proportionally to all</text>
  <text style="stroke:none;fill:black;font-family:-apple-system,&quot;SF Pro Display&quot;,&quot;SF Pro Text&quot;,Helvetica,sans-serif;" transform="matrix(1 0 0 1 776 2025)">scales and weights.</text>
  <g id="" transform="matrix(1 0 0 1 1289 1933)">
   <path d="M2.8418 1.86523L4.54102 3.57422C5.40039 4.44336 6.38672 4.38477 7.31445 3.35938L17.4902-7.85156C17.7539-7.76367 18.0273-7.7832 18.3398-7.8418L19.4043-8.03711L20.0684-7.36328L20.0293-6.80664C19.9902-6.30859 20.1172-5.92773 20.6055-5.44922L21.3672-4.70703C21.8457-4.22852 22.4609-4.19922 22.9297-4.66797L25.8398-7.58789C26.3086-8.05664 26.2891-8.65234 25.8105-9.13086L25.0391-9.89258C24.5605-10.3711 24.1895-10.5273 23.7109-10.4883L23.1348-10.4395L22.4902-11.0742L22.7344-12.1973C22.8613-12.7637 22.7051-13.2031 22.1191-13.7891L19.9219-15.9766C16.582-19.2969 12.1484-19.2188 9.25781-16.3281C8.83789-15.918 8.80859-15.3418 9.04297-14.9512C9.27734-14.5898 9.73633-14.3555 10.3809-14.5215C11.8457-14.8633 13.3691-14.9219 14.7949-13.9844L14.209-12.5293C14.0137-12.0508 13.9844-11.6504 14.1113-11.2891L3.04688-0.898438C2.06055 0.0195312 1.98242 0.996094 2.8418 1.86523ZM10.752-15.957C13.1836-17.7344 16.4746-17.4316 18.7012-15.2051L21.1328-12.793C21.3672-12.5586 21.4062-12.373 21.3379-12.0312L21.0156-10.5469L22.5195-9.0625L23.5059-9.12109C23.7598-9.13086 23.8379-9.11133 24.0332-8.91602L24.6094-8.33984L22.168-5.89844L21.5918-6.47461C21.3965-6.66992 21.3672-6.74805 21.377-7.01172L21.4453-7.98828L19.9512-9.47266L18.4277-9.21875C18.1055-9.15039 17.959-9.17969 17.7148-9.41406L15.7129-11.416C15.459-11.6504 15.4297-11.8164 15.5859-12.1875L16.4648-14.2773C14.9023-15.7324 12.8711-16.3574 10.8398-15.7617C10.6836-15.7227 10.625-15.8496 10.752-15.957ZM5.27344 2.30469L4.10156 1.14258C3.63281 0.683594 3.74023 0.341797 4.14062-0.0195312L14.9512-10.1953L16.416-8.71094L6.42578 2.27539C6.07422 2.67578 5.74219 2.77344 5.27344 2.30469Z"/>
  </g>
  <text style="stroke:none;fill:black;font-family:-apple-system,&quot;SF Pro Display&quot;,&quot;SF Pro Text&quot;,Helvetica,sans-serif;font-weight:bold;" transform="matrix(1 0 0 1 1289 1953)">Exporting</text>
  <text style="stroke:none;fill:black;font-family:-apple-system,&quot;SF Pro Display&quot;,&quot;SF Pro Text&quot;,Helvetica,sans-serif;" transform="matrix(1 0 0 1 1289 1971)">Symbols should be outlined when exporting to ensure the</text>
  <text style="stroke:none;fill:black;font-family:-apple-system,&quot;SF Pro Display&quot;,&quot;SF Pro Text&quot;,Helvetica,sans-serif;" transform="matrix(1 0 0 1 1289 1989)">design is preserved when submitting to Xcode.</text>
  <text id="template-version" style="stroke:none;fill:black;font-family:-apple-system,&quot;SF Pro Display&quot;,&quot;SF Pro Text&quot;,Helvetica,sans-serif;text-anchor:end;" transform="matrix(1 0 0 1 3036 1933)">Template v.2.0</text>
  <text style="stroke:none;fill:black;font-family:-apple-system,&quot;SF Pro Display&quot;,&quot;SF Pro Text&quot;,Helvetica,sans-serif;text-anchor:end;" transform="matrix(1 0 0 1 3036 1951)">Requires Xcode 12 or greater</text>
  <text style="stroke:none;fill:black;font-family:-apple-system,&quot;SF Pro Display&quot;,&quot;SF Pro Text&quot;,Helvetica,sans-serif;text-anchor:end;" transform="matrix(1 0 0 1 3036 1969)">Generated from rectangle.and.pencil.and.ellipsis</text>
  <text style="stroke:none;fill:black;font-family:-apple-system,&quot;SF Pro Display&quot;,&quot;SF Pro Text&quot;,Helvetica,sans-serif;text-anchor:end;" transform="matrix(1 0 0 1 3036 1987)">Typeset at 100 points</text>
  <text style="stroke:none;fill:black;font-family:-apple-system,&quot;SF Pro Display&quot;,&quot;SF Pro Text&quot;,Helvetica,sans-serif;" transform="matrix(1 0 0 1 263 726)">Small</text>
  <text style="stroke:none;fill:black;font-family:-apple-system,&quot;SF Pro Display&quot;,&quot;SF Pro Text&quot;,Helvetica,sans-serif;" transform="matrix(1 0 0 1 263 1156)">Medium</text>
  <text style="stroke:none;fill:black;font-family:-apple-system,&quot;SF Pro Display&quot;,&quot;SF Pro Text&quot;,Helvetica,sans-serif;" transform="matrix(1 0 0 1 263 1586)">Large</text>
 </g>
 <g id="Guides">
  <g id="H-reference" style="fill:#27AAE1;stroke:none;" transform="matrix(1 0 0 1 339 696)">
   <path d="M0.976562 0L3.66211 0L12.9883-24.4629L45.752-24.4629L55.127 0L57.7637 0L30.6152-70.459L28.125-70.459ZM29.3457-67.1387L29.4434-67.1387L44.873-26.709L13.8672-26.709Z"/>
  </g>
  <line id="Baseline-S" style="fill:none;stroke:#27AAE1;opacity:1;stroke-width:0.5;" x1="263" x2="3036" y1="696" y2="696"/>
  <line id="Capline-S" style="fill:none;stroke:#27AAE1;opacity:1;stroke-width:0.5;" x1="263" x2="3036" y1="625.541" y2="625.541"/>
  <g id="H-reference" style="fill:#27AAE1;stroke:none;" transform="matrix(1 0 0 1 339 1126)">
   <path d="M0.976562 0L3.66211 0L12.9883-24.4629L45.752-24.4629L55.127 0L57.7637 0L30.6152-70.459L28.125-70.459ZM29.3457-67.1387L29.4434-67.1387L44.873-26.709L13.8672-26.709Z"/>
  </g>
  <line id="Baseline-M" style="fill:none;stroke:#27AAE1;opacity:1;stroke-width:0.5;" x1="263" x2="3036" y1="1126" y2="1126"/>
  <line id="Capline-M" style="fill:none;stroke:#27AAE1;opacity:1;stroke-width:0.5;" x1="263" x2="3036" y1="1055.54" y2="1055.54"/>
  <g id="H-reference" style="fill:#27AAE1;stroke:none;" transform="matrix(1 0 0 1 339 1556)">
   <path d="M0.976562 0L3.66211 0L12.9883-24.4629L45.752-24.4629L55.127 0L57.7637 0L30.6152-70.459L28.125-70.459ZM29.3457-67.1387L29.4434-67.1387L44.873-26.709L13.8672-26.709Z"/>
  </g>
  <line id="Baseline-L" style="fill:none;stroke:#27AAE1;opacity:1;stroke-width:0.5;" x1="263" x2="3036" y1="1556" y2="1556"/>
  <line id="Capline-L" style="fill:none;stroke:#27AAE1;opacity:1;stroke-width:0.5;" x1="263" x2="3036" y1="1485.54" y2="1485.54"/>
  <line id="left-margin" style="fill:none;stroke:#00AEEF;stroke-width:0.5;opacity:1.0;" x1="1364.3" x2="1364.3" y1="1030.79" y2="1150.12"/>
  <line id="right-margin" style="fill:none;stroke:#00AEEF;stroke-width:0.5;opacity:1.0;" x1="1535.39" x2="1535.39" y1="1030.79" y2="1150.12"/>
 </g>
 <g id="Symbols">
  <g id="Black-L" transform="matrix(1 0 0 1 2812.38 1556)">
   <path d="M217.773-81.1523L223.34-87.0605C226.514-90.4297 227.002-95.4102 223.828-98.7305L221.533-101.074C218.799-103.955 213.721-103.125 210.449-99.9512L204.639-94.3359ZM148.682-21.1914L163.574-26.9531L213.379-76.7578L200.195-89.8926L150.439-40.0879L144.629-25.3418C143.604-22.6562 146.387-20.3613 148.682-21.1914ZM35.4004 26.5137L189.062 26.5137C201.367 26.5137 208.398 19.5312 208.398 7.42188L208.398-54.1016L187.549-33.3008L187.549 1.5625C187.549 5.27344 185.303 7.66602 181.348 7.66602L43.0664 7.66602C39.1113 7.66602 36.8652 5.27344 36.8652 1.5625L36.8652-49.8535C36.8652-53.8574 39.1113-55.9082 43.0664-55.9082L148.096-55.9082L166.943-74.8047L35.4004-74.8047C23.0957-74.8047 16.0645-67.8223 16.0645-55.6641L16.0645 7.42188C16.0645 19.5312 23.0957 26.5137 35.4004 26.5137ZM59.8633-13.4277C65.7715-13.4277 70.5078-18.2617 70.5078-24.1211C70.5078-30.0293 65.7715-34.8145 59.8633-34.8145C53.9062-34.8145 49.1699-30.0293 49.1699-24.1211C49.1699-18.2617 53.9062-13.4277 59.8633-13.4277ZM90.0879-13.4277C95.9473-13.4277 100.781-18.2617 100.781-24.1211C100.781-30.0293 95.9473-34.8145 90.0879-34.8145C84.1797-34.8145 79.3945-30.0293 79.3945-24.1211C79.3945-18.2617 84.1797-13.4277 90.0879-13.4277ZM120.264-13.4277C126.221-13.4277 131.006-18.2617 131.006-24.1211C131.006-30.0293 126.221-34.8145 120.264-34.8145C114.404-34.8145 109.619-30.0293 109.619-24.1211C109.619-18.2617 114.404-13.4277 120.264-13.4277Z"/>
  </g>
  <g id="Heavy-L" transform="matrix(1 0 0 1 2518.67 1556)">
   <path d="M212.256-81.4941L217.578-87.0605C220.508-90.1855 220.898-94.6777 217.969-97.7051L215.918-99.8047C213.379-102.441 208.789-101.758 205.811-98.8281L200.293-93.5059ZM142.578-20.3613L156.885-26.123L207.861-77.0996L195.85-89.0137L144.922-38.0859L139.062-23.9746C138.135-21.6797 140.576-19.6289 142.578-20.3613ZM34.9121 25.4395L181.348 25.4395C193.359 25.4395 200.195 18.6523 200.195 6.78711L200.195-52.2949L182.275-34.3262L182.275 2.39258C182.275 6.54297 179.785 9.13086 175.488 9.13086L40.7715 9.13086C36.4258 9.13086 34.0332 6.54297 34.0332 2.39258L34.0332-49.1211C34.0332-53.5156 36.4258-55.8594 40.7715-55.8594L145.068-55.8594L161.377-72.168L34.9121-72.168C22.9004-72.168 16.0645-65.4297 16.0645-53.5156L16.0645 6.78711C16.0645 18.6523 22.9004 25.4395 34.9121 25.4395ZM57.2266-13.1836C62.8418-13.1836 67.3828-17.7734 67.3828-23.3887C67.3828-28.9551 62.8418-33.5449 57.2266-33.5449C51.5625-33.5449 47.0215-28.9551 47.0215-23.3887C47.0215-17.7734 51.5625-13.1836 57.2266-13.1836ZM86.5723-13.1836C92.1875-13.1836 96.7285-17.7734 96.7285-23.3887C96.7285-28.9551 92.1875-33.5449 86.5723-33.5449C80.957-33.5449 76.3672-28.9551 76.3672-23.3887C76.3672-17.7734 80.957-13.1836 86.5723-13.1836ZM115.869-13.1836C121.533-13.1836 126.074-17.7734 126.074-23.3887C126.074-28.9551 121.533-33.5449 115.869-33.5449C110.254-33.5449 105.762-28.9551 105.762-23.3887C105.762-17.7734 110.254-13.1836 115.869-13.1836Z"/>
  </g>
  <g id="Bold-L" transform="matrix(1 0 0 1 2225.3 1556)">
   <path d="M206.055-81.8848L211.084-87.1094C213.818-89.9414 214.062-93.8477 211.377-96.582L209.668-98.3398C207.324-100.732 203.271-100.244 200.635-97.6074L195.41-92.5781ZM135.742-19.4824L149.365-25.1953L201.611-77.4414L190.967-88.0371L138.77-35.8398L132.812-22.4609C132.08-20.6055 134.082-18.7988 135.742-19.4824ZM34.4238 24.2188L172.754 24.2188C184.473 24.2188 191.064 17.7246 191.064 6.10352L191.064-50.2441L176.367-35.498L176.367 3.32031C176.367 8.00781 173.682 10.7422 168.896 10.7422L38.2324 10.7422C33.4473 10.7422 30.8105 8.00781 30.8105 3.32031L30.8105-48.3398C30.8105-53.125 33.4473-55.7617 38.2324-55.7617L141.699-55.7617L155.176-69.2383L34.4238-69.2383C22.7051-69.2383 16.0645-62.7441 16.0645-51.0742L16.0645 6.10352C16.0645 17.7246 22.7051 24.2188 34.4238 24.2188ZM54.248-12.8906C59.5703-12.8906 63.8184-17.1875 63.8184-22.5098C63.8184-27.7832 59.5703-32.1289 54.248-32.1289C48.9258-32.1289 44.6289-27.7832 44.6289-22.5098C44.6289-17.1875 48.9258-12.8906 54.248-12.8906ZM82.6172-12.8906C87.8906-12.8906 92.2363-17.1875 92.2363-22.5098C92.2363-27.7832 87.8906-32.1289 82.6172-32.1289C77.2949-32.1289 72.998-27.7832 72.998-22.5098C72.998-17.1875 77.2949-12.8906 82.6172-12.8906ZM110.986-12.8906C116.309-12.8906 120.605-17.1875 120.605-22.5098C120.605-27.7832 116.309-32.1289 110.986-32.1289C105.664-32.1289 101.367-27.7832 101.367-22.5098C101.367-17.1875 105.664-12.8906 110.986-12.8906Z"/>
  </g>
  <g id="Semibold-L" transform="matrix(1 0 0 1 1930.91 1556)">
   <path d="M201.807-82.1289L206.641-87.1582C209.18-89.7461 209.375-93.2617 206.885-95.8008L205.322-97.3633C203.125-99.6094 199.512-99.1699 197.021-96.7773L192.09-91.8945ZM131.055-18.8477L144.189-24.5605L197.363-77.6855L187.598-87.3535L134.473-34.2773L128.516-21.4355C127.881-19.873 129.59-18.2129 131.055-18.8477ZM34.0332 23.3887L166.797 23.3887C178.32 23.3887 184.766 17.041 184.766 5.61523L184.766-48.8281L172.266-36.3281L172.266 4.00391C172.266 8.98438 169.434 11.8652 164.355 11.8652L36.4746 11.8652C31.3965 11.8652 28.5645 8.98438 28.5645 4.00391L28.5645-47.8027C28.5645-52.8809 31.3965-55.6641 36.4746-55.6641L139.355-55.6641L150.879-67.1875L34.0332-67.1875C22.5586-67.1875 16.0645-60.8887 16.0645-49.4141L16.0645 5.61523C16.0645 17.041 22.5586 23.3887 34.0332 23.3887ZM52.2461-12.6953C57.2754-12.6953 61.4258-16.8457 61.4258-21.9238C61.4258-27.002 57.2754-31.1035 52.2461-31.1035C47.1191-31.1035 42.9688-27.002 42.9688-21.9238C42.9688-16.8457 47.1191-12.6953 52.2461-12.6953ZM79.8828-12.6953C84.9609-12.6953 89.1113-16.8457 89.1113-21.9238C89.1113-27.002 84.9609-31.1035 79.8828-31.1035C74.8047-31.1035 70.7031-27.002 70.7031-21.9238C70.7031-16.8457 74.8047-12.6953 79.8828-12.6953ZM107.568-12.6953C112.646-12.6953 116.797-16.8457 116.797-21.9238C116.797-27.002 112.646-31.1035 107.568-31.1035C102.49-31.1035 98.3887-27.002 98.3887-21.9238C98.3887-16.8457 102.49-12.6953 107.568-12.6953Z"/>
  </g>
  <g id="Medium-L" transform="matrix(1 0 0 1 1635.94 1556)">
   <path d="M198.535-82.3242L203.271-87.1582C205.713-89.5996 205.811-92.8223 203.467-95.166L202.051-96.6309C199.951-98.7305 196.631-98.3887 194.336-96.1426L189.502-91.4062ZM127.49-18.3594L140.283-24.0723L194.092-77.8809L185.059-86.8652L131.25-33.1055L125.293-20.6055C124.707-19.2871 126.172-17.7734 127.49-18.3594ZM33.7891 22.7539L162.305 22.7539C173.633 22.7539 180.029 16.5527 180.029 5.22461L180.029-47.7539L169.189-36.9141L169.189 4.49219C169.189 9.7168 166.211 12.6953 160.938 12.6953L35.1074 12.6953C29.834 12.6953 26.9043 9.7168 26.9043 4.49219L26.9043-47.4121C26.9043-52.6855 29.834-55.6152 35.1074-55.6152L137.598-55.6152L147.656-65.6738L33.7891-65.6738C22.4609-65.6738 16.0645-59.4727 16.0645-48.1445L16.0645 5.22461C16.0645 16.5527 22.4609 22.7539 33.7891 22.7539ZM50.6836-12.5488C55.5664-12.5488 59.5703-16.5527 59.5703-21.4844C59.5703-26.3672 55.5664-30.3711 50.6836-30.3711C45.752-30.3711 41.748-26.3672 41.748-21.4844C41.748-16.5527 45.752-12.5488 50.6836-12.5488ZM77.832-12.5488C82.7637-12.5488 86.7188-16.5527 86.7188-21.4844C86.7188-26.3672 82.7637-30.3711 77.832-30.3711C72.9004-30.3711 68.8965-26.3672 68.8965-21.4844C68.8965-16.5527 72.9004-12.5488 77.832-12.5488ZM105.029-12.5488C109.912-12.5488 113.916-16.5527 113.916-21.4844C113.916-26.3672 109.912-30.3711 105.029-30.3711C100.098-30.3711 96.0938-26.3672 96.0938-21.4844C96.0938-16.5527 100.098-12.5488 105.029-12.5488Z"/>
  </g>
  <g id="Regular-L" transform="matrix(1 0 0 1 1341.52 1556)">
   <path d="M194.336-82.5684L198.877-87.1582C201.123-89.4531 201.172-92.2363 198.975-94.3848L197.754-95.6543C195.85-97.5586 192.871-97.3633 190.771-95.2637L186.23-90.7715ZM122.852-17.7246L135.156-23.4375L189.893-78.125L181.738-86.1816L127.051-31.5918L121.045-19.5801C120.557-18.5547 121.729-17.2363 122.852-17.7246ZM33.4473 21.9238L156.445 21.9238C167.578 21.9238 173.779 15.8691 173.779 4.73633L173.779-46.3379L165.137-37.6953L165.137 5.12695C165.137 10.6934 162.012 13.8184 156.445 13.8184L33.3984 13.8184C27.832 13.8184 24.707 10.6934 24.707 5.12695L24.707-46.875C24.707-52.4414 27.832-55.5664 33.3984-55.5664L135.303-55.5664L143.408-63.6719L33.4473-63.6719C22.3145-63.6719 16.0645-57.6172 16.0645-46.4844L16.0645 4.73633C16.0645 15.8691 22.3145 21.9238 33.4473 21.9238ZM48.6816-12.3535C53.3691-12.3535 57.1777-16.1621 57.1777-20.8984C57.1777-25.5859 53.3691-29.3945 48.6816-29.3945C43.9453-29.3945 40.0879-25.5859 40.0879-20.8984C40.0879-16.1621 43.9453-12.3535 48.6816-12.3535ZM75.1465-12.3535C79.834-12.3535 83.6426-16.1621 83.6426-20.8984C83.6426-25.5859 79.834-29.3945 75.1465-29.3945C70.459-29.3945 66.6016-25.5859 66.6016-20.8984C66.6016-16.1621 70.459-12.3535 75.1465-12.3535ZM101.66-12.3535C106.348-12.3535 110.205-16.1621 110.205-20.8984C110.205-25.5859 106.348-29.3945 101.66-29.3945C96.9238-29.3945 93.1152-25.5859 93.1152-20.8984C93.1152-16.1621 96.9238-12.3535 101.66-12.3535Z"/>
  </g>
  <g id="Light-L" transform="matrix(1 0 0 1 1047.59 1556)">
   <path d="M188.965-80.5176L193.262-84.8633C195.508-87.0605 195.557-89.502 193.457-91.6016L192.627-92.4805C190.771-94.2871 188.086-94.0918 186.084-92.0898L181.738-87.8418ZM119.482-17.041L131.152-22.8027L184.814-76.3672L177.588-83.5938L123.975-30.0293L117.969-18.6035C117.529-17.6758 118.604-16.5527 119.482-17.041ZM31.9824 20.9473L153.613 20.9473C163.721 20.9473 169.531 15.2344 169.531 5.12695L169.531-45.5078L162.939-38.8672L162.939 5.32227C162.939 11.3281 159.57 14.6484 153.564 14.6484L32.0312 14.6484C26.0254 14.6484 22.7051 11.3281 22.7051 5.32227L22.7051-45.3613C22.7051-51.3672 26.0254-54.6875 32.0312-54.6875L132.861-54.6875L139.062-60.9375L31.9824-60.9375C21.875-60.9375 16.0645-55.2246 16.0645-45.1172L16.0645 5.12695C16.0645 15.2344 21.875 20.9473 31.9824 20.9473ZM47.4609-12.1582C51.8066-12.1582 55.2734-15.6738 55.2734-20.0684C55.2734-24.3652 51.8066-27.8809 47.4609-27.8809C43.1152-27.8809 39.5508-24.3652 39.5508-20.0684C39.5508-15.6738 43.1152-12.1582 47.4609-12.1582ZM73.0957-12.1582C77.3926-12.1582 80.9082-15.6738 80.9082-20.0684C80.9082-24.3652 77.3926-27.8809 73.0957-27.8809C68.7012-27.8809 65.2344-24.3652 65.2344-20.0684C65.2344-15.6738 68.7012-12.1582 73.0957-12.1582ZM98.6816-12.1582C103.027-12.1582 106.543-15.6738 106.543-20.0684C106.543-24.3652 103.027-27.8809 98.6816-27.8809C94.3359-27.8809 90.8203-24.3652 90.8203-20.0684C90.8203-15.6738 94.3359-12.1582 98.6816-12.1582Z"/>
  </g>
  <g id="Thin-L" transform="matrix(1 0 0 1 754.591 1556)">
   <path d="M181.836-77.7832L185.84-81.7871C188.135-83.9355 188.184-85.8398 186.182-87.8906L185.791-88.2324C184.082-89.9902 181.787-89.7949 179.834-87.8418L175.83-83.9355ZM115.088-16.1133L125.781-21.9238L178.125-74.0723L172.168-80.0781L119.873-28.0273L113.965-17.334C113.525-16.5039 114.404-15.7227 115.088-16.1133ZM30.0781 19.6289L149.902 19.6289C158.643 19.6289 163.916 14.3555 163.916 5.61523L163.916-44.3359L160.01-40.4297L160.01 5.61523C160.01 12.207 156.348 15.8203 149.756 15.8203L30.2246 15.8203C23.6328 15.8203 19.9707 12.207 19.9707 5.61523L19.9707-43.3594C19.9707-49.9512 23.6328-53.5645 30.2246-53.5645L129.59-53.5645L133.301-57.2754L30.0781-57.2754C21.3379-57.2754 16.0645-52.0508 16.0645-43.3105L16.0645 5.61523C16.0645 14.3555 21.3379 19.6289 30.0781 19.6289ZM45.8984-11.9141C49.7559-11.9141 52.832-15.0391 52.832-18.8965C52.832-22.7539 49.7559-25.8301 45.8984-25.8301C41.9922-25.8301 38.8672-22.7539 38.8672-18.8965C38.8672-15.0391 41.9922-11.9141 45.8984-11.9141ZM70.3613-11.9141C74.1699-11.9141 77.2461-15.0391 77.2461-18.8965C77.2461-22.7539 74.1699-25.8301 70.3613-25.8301C66.4551-25.8301 63.3789-22.7539 63.3789-18.8965C63.3789-15.0391 66.4551-11.9141 70.3613-11.9141ZM94.7754-11.9141C98.6328-11.9141 101.758-15.0391 101.758-18.8965C101.758-22.7539 98.6328-25.8301 94.7754-25.8301C90.8691-25.8301 87.793-22.7539 87.793-18.8965C87.793-15.0391 90.8691-11.9141 94.7754-11.9141Z"/>
  </g>
  <g id="Ultralight-L" transform="matrix(1 0 0 1 459.76 1556)">
   <path d="M178.223-76.416L182.08-80.1758C184.326-82.3242 184.424-83.9844 182.422-85.9863L182.275-86.084C180.615-87.7441 178.564-87.5977 176.66-85.6934L172.803-81.9336ZM112.842-15.6738L123.096-21.4844L174.707-72.9004L169.385-78.3203L117.725-26.9531L111.914-16.6992C111.523-15.918 112.256-15.2832 112.842-15.6738ZM29.1016 18.9453L147.998 18.9453C156.006 18.9453 161.035 13.8672 161.035 5.85938L161.035-43.75L158.496-41.2109L158.496 5.71289C158.496 12.6465 154.736 16.4062 147.803 16.4062L29.2969 16.4062C22.4121 16.4062 18.6035 12.6465 18.6035 5.71289L18.6035-42.334C18.6035-49.2188 22.4121-53.0273 29.2969-53.0273L127.93-53.0273L130.371-55.4688L29.1016-55.4688C21.0938-55.4688 16.0645-50.3906 16.0645-42.3828L16.0645 5.85938C16.0645 13.8672 21.0938 18.9453 29.1016 18.9453ZM45.1172-11.8164C48.6816-11.8164 51.5625-14.6973 51.5625-18.3594C51.5625-21.9238 48.6816-24.8047 45.1172-24.8047C41.4551-24.8047 38.4766-21.9238 38.4766-18.3594C38.4766-14.6973 41.4551-11.8164 45.1172-11.8164ZM68.9453-11.8164C72.5098-11.8164 75.3906-14.6973 75.3906-18.3594C75.3906-21.9238 72.5098-24.8047 68.9453-24.8047C65.2832-24.8047 62.4023-21.9238 62.4023-18.3594C62.4023-14.6973 65.2832-11.8164 68.9453-11.8164ZM92.7734-11.8164C96.3379-11.8164 99.3164-14.6973 99.3164-18.3594C99.3164-21.9238 96.3379-24.8047 92.7734-24.8047C89.1113-24.8047 86.2305-21.9238 86.2305-18.3594C86.2305-14.6973 89.1113-11.8164 92.7734-11.8164Z"/>
  </g>
  <g id="Black-M" transform="matrix(1 0 0 1 2837.06 1126)">
   <path d="M173.389-69.2871L177.881-74.1211C180.664-77.0508 181.152-81.3965 178.369-84.2773L176.514-86.3281C174.17-88.7695 169.727-87.9395 166.846-85.1562L162.061-80.6152ZM121.68-25.0977L133.691-29.5898L170.166-66.0645L158.838-77.3926L122.363-40.918L117.969-28.9062C116.992-26.3672 119.58-24.3652 121.68-25.0977ZM27.2949 13.5742L155.42 13.5742C164.746 13.5742 170.215 8.00781 170.215-1.12305L170.215-51.8555L151.318-32.959L151.318-7.71484C151.318-5.22461 149.707-3.4668 146.924-3.4668L35.6934-3.4668C32.9102-3.4668 31.3965-5.22461 31.3965-7.71484L31.3965-46.6797C31.3965-49.5117 32.9102-50.9277 35.6934-50.9277L117.529-50.9277L134.521-67.9688L27.2949-67.9688C17.9199-67.9688 12.4512-62.4512 12.4512-53.2715L12.4512-1.12305C12.4512 8.00781 17.9199 13.5742 27.2949 13.5742ZM49.3164-18.5547C54.1016-18.5547 57.9102-22.4609 57.9102-27.1973C57.9102-31.9336 54.1016-35.8398 49.3164-35.8398C44.5312-35.8398 40.7227-31.9336 40.7227-27.1973C40.7227-22.4609 44.5312-18.5547 49.3164-18.5547ZM73.4375-18.5547C78.2227-18.5547 82.0801-22.4609 82.0801-27.1973C82.0801-31.9336 78.2227-35.8398 73.4375-35.8398C68.7012-35.8398 64.8438-31.9336 64.8438-27.1973C64.8438-22.4609 68.7012-18.5547 73.4375-18.5547ZM97.5586-18.5547C102.393-18.5547 106.201-22.4609 106.201-27.1973C106.201-31.9336 102.393-35.8398 97.5586-35.8398C92.8223-35.8398 89.0137-31.9336 89.0137-27.1973C89.0137-22.4609 92.8223-18.5547 97.5586-18.5547Z"/>
  </g>
  <g id="Heavy-M" transform="matrix(1 0 0 1 2542.89 1126)">
   <path d="M168.701-70.166L173.047-74.7559C175.537-77.4414 175.928-81.2988 173.438-83.9355L171.729-85.7422C169.58-87.9883 165.576-87.3047 162.988-84.8145L158.496-80.4688ZM115.869-24.3652L127.393-28.8574L165.381-66.8457L155.127-77.0996L117.139-39.1113L112.646-27.6367C111.865-25.5371 114.062-23.6816 115.869-24.3652ZM27.1484 12.6465L147.705 12.6465C157.031 12.6465 162.402 7.22656 162.402-1.9043L162.402-50.0977L146.094-33.7891L146.094-6.88477C146.094-4.00391 144.336-2.09961 141.26-2.09961L33.5449-2.09961C30.4688-2.09961 28.7598-4.00391 28.7598-6.88477L28.7598-46.2891C28.7598-49.4629 30.4688-51.0742 33.5449-51.0742L114.844-51.0742L129.59-65.8203L27.1484-65.8203C17.8223-65.8203 12.4512-60.4492 12.4512-51.2695L12.4512-1.9043C12.4512 7.22656 17.8223 12.6465 27.1484 12.6465ZM46.7773-18.3594C51.2695-18.3594 54.9316-22.0703 54.9316-26.6113C54.9316-31.1523 51.2695-34.8145 46.7773-34.8145C42.1875-34.8145 38.5254-31.1523 38.5254-26.6113C38.5254-22.0703 42.1875-18.3594 46.7773-18.3594ZM70.166-18.3594C74.6582-18.3594 78.3691-22.0703 78.3691-26.6113C78.3691-31.1523 74.6582-34.8145 70.166-34.8145C65.625-34.8145 61.9141-31.1523 61.9141-26.6113C61.9141-22.0703 65.625-18.3594 70.166-18.3594ZM93.5547-18.3594C98.0957-18.3594 101.758-22.0703 101.758-26.6113C101.758-31.1523 98.0957-34.8145 93.5547-34.8145C89.0137-34.8145 85.3516-31.1523 85.3516-26.6113C85.3516-22.0703 89.0137-18.3594 93.5547-18.3594Z"/>
  </g>
  <g id="Bold-M" transform="matrix(1 0 0 1 2249.04 1126)">
   <path d="M163.525-71.1914L167.578-75.4395C169.873-77.832 170.117-81.2012 167.871-83.4961L166.357-85.0586C164.404-87.0605 160.938-86.5723 158.691-84.375L154.443-80.2734ZM109.375-23.584L120.361-28.0273L160.107-67.7734L151.025-76.8066L111.279-37.0605L106.738-26.2695C106.055-24.5605 107.861-22.998 109.375-23.584ZM27.002 11.5723L139.111 11.5723C148.389 11.5723 153.662 6.39648 153.662-2.7832L153.662-48.0957L140.283-34.7168L140.283-5.9082C140.283-2.58789 138.33-0.585938 134.912-0.585938L31.2012-0.585938C27.7344-0.585938 25.8301-2.58789 25.8301-5.9082L25.8301-45.8984C25.8301-49.3652 27.7344-51.2207 31.2012-51.2207L111.865-51.2207L124.072-63.3789L27.002-63.3789C17.7246-63.3789 12.4512-58.2031 12.4512-48.9746L12.4512-2.7832C12.4512 6.39648 17.7246 11.5723 27.002 11.5723ZM43.8477-18.1152C48.1445-18.1152 51.6113-21.582 51.6113-25.9277C51.6113-30.2246 48.1445-33.6914 43.8477-33.6914C39.502-33.6914 36.0352-30.2246 36.0352-25.9277C36.0352-21.582 39.502-18.1152 43.8477-18.1152ZM66.4551-18.1152C70.752-18.1152 74.2188-21.582 74.2188-25.9277C74.2188-30.2246 70.752-33.6914 66.4551-33.6914C62.1582-33.6914 58.6426-30.2246 58.6426-25.9277C58.6426-21.582 62.1582-18.1152 66.4551-18.1152ZM89.0137-18.1152C93.3594-18.1152 96.8262-21.582 96.8262-25.9277C96.8262-30.2246 93.3594-33.6914 89.0137-33.6914C84.7168-33.6914 81.25-30.2246 81.25-25.9277C81.25-21.582 84.7168-18.1152 89.0137-18.1152Z"/>
  </g>
  <g id="Semibold-M" transform="matrix(1 0 0 1 1954.3 1126)">
   <path d="M159.912-71.875L163.867-75.9277C165.918-78.125 166.113-81.1035 164.062-83.2031L162.646-84.6191C160.84-86.4746 157.764-86.084 155.713-84.082L151.709-80.1758ZM104.883-22.998L115.527-27.4902L156.445-68.3594L148.145-76.5625L107.275-35.6934L102.686-25.293C102.1-23.9258 103.613-22.5098 104.883-22.998ZM26.9043 10.8887L133.203 10.8887C142.432 10.8887 147.656 5.81055 147.656-3.41797L147.656-46.7285L136.279-35.3516L136.279-5.22461C136.279-1.66016 134.18 0.439453 130.518 0.439453L29.541 0.439453C25.8789 0.439453 23.8281-1.66016 23.8281-5.22461L23.8281-45.6055C23.8281-49.3164 25.8789-51.3184 29.541-51.3184L109.814-51.3184L120.264-61.7188L26.9043-61.7188C17.627-61.7188 12.4512-56.6406 12.4512-47.4609L12.4512-3.41797C12.4512 5.81055 17.627 10.8887 26.9043 10.8887ZM41.8457-17.9199C45.9961-17.9199 49.3652-21.2891 49.3652-25.4395C49.3652-29.541 45.9961-32.959 41.8457-32.959C37.6953-32.959 34.3262-29.541 34.3262-25.4395C34.3262-21.2891 37.6953-17.9199 41.8457-17.9199ZM63.8672-17.9199C68.0176-17.9199 71.3867-21.2891 71.3867-25.4395C71.3867-29.541 68.0176-32.959 63.8672-32.959C59.7656-32.959 56.3965-29.541 56.3965-25.4395C56.3965-21.2891 59.7656-17.9199 63.8672-17.9199ZM85.8887-17.9199C90.0391-17.9199 93.4082-21.2891 93.4082-25.4395C93.4082-29.541 90.0391-32.959 85.8887-32.959C81.7383-32.959 78.418-29.541 78.418-25.4395C78.418-21.2891 81.7383-17.9199 85.8887-17.9199Z"/>
  </g>
  <g id="Medium-M" transform="matrix(1 0 0 1 1659.08 1126)">
   <path d="M157.227-72.4121L161.035-76.3184C162.939-78.3203 163.037-81.0547 161.133-82.959L159.863-84.2773C158.154-85.9863 155.322-85.7422 153.467-83.8867L149.609-80.0781ZM101.514-22.6074L111.816-27.0508L153.662-68.8477L145.996-76.416L104.199-34.6191L99.5605-24.6094C99.0723-23.4375 100.391-22.1191 101.514-22.6074ZM26.8066 10.3516L128.711 10.3516C137.939 10.3516 143.066 5.32227 143.066-3.85742L143.066-45.7031L133.203-35.8398L133.203-4.73633C133.203-0.927734 131.055 1.2207 127.197 1.2207L28.2715 1.2207C24.4629 1.2207 22.3145-0.927734 22.3145-4.73633L22.3145-45.4102C22.3145-49.2676 24.4629-51.3672 28.2715-51.3672L108.301-51.3672L117.383-60.4492L26.8066-60.4492C17.5781-60.4492 12.4512-55.4688 12.4512-46.2891L12.4512-3.85742C12.4512 5.32227 17.5781 10.3516 26.8066 10.3516ZM40.3809-17.7734C44.3848-17.7734 47.6074-21.0449 47.6074-25.0488C47.6074-29.1016 44.3848-32.3242 40.3809-32.3242C36.3281-32.3242 33.0566-29.1016 33.0566-25.0488C33.0566-21.0449 36.3281-17.7734 40.3809-17.7734ZM61.9629-17.7734C65.9668-17.7734 69.2383-21.0449 69.2383-25.0488C69.2383-29.1016 65.9668-32.3242 61.9629-32.3242C57.9102-32.3242 54.6875-29.1016 54.6875-25.0488C54.6875-21.0449 57.9102-17.7734 61.9629-17.7734ZM83.5449-17.7734C87.5488-17.7734 90.8203-21.0449 90.8203-25.0488C90.8203-29.1016 87.5488-32.3242 83.5449-32.3242C79.541-32.3242 76.2695-29.1016 76.2695-25.0488C76.2695-21.0449 79.541-17.7734 83.5449-17.7734Z"/>
  </g>
  <g id="Regular-M" transform="matrix(1 0 0 1 1364.3 1126)">
   <path d="M153.662-73.0957L157.324-76.8066C159.033-78.6133 159.082-81.0059 157.373-82.666L156.201-83.8379C154.639-85.4004 152.197-85.2539 150.537-83.5938L146.875-79.9805ZM97.0703-22.0703L107.031-26.4648L150.049-69.4336L143.164-76.2207L100.244-33.252L95.5566-23.6328C95.1172-22.8027 96.1426-21.6309 97.0703-22.0703ZM26.709 9.61914L122.852 9.61914C132.031 9.61914 137.109 4.78516 137.109-4.44336L137.109-44.3359L129.248-36.4746L129.248-4.05273C129.248 0 126.953 2.29492 122.9 2.29492L26.6602 2.29492C22.6074 2.29492 20.3125 0 20.3125-4.05273L20.3125-45.1172C20.3125-49.1699 22.6074-51.4648 26.6602-51.4648L106.25-51.4648L113.623-58.7891L26.709-58.7891C17.5293-58.7891 12.4512-53.9551 12.4512-44.7266L12.4512-4.44336C12.4512 4.78516 17.5293 9.61914 26.709 9.61914ZM38.3789-17.627C42.2363-17.627 45.3613-20.752 45.3613-24.6094C45.3613-28.4668 42.2363-31.5918 38.3789-31.5918C34.5215-31.5918 31.3965-28.4668 31.3965-24.6094C31.3965-20.752 34.5215-17.627 38.3789-17.627ZM59.4238-17.627C63.2812-17.627 66.4062-20.752 66.4062-24.6094C66.4062-28.4668 63.2812-31.5918 59.4238-31.5918C55.5664-31.5918 52.4414-28.4668 52.4414-24.6094C52.4414-20.752 55.5664-17.627 59.4238-17.627ZM80.4688-17.627C84.3262-17.627 87.4512-20.752 87.4512-24.6094C87.4512-28.4668 84.3262-31.5918 80.4688-31.5918C76.6113-31.5918 73.4863-28.4668 73.4863-24.6094C73.4863-20.752 76.6113-17.627 80.4688-17.627Z"/>
  </g>
  <g id="Light-M" transform="matrix(1 0 0 1 1070.1 1126)">
   <path d="M148.828-71.2402L152.295-74.707C154.053-76.4648 154.053-78.5156 152.393-80.1758L151.562-81.0059C150.098-82.4707 147.9-82.3242 146.338-80.7129L142.822-77.2949ZM94.0918-21.4355L103.418-25.8789L145.508-67.8711L139.502-73.877L97.4609-31.8848L92.8223-22.8027C92.4316-22.0215 93.3105-21.0449 94.0918-21.4355ZM25.4395 8.74023L120.312 8.74023C128.613 8.74023 133.301 4.15039 133.301-4.10156L133.301-43.5547L127.246-37.5488L127.246-3.90625C127.246 0.585938 124.756 3.02734 120.312 3.02734L25.4395 3.02734C20.9473 3.02734 18.5059 0.585938 18.5059-3.90625L18.5059-43.75C18.5059-48.2422 20.9473-50.6836 25.4395-50.6836L104.053-50.6836L109.717-56.3477L25.4395-56.3477C17.1387-56.3477 12.4512-51.8066 12.4512-43.5059L12.4512-4.10156C12.4512 4.15039 17.1387 8.74023 25.4395 8.74023ZM37.3047-17.4316C40.8203-17.4316 43.7012-20.3125 43.7012-23.8281C43.7012-27.3438 40.8203-30.2246 37.3047-30.2246C33.7891-30.2246 30.9082-27.3438 30.9082-23.8281C30.9082-20.3125 33.7891-17.4316 37.3047-17.4316ZM57.5684-17.4316C61.084-17.4316 63.916-20.3125 63.916-23.8281C63.916-27.3438 61.084-30.2246 57.5684-30.2246C54.0039-30.2246 51.1719-27.3438 51.1719-23.8281C51.1719-20.3125 54.0039-17.4316 57.5684-17.4316ZM77.832-17.4316C81.3477-17.4316 84.2285-20.3125 84.2285-23.8281C84.2285-27.3438 81.3477-30.2246 77.832-30.2246C74.2676-30.2246 71.4355-27.3438 71.4355-23.8281C71.4355-20.3125 74.2676-17.4316 77.832-17.4316Z"/>
  </g>
  <g id="Thin-M" transform="matrix(1 0 0 1 776.686 1126)">
   <path d="M142.48-68.7988L145.654-71.9727C147.412-73.6816 147.461-75.2441 145.85-76.8555L145.459-77.2461C144.092-78.6133 142.236-78.4668 140.723-76.9531L137.549-73.8281ZM90.1367-20.6055L98.6328-25.0977L139.502-65.8203L134.619-70.752L93.75-30.0781L89.209-21.6309C88.8672-20.9961 89.5508-20.3125 90.1367-20.6055ZM23.7305 7.56836L116.992 7.56836C124.023 7.56836 128.271 3.36914 128.271-3.66211L128.271-42.5293L124.609-38.916L124.609-3.66211C124.609 1.31836 121.875 4.10156 116.895 4.10156L23.8281 4.10156C18.7988 4.10156 16.0645 1.31836 16.0645-3.66211L16.0645-41.9434C16.0645-46.9727 18.7988-49.707 23.8281-49.707L101.123-49.707L104.541-53.125L23.7305-53.125C16.6504-53.125 12.4512-48.9258 12.4512-41.8945L12.4512-3.66211C12.4512 3.36914 16.6504 7.56836 23.7305 7.56836ZM35.9375-17.2363C39.0137-17.2363 41.4551-19.7266 41.4551-22.8516C41.4551-25.9277 39.0137-28.3691 35.9375-28.3691C32.8125-28.3691 30.2734-25.9277 30.2734-22.8516C30.2734-19.7266 32.8125-17.2363 35.9375-17.2363ZM55.127-17.2363C58.2031-17.2363 60.6445-19.7266 60.6445-22.8516C60.6445-25.9277 58.2031-28.3691 55.127-28.3691C52.002-28.3691 49.5117-25.9277 49.5117-22.8516C49.5117-19.7266 52.002-17.2363 55.127-17.2363ZM74.3164-17.2363C77.3926-17.2363 79.9316-19.7266 79.9316-22.8516C79.9316-25.9277 77.3926-28.3691 74.3164-28.3691C71.1914-28.3691 68.7012-25.9277 68.7012-22.8516C68.7012-19.7266 71.1914-17.2363 74.3164-17.2363Z"/>
  </g>
  <g id="Ultralight-M" transform="matrix(1 0 0 1 481.684 1126)">
   <path d="M139.209-67.5781L142.236-70.5566C143.994-72.2168 144.043-73.584 142.48-75.1465L142.334-75.293C141.016-76.6113 139.355-76.4648 137.842-75L134.814-72.0215ZM88.1348-20.2148L96.1914-24.707L136.426-64.7949L132.08-69.1406L91.8945-29.1504L87.3535-21.0449C87.0117-20.459 87.6465-19.873 88.1348-20.2148ZM22.8516 6.93359L115.283 6.93359C121.68 6.93359 125.684 2.97852 125.684-3.4668L125.684-41.9922L123.291-39.5996L123.291-3.51562C123.291 1.70898 120.41 4.58984 115.137 4.58984L22.998 4.58984C17.7246 4.58984 14.8438 1.70898 14.8438-3.51562L14.8438-41.0645C14.8438-46.2891 17.7246-49.1699 22.998-49.1699L99.6582-49.1699L101.904-51.4648L22.8516-51.4648C16.4062-51.4648 12.4512-47.4609 12.4512-41.0645L12.4512-3.4668C12.4512 2.97852 16.4062 6.93359 22.8516 6.93359ZM35.2051-17.1387C38.0371-17.1387 40.332-19.3848 40.332-22.3145C40.332-25.1465 38.0371-27.4414 35.2051-27.4414C32.2754-27.4414 29.9316-25.1465 29.9316-22.3145C29.9316-19.3848 32.2754-17.1387 35.2051-17.1387ZM53.8574-17.1387C56.6895-17.1387 58.9844-19.3848 58.9844-22.3145C58.9844-25.1465 56.6895-27.4414 53.8574-27.4414C50.9277-27.4414 48.6328-25.1465 48.6328-22.3145C48.6328-19.3848 50.9277-17.1387 53.8574-17.1387ZM72.5098-17.1387C75.3418-17.1387 77.7344-19.3848 77.7344-22.3145C77.7344-25.1465 75.3418-27.4414 72.5098-27.4414C69.5801-27.4414 67.2852-25.1465 67.2852-22.3145C67.2852-19.3848 69.5801-17.1387 72.5098-17.1387Z"/>
  </g>
  <g id="Black-S" transform="matrix(1 0 0 1 2858.08 696)">
   <path d="M135.547-62.0117L139.062-65.7715C141.211-68.0664 141.602-71.4355 139.453-73.6816L137.988-75.2441C136.182-77.1484 132.715-76.5137 130.469-74.3652L126.758-70.8008ZM94.9219-27.2461L104.297-30.7617L133.008-59.4727L124.219-68.2617L95.5078-39.5508L92.041-30.1758C91.3086-28.2227 93.3105-26.6602 94.9219-27.2461ZM21.3867 2.92969L121.191 2.92969C128.516 2.92969 132.812-1.41602 132.812-8.59375L132.812-48.1445L118.164-33.4961L118.164-13.623C118.164-11.6211 116.895-10.2539 114.697-10.2539L27.832-10.2539C25.6348-10.2539 24.4141-11.6211 24.4141-13.623L24.4141-44.1895C24.4141-46.4355 25.6348-47.5586 27.832-47.5586L91.8945-47.5586L105.078-60.7422L21.3867-60.7422C14.0625-60.7422 9.76562-56.4453 9.76562-49.2188L9.76562-8.59375C9.76562-1.41602 14.0625 2.92969 21.3867 2.92969ZM38.4766-22.168C42.1875-22.168 45.166-25.1953 45.166-28.9062C45.166-32.6172 42.1875-35.6445 38.4766-35.6445C34.7168-35.6445 31.7383-32.6172 31.7383-28.9062C31.7383-25.1953 34.7168-22.168 38.4766-22.168ZM57.3242-22.168C61.0352-22.168 64.0625-25.1953 64.0625-28.9062C64.0625-32.6172 61.0352-35.6445 57.3242-35.6445C53.6133-35.6445 50.5859-32.6172 50.5859-28.9062C50.5859-25.1953 53.6133-22.168 57.3242-22.168ZM76.1719-22.168C79.9316-22.168 82.9102-25.1953 82.9102-28.9062C82.9102-32.6172 79.9316-35.6445 76.1719-35.6445C72.4609-35.6445 69.4824-32.6172 69.4824-28.9062C69.4824-25.1953 72.4609-22.168 76.1719-22.168Z"/>
  </g>
  <g id="Heavy-S" transform="matrix(1 0 0 1 2563.03 696)">
   <path d="M132.52-62.8906L135.889-66.5039C137.891-68.5547 138.184-71.6309 136.23-73.6816L134.814-75.0977C133.154-76.8555 130.029-76.3672 127.979-74.4141L124.463-70.9961ZM90.8203-26.7578L99.9023-30.2734L129.883-60.2539L121.826-68.3105L91.8457-38.3301L88.2812-29.3457C87.6465-27.6855 89.4043-26.2207 90.8203-26.7578ZM21.4355 2.34375L115.576 2.34375C122.998 2.34375 127.246-1.95312 127.246-9.22852L127.246-46.875L114.404-34.0332L114.404-12.9883C114.404-10.7422 113.037-9.32617 110.645-9.32617L26.3184-9.32617C23.9746-9.32617 22.6074-10.7422 22.6074-12.9883L22.6074-44.043C22.6074-46.4844 23.9746-47.7539 26.3184-47.7539L90.0879-47.7539L101.709-59.375L21.4355-59.375C14.0137-59.375 9.76562-55.127 9.76562-47.8027L9.76562-9.22852C9.76562-1.95312 14.0137 2.34375 21.4355 2.34375ZM36.6211-22.0215C40.1855-22.0215 43.0664-24.9512 43.0664-28.5156C43.0664-32.1289 40.1855-35.0098 36.6211-35.0098C33.0078-35.0098 30.127-32.1289 30.127-28.5156C30.127-24.9512 33.0078-22.0215 36.6211-22.0215ZM54.9805-22.0215C58.5938-22.0215 61.5234-24.9512 61.5234-28.5156C61.5234-32.1289 58.5938-35.0098 54.9805-35.0098C51.416-35.0098 48.4863-32.1289 48.4863-28.5156C48.4863-24.9512 51.416-22.0215 54.9805-22.0215ZM73.3887-22.0215C77.002-22.0215 79.8828-24.9512 79.8828-28.5156C79.8828-32.1289 77.002-35.0098 73.3887-35.0098C69.7754-35.0098 66.8945-32.1289 66.8945-28.5156C66.8945-24.9512 69.7754-22.0215 73.3887-22.0215Z"/>
  </g>
  <g id="Bold-S" transform="matrix(1 0 0 1 2268.2 696)">
   <path d="M129.15-63.916L132.373-67.2852C134.131-69.1406 134.326-71.875 132.568-73.6816L131.299-74.9512C129.785-76.5625 127.002-76.1719 125.244-74.4141L121.875-71.1914ZM86.2305-26.2207L94.9707-29.7363L126.367-61.1328L119.092-68.3594L87.6953-36.9629L84.1309-28.3691C83.5938-27.0508 85.0098-25.7812 86.2305-26.2207ZM21.4844 1.66016L109.326 1.66016C116.846 1.66016 121.045-2.49023 121.045-9.91211L121.045-45.459L110.205-34.6191L110.205-12.2559C110.205-9.76562 108.74-8.25195 106.104-8.25195L24.6582-8.25195C22.0703-8.25195 20.6055-9.76562 20.6055-12.2559L20.6055-43.8965C20.6055-46.5332 22.0703-47.9492 24.6582-47.9492L88.1348-47.9492L97.998-57.8125L21.4844-57.8125C13.9648-57.8125 9.76562-53.7109 9.76562-46.2402L9.76562-9.91211C9.76562-2.49023 13.9648 1.66016 21.4844 1.66016ZM34.5215-21.8262C37.9883-21.8262 40.7715-24.6582 40.7715-28.0762C40.7715-31.543 37.9883-34.3262 34.5215-34.3262C31.0547-34.3262 28.2715-31.543 28.2715-28.0762C28.2715-24.6582 31.0547-21.8262 34.5215-21.8262ZM52.3926-21.8262C55.8594-21.8262 58.6426-24.6582 58.6426-28.0762C58.6426-31.543 55.8594-34.3262 52.3926-34.3262C48.9746-34.3262 46.1426-31.543 46.1426-28.0762C46.1426-24.6582 48.9746-21.8262 52.3926-21.8262ZM70.2637-21.8262C73.7305-21.8262 76.5137-24.6582 76.5137-28.0762C76.5137-31.543 73.7305-34.3262 70.2637-34.3262C66.7969-34.3262 64.0137-31.543 64.0137-28.0762C64.0137-24.6582 66.7969-21.8262 70.2637-21.8262Z"/>
  </g>
  <g id="Semibold-S" transform="matrix(1 0 0 1 1972.78 696)">
   <path d="M126.807-64.5996L129.932-67.8711C131.543-69.5312 131.689-72.0215 130.078-73.6328L128.857-74.8535C127.441-76.3184 124.951-76.0254 123.34-74.4629L120.117-71.3379ZM83.0566-25.8301L91.5527-29.3457L123.975-61.7188L117.236-68.4082L84.8633-35.9863L81.25-27.7344C80.7617-26.6113 81.9824-25.4395 83.0566-25.8301ZM21.5332 1.17188L105.029 1.17188C112.549 1.17188 116.748-2.92969 116.748-10.4004L116.748-44.4824L107.275-35.0098L107.275-11.7676C107.275-9.08203 105.762-7.51953 102.979-7.51953L23.4863-7.51953C20.752-7.51953 19.2383-9.08203 19.2383-11.7676L19.2383-43.7988C19.2383-46.582 20.752-48.0957 23.4863-48.0957L86.7188-48.0957L95.4102-56.7383L21.5332-56.7383C13.9648-56.7383 9.76562-52.6855 9.76562-45.166L9.76562-10.4004C9.76562-2.92969 13.9648 1.17188 21.5332 1.17188ZM33.1055-21.7285C36.4258-21.7285 39.1602-24.4629 39.1602-27.7832C39.1602-31.1523 36.4258-33.8867 33.1055-33.8867C29.7363-33.8867 27.002-31.1523 27.002-27.7832C27.002-24.4629 29.7363-21.7285 33.1055-21.7285ZM50.5859-21.7285C53.9551-21.7285 56.6895-24.4629 56.6895-27.7832C56.6895-31.1523 53.9551-33.8867 50.5859-33.8867C47.2656-33.8867 44.5312-31.1523 44.5312-27.7832C44.5312-24.4629 47.2656-21.7285 50.5859-21.7285ZM68.1152-21.7285C71.4355-21.7285 74.1699-24.4629 74.1699-27.7832C74.1699-31.1523 71.4355-33.8867 68.1152-33.8867C64.7461-33.8867 62.0605-31.1523 62.0605-27.7832C62.0605-24.4629 64.7461-21.7285 68.1152-21.7285Z"/>
  </g>
  <g id="Medium-S" transform="matrix(1 0 0 1 1677.05 696)">
   <path d="M125.049-65.0879L128.076-68.2617C129.59-69.8242 129.688-72.1191 128.174-73.6328L127.051-74.8047C125.684-76.1719 123.34-75.9277 121.875-74.4629L118.75-71.4355ZM80.6641-25.5859L88.9648-29.0527L122.119-62.207L115.82-68.457L82.7148-35.3027L79.0527-27.2461C78.6133-26.2695 79.6875-25.1953 80.6641-25.5859ZM21.5332 0.830078L101.709 0.830078C109.326 0.830078 113.525-3.22266 113.525-10.791L113.525-43.7012L105.078-35.3027L105.078-11.377C105.078-8.59375 103.467-6.93359 100.635-6.93359L22.6074-6.93359C19.7754-6.93359 18.1641-8.59375 18.1641-11.377L18.1641-43.75C18.1641-46.582 19.7754-48.1934 22.6074-48.1934L85.6934-48.1934L93.457-55.957L21.5332-55.957C13.916-55.957 9.76562-51.9043 9.76562-44.3359L9.76562-10.791C9.76562-3.22266 13.916 0.830078 21.5332 0.830078ZM32.0312-21.6309C35.3027-21.6309 37.9395-24.3164 37.9395-27.5879C37.9395-30.8594 35.3027-33.4961 32.0312-33.4961C28.7598-33.4961 26.0742-30.8594 26.0742-27.5879C26.0742-24.3164 28.7598-21.6309 32.0312-21.6309ZM49.2188-21.6309C52.4902-21.6309 55.1758-24.3164 55.1758-27.5879C55.1758-30.8594 52.4902-33.4961 49.2188-33.4961C45.9473-33.4961 43.3105-30.8594 43.3105-27.5879C43.3105-24.3164 45.9473-21.6309 49.2188-21.6309ZM66.4551-21.6309C69.7266-21.6309 72.4121-24.3164 72.4121-27.5879C72.4121-30.8594 69.7266-33.4961 66.4551-33.4961C63.1836-33.4961 60.5469-30.8594 60.5469-27.5879C60.5469-24.3164 63.1836-21.6309 66.4551-21.6309Z"/>
  </g>
  <g id="Regular-S" transform="matrix(1 0 0 1 1381.61 696)">
   <path d="M122.754-65.7715L125.684-68.7988C127.051-70.2148 127.051-72.2656 125.684-73.6328L124.609-74.707C123.389-75.9766 121.289-75.8301 120.02-74.5117L116.992-71.582ZM77.5391-25.1953L85.6445-28.6621L119.775-62.793L113.965-68.5059L79.8828-34.375L76.1719-26.5625C75.8301-25.8789 76.709-24.8535 77.5391-25.1953ZM21.582 0.341797L97.4609 0.341797C105.127 0.341797 109.277-3.61328 109.277-11.2793L109.277-42.7734L102.246-35.6934L102.246-10.8887C102.246-7.91016 100.537-6.25 97.5586-6.25L21.4844-6.25C18.5059-6.25 16.7969-7.91016 16.7969-10.8887L16.7969-43.6523C16.7969-46.6309 18.5059-48.3398 21.4844-48.3398L84.3262-48.3398L90.918-54.8828L21.582-54.8828C13.916-54.8828 9.76562-50.9277 9.76562-43.2617L9.76562-11.2793C9.76562-3.61328 13.916 0.341797 21.582 0.341797ZM30.6152-21.4844C33.7891-21.4844 36.377-24.1211 36.377-27.2949C36.377-30.4688 33.7891-33.0566 30.6152-33.0566C27.4414-33.0566 24.8047-30.4688 24.8047-27.2949C24.8047-24.1211 27.4414-21.4844 30.6152-21.4844ZM47.4609-21.4844C50.6348-21.4844 53.2227-24.1211 53.2227-27.2949C53.2227-30.4688 50.6348-33.0566 47.4609-33.0566C44.2871-33.0566 41.6992-30.4688 41.6992-27.2949C41.6992-24.1211 44.2871-21.4844 47.4609-21.4844ZM64.3555-21.4844C67.5293-21.4844 70.1172-24.1211 70.1172-27.2949C70.1172-30.4688 67.5293-33.0566 64.3555-33.0566C61.1816-33.0566 58.5449-30.4688 58.5449-27.2949C58.5449-24.1211 61.1816-21.4844 64.3555-21.4844Z"/>
  </g>
  <g id="Light-S" transform="matrix(1 0 0 1 1087.12 696)">
   <path d="M118.457-64.1602L121.24-66.9922C122.607-68.3594 122.607-70.0684 121.338-71.3867L120.557-72.168C119.336-73.3887 117.529-73.2422 116.26-71.9727L113.477-69.2383ZM74.8535-24.6582L82.4219-28.125L115.723-61.4258L110.693-66.4062L77.4414-33.1543L73.7793-25.8301C73.4375-25.1465 74.2188-24.3652 74.8535-24.6582ZM20.4102-0.439453L95.2148-0.439453C102.1-0.439453 105.908-4.15039 105.908-10.9863L105.908-42.041L100.488-36.6211L100.488-10.7422C100.488-7.42188 98.584-5.51758 95.2637-5.51758L20.4102-5.51758C17.041-5.51758 15.1855-7.42188 15.1855-10.7422L15.1855-42.4316C15.1855-45.8008 17.041-47.6562 20.4102-47.6562L82.373-47.6562L87.4512-52.7344L20.4102-52.7344C13.5742-52.7344 9.76562-49.0234 9.76562-42.1875L9.76562-10.9863C9.76562-4.15039 13.5742-0.439453 20.4102-0.439453ZM29.6387-21.3379C32.5195-21.3379 34.8633-23.6816 34.8633-26.6113C34.8633-29.4922 32.5195-31.8359 29.6387-31.8359C26.7578-31.8359 24.4141-29.4922 24.4141-26.6113C24.4141-23.6816 26.7578-21.3379 29.6387-21.3379ZM45.8008-21.3379C48.6816-21.3379 51.0254-23.6816 51.0254-26.6113C51.0254-29.4922 48.6816-31.8359 45.8008-31.8359C42.9199-31.8359 40.5762-29.4922 40.5762-26.6113C40.5762-23.6816 42.9199-21.3379 45.8008-21.3379ZM62.0117-21.3379C64.8438-21.3379 67.2363-23.6816 67.2363-26.6113C67.2363-29.4922 64.8438-31.8359 62.0117-31.8359C59.082-31.8359 56.7383-29.4922 56.7383-26.6113C56.7383-23.6816 59.082-21.3379 62.0117-21.3379Z"/>
  </g>
  <g id="Thin-S" transform="matrix(1 0 0 1 793.336 696)">
   <path d="M112.842-62.0117L115.381-64.5508C116.748-65.8691 116.797-67.1875 115.527-68.457L115.137-68.8477C114.062-69.9219 112.549-69.8242 111.328-68.6035L108.789-66.1133ZM71.3867-23.9258L78.2227-27.4414L110.449-59.6191L106.396-63.6719L74.1699-31.543L70.5566-24.8047C70.3125-24.2676 70.8984-23.6816 71.3867-23.9258ZM18.9453-1.46484L92.2852-1.46484C98.0469-1.46484 101.465-4.83398 101.465-10.5957L101.465-41.1621L98.1445-37.8418L98.1445-10.5469C98.1445-6.73828 96.0449-4.63867 92.2363-4.63867L18.9941-4.63867C15.1855-4.63867 13.0859-6.73828 13.0859-10.5469L13.0859-40.8691C13.0859-44.6777 15.1855-46.7773 18.9941-46.7773L79.7852-46.7773L82.9102-49.8535L18.9453-49.8535C13.1836-49.8535 9.76562-46.5332 9.76562-40.7715L9.76562-10.5957C9.76562-4.83398 13.1836-1.46484 18.9453-1.46484ZM28.418-21.1914C30.9082-21.1914 32.9102-23.1934 32.9102-25.7324C32.9102-28.2227 30.9082-30.2246 28.418-30.2246C25.8789-30.2246 23.8281-28.2227 23.8281-25.7324C23.8281-23.1934 25.8789-21.1914 28.418-21.1914ZM43.6523-21.1914C46.1426-21.1914 48.1445-23.1934 48.1445-25.7324C48.1445-28.2227 46.1426-30.2246 43.6523-30.2246C41.1133-30.2246 39.1113-28.2227 39.1113-25.7324C39.1113-23.1934 41.1133-21.1914 43.6523-21.1914ZM58.8867-21.1914C61.377-21.1914 63.4277-23.1934 63.4277-25.7324C63.4277-28.2227 61.377-30.2246 58.8867-30.2246C56.3477-30.2246 54.3457-28.2227 54.3457-25.7324C54.3457-23.1934 56.3477-21.1914 58.8867-21.1914Z"/>
  </g>
  <g id="Ultralight-S" transform="matrix(1 0 0 1 498.114 696)">
   <path d="M109.961-60.8887L112.354-63.2812C113.721-64.5996 113.77-65.7227 112.549-66.9434L112.354-67.1387C111.328-68.1641 109.961-68.0664 108.789-66.8945L106.348-64.502ZM69.5801-23.584L76.0254-27.0996L107.715-58.6426L104.15-62.2559L72.5098-30.7129L68.9453-24.2676C68.7012-23.7793 69.1895-23.3398 69.5801-23.584ZM18.1641-2.00195L90.7715-2.00195C95.9961-2.00195 99.1699-5.17578 99.1699-10.4004L99.1699-40.6738L96.9727-38.4766L96.9727-10.4492C96.9727-6.39648 94.7266-4.15039 90.6738-4.15039L18.2129-4.15039C14.209-4.15039 11.9629-6.39648 11.9629-10.4492L11.9629-40.0391C11.9629-44.0918 14.209-46.2891 18.2129-46.2891L78.4668-46.2891L80.5664-48.3887L18.1641-48.3887C12.9395-48.3887 9.76562-45.2148 9.76562-39.9902L9.76562-10.4004C9.76562-5.17578 12.9395-2.00195 18.1641-2.00195ZM27.7832-21.0449C30.0781-21.0449 31.9336-22.9004 31.9336-25.2441C31.9336-27.5391 30.0781-29.3945 27.7832-29.3945C25.4395-29.3945 23.5352-27.5391 23.5352-25.2441C23.5352-22.9004 25.4395-21.0449 27.7832-21.0449ZM42.5293-21.0449C44.8242-21.0449 46.6797-22.9004 46.6797-25.2441C46.6797-27.5391 44.8242-29.3945 42.5293-29.3945C40.1855-29.3945 38.3789-27.5391 38.3789-25.2441C38.3789-22.9004 40.1855-21.0449 42.5293-21.0449ZM57.2754-21.0449C59.5703-21.0449 61.4746-22.9004 61.4746-25.2441C61.4746-27.5391 59.5703-29.3945 57.2754-29.3945C54.9805-29.3945 53.125-27.5391 53.125-25.2441C53.125-22.9004 54.9805-21.0449 57.2754-21.0449Z"/>
  </g>
 </g>
</svg>
