<?xml version="1.0" encoding="UTF-8"?>
<!--Generator: Apple Native CoreSVG 149-->
<!DOCTYPE svg
PUBLIC "-//W3C//DTD SVG 1.1//EN"
       "http://www.w3.org/Graphics/SVG/1.1/DTD/svg11.dtd">
<svg version="1.1" xmlns="http://www.w3.org/2000/svg" xmlns:xlink="http://www.w3.org/1999/xlink" width="3300" height="2200">
 <!--glyph: "uni100C1E.medium", point size: 100.000000, font version: "Version 16.0d18e1", template writer version: "8"-->
 <g id="Notes">
  <rect height="2200" id="artboard" style="fill:white;opacity:1" width="3300" x="0" y="0"/>
  <line id="" style="fill:none;stroke:black;opacity:1;stroke-width:0.5;" x1="263" x2="3036" y1="292" y2="292"/>
  <text style="stroke:none;fill:black;font-family:-apple-system,&quot;SF Pro Display&quot;,&quot;SF Pro Text&quot;,Helvetica,sans-serif;font-weight:bold;" transform="matrix(1 0 0 1 263 322)">Weight/Scale Variations</text>
  <text style="stroke:none;fill:black;font-family:-apple-system,&quot;SF Pro Display&quot;,&quot;SF Pro Text&quot;,Helvetica,sans-serif;text-anchor:middle;" transform="matrix(1 0 0 1 559.711 322)">Ultralight</text>
  <text style="stroke:none;fill:black;font-family:-apple-system,&quot;SF Pro Display&quot;,&quot;SF Pro Text&quot;,Helvetica,sans-serif;text-anchor:middle;" transform="matrix(1 0 0 1 856.422 322)">Thin</text>
  <text style="stroke:none;fill:black;font-family:-apple-system,&quot;SF Pro Display&quot;,&quot;SF Pro Text&quot;,Helvetica,sans-serif;text-anchor:middle;" transform="matrix(1 0 0 1 1153.13 322)">Light</text>
  <text style="stroke:none;fill:black;font-family:-apple-system,&quot;SF Pro Display&quot;,&quot;SF Pro Text&quot;,Helvetica,sans-serif;text-anchor:middle;" transform="matrix(1 0 0 1 1449.84 322)">Regular</text>
  <text style="stroke:none;fill:black;font-family:-apple-system,&quot;SF Pro Display&quot;,&quot;SF Pro Text&quot;,Helvetica,sans-serif;text-anchor:middle;" transform="matrix(1 0 0 1 1746.56 322)">Medium</text>
  <text style="stroke:none;fill:black;font-family:-apple-system,&quot;SF Pro Display&quot;,&quot;SF Pro Text&quot;,Helvetica,sans-serif;text-anchor:middle;" transform="matrix(1 0 0 1 2043.27 322)">Semibold</text>
  <text style="stroke:none;fill:black;font-family:-apple-system,&quot;SF Pro Display&quot;,&quot;SF Pro Text&quot;,Helvetica,sans-serif;text-anchor:middle;" transform="matrix(1 0 0 1 2339.98 322)">Bold</text>
  <text style="stroke:none;fill:black;font-family:-apple-system,&quot;SF Pro Display&quot;,&quot;SF Pro Text&quot;,Helvetica,sans-serif;text-anchor:middle;" transform="matrix(1 0 0 1 2636.69 322)">Heavy</text>
  <text style="stroke:none;fill:black;font-family:-apple-system,&quot;SF Pro Display&quot;,&quot;SF Pro Text&quot;,Helvetica,sans-serif;text-anchor:middle;" transform="matrix(1 0 0 1 2933.4 322)">Black</text>
  <line id="" style="fill:none;stroke:black;opacity:1;stroke-width:0.5;" x1="263" x2="3036" y1="1903" y2="1903"/>
  <g id="" transform="matrix(1 0 0 1 263 1933)">
   <path d="M9.24805 0.830078C13.5547 0.830078 17.1387-2.74414 17.1387-7.05078C17.1387-11.3574 13.5449-14.9316 9.23828-14.9316C4.94141-14.9316 1.36719-11.3574 1.36719-7.05078C1.36719-2.74414 4.95117 0.830078 9.24805 0.830078ZM9.24805-0.654297C5.70312-0.654297 2.87109-3.49609 2.87109-7.05078C2.87109-10.6055 5.69336-13.4473 9.23828-13.4473C12.793-13.4473 15.6348-10.6055 15.6445-7.05078C15.6543-3.49609 12.8027-0.654297 9.24805-0.654297ZM6.39648-6.31836L8.50586-6.31836L8.50586-4.19922C8.50586-3.75977 8.79883-3.45703 9.22852-3.45703C9.67773-3.45703 9.9707-3.75977 9.9707-4.19922L9.9707-6.31836L12.0996-6.31836C12.5391-6.31836 12.8418-6.61133 12.8418-7.04102C12.8418-7.48047 12.5391-7.7832 12.0996-7.7832L9.9707-7.7832L9.9707-9.89258C9.9707-10.3418 9.67773-10.6445 9.22852-10.6445C8.79883-10.6445 8.50586-10.3418 8.50586-9.89258L8.50586-7.7832L6.39648-7.7832C5.94727-7.7832 5.64453-7.48047 5.64453-7.04102C5.64453-6.61133 5.94727-6.31836 6.39648-6.31836Z"/>
  </g>
  <g id="" transform="matrix(1 0 0 1 281.506 1933)">
   <path d="M11.709 2.91016C17.1582 2.91016 21.6699-1.61133 21.6699-7.05078C21.6699-12.5 17.1484-17.0117 11.6992-17.0117C6.25977-17.0117 1.74805-12.5 1.74805-7.05078C1.74805-1.61133 6.26953 2.91016 11.709 2.91016ZM11.709 1.25C7.09961 1.25 3.41797-2.44141 3.41797-7.05078C3.41797-11.6602 7.08984-15.3516 11.6992-15.3516C16.3086-15.3516 20-11.6602 20.0098-7.05078C20.0195-2.44141 16.3184 1.25 11.709 1.25ZM7.98828-6.23047L10.8789-6.23047L10.8789-3.32031C10.8789-2.83203 11.2109-2.5 11.6895-2.5C12.1777-2.5 12.5195-2.83203 12.5195-3.32031L12.5195-6.23047L15.4297-6.23047C15.918-6.23047 16.25-6.5625 16.25-7.04102C16.25-7.5293 15.918-7.87109 15.4297-7.87109L12.5195-7.87109L12.5195-10.7617C12.5195-11.2695 12.1777-11.6016 11.6895-11.6016C11.2109-11.6016 10.8789-11.2598 10.8789-10.7617L10.8789-7.87109L7.98828-7.87109C7.48047-7.87109 7.14844-7.5293 7.14844-7.04102C7.14844-6.5625 7.49023-6.23047 7.98828-6.23047Z"/>
  </g>
  <g id="" transform="matrix(1 0 0 1 304.924 1933)">
   <path d="M14.9707 5.66406C21.9336 5.66406 27.6953-0.0976562 27.6953-7.05078C27.6953-14.0137 21.9238-19.7754 14.9609-19.7754C8.00781-19.7754 2.25586-14.0137 2.25586-7.05078C2.25586-0.0976562 8.01758 5.66406 14.9707 5.66406ZM14.9707 3.84766C8.93555 3.84766 4.08203-1.01562 4.08203-7.05078C4.08203-13.0957 8.92578-17.9492 14.9609-17.9492C21.0059-17.9492 25.8594-13.0957 25.8691-7.05078C25.8789-1.01562 21.0156 3.84766 14.9707 3.84766ZM10.0586-6.14258L14.0625-6.14258L14.0625-2.12891C14.0625-1.5918 14.4336-1.2207 14.9512-1.2207C15.4883-1.2207 15.8594-1.5918 15.8594-2.12891L15.8594-6.14258L19.8828-6.14258C20.4102-6.14258 20.791-6.51367 20.791-7.03125C20.791-7.56836 20.4199-7.94922 19.8828-7.94922L15.8594-7.94922L15.8594-11.9531C15.8594-12.5098 15.4883-12.8809 14.9512-12.8809C14.4336-12.8809 14.0625-12.5 14.0625-11.9531L14.0625-7.94922L10.0586-7.94922C9.50195-7.94922 9.13086-7.56836 9.13086-7.03125C9.13086-6.51367 9.51172-6.14258 10.0586-6.14258Z"/>
  </g>
  <text style="stroke:none;fill:black;font-family:-apple-system,&quot;SF Pro Display&quot;,&quot;SF Pro Text&quot;,Helvetica,sans-serif;font-weight:bold;" transform="matrix(1 0 0 1 263 1953)">Design Variations</text>
  <text style="stroke:none;fill:black;font-family:-apple-system,&quot;SF Pro Display&quot;,&quot;SF Pro Text&quot;,Helvetica,sans-serif;" transform="matrix(1 0 0 1 263 1971)">Symbols are supported in up to nine weights and three scales.</text>
  <text style="stroke:none;fill:black;font-family:-apple-system,&quot;SF Pro Display&quot;,&quot;SF Pro Text&quot;,Helvetica,sans-serif;" transform="matrix(1 0 0 1 263 1989)">For optimal layout with text and other symbols, vertically align</text>
  <text style="stroke:none;fill:black;font-family:-apple-system,&quot;SF Pro Display&quot;,&quot;SF Pro Text&quot;,Helvetica,sans-serif;" transform="matrix(1 0 0 1 263 2007)">symbols with the adjacent text.</text>
  <line id="" style="fill:none;stroke:#00AEEF;stroke-width:0.5;opacity:1.0;" x1="776" x2="776" y1="1919" y2="1933"/>
  <g id="" transform="matrix(1 0 0 1 776 1933)">
   <path d="M3.31055 0.126953C3.82812 0.126953 4.08203-0.0683594 4.26758-0.605469L5.52734-4.0625L11.2891-4.0625L12.5488-0.605469C12.7344-0.0683594 12.9883 0.126953 13.4961 0.126953C14.0137 0.126953 14.3457-0.185547 14.3457-0.673828C14.3457-0.839844 14.3164-0.986328 14.2383-1.20117L9.6582-13.3887C9.43359-13.9941 9.0332-14.2871 8.4082-14.2871C7.80273-14.2871 7.39258-13.9941 7.17773-13.3984L2.59766-1.19141C2.51953-0.976562 2.49023-0.830078 2.49023-0.664062C2.49023-0.175781 2.80273 0.126953 3.31055 0.126953ZM6.00586-5.53711L8.37891-12.1094L8.42773-12.1094L10.8008-5.53711Z"/>
  </g>
  <line id="" style="fill:none;stroke:#00AEEF;stroke-width:0.5;opacity:1.0;" x1="792.836" x2="792.836" y1="1919" y2="1933"/>
  <text style="stroke:none;fill:black;font-family:-apple-system,&quot;SF Pro Display&quot;,&quot;SF Pro Text&quot;,Helvetica,sans-serif;font-weight:bold;" transform="matrix(1 0 0 1 776 1953)">Margins</text>
  <text style="stroke:none;fill:black;font-family:-apple-system,&quot;SF Pro Display&quot;,&quot;SF Pro Text&quot;,Helvetica,sans-serif;" transform="matrix(1 0 0 1 776 1971)">Leading and trailing margins on the left and right side of each symbol</text>
  <text style="stroke:none;fill:black;font-family:-apple-system,&quot;SF Pro Display&quot;,&quot;SF Pro Text&quot;,Helvetica,sans-serif;" transform="matrix(1 0 0 1 776 1989)">can be adjusted by modifying the x-location of the margin guidelines.</text>
  <text style="stroke:none;fill:black;font-family:-apple-system,&quot;SF Pro Display&quot;,&quot;SF Pro Text&quot;,Helvetica,sans-serif;" transform="matrix(1 0 0 1 776 2007)">Modifications are automatically applied proportionally to all</text>
  <text style="stroke:none;fill:black;font-family:-apple-system,&quot;SF Pro Display&quot;,&quot;SF Pro Text&quot;,Helvetica,sans-serif;" transform="matrix(1 0 0 1 776 2025)">scales and weights.</text>
  <g id="" transform="matrix(1 0 0 1 1289 1933)">
   <path d="M2.8418 1.86523L4.54102 3.57422C5.40039 4.44336 6.38672 4.38477 7.31445 3.35938L17.4902-7.85156C17.7539-7.76367 18.0273-7.7832 18.3398-7.8418L19.4043-8.03711L20.0684-7.36328L20.0293-6.80664C19.9902-6.30859 20.1172-5.92773 20.6055-5.44922L21.3672-4.70703C21.8457-4.22852 22.4609-4.19922 22.9297-4.66797L25.8398-7.58789C26.3086-8.05664 26.2891-8.65234 25.8105-9.13086L25.0391-9.89258C24.5605-10.3711 24.1895-10.5273 23.7109-10.4883L23.1348-10.4395L22.4902-11.0742L22.7344-12.1973C22.8613-12.7637 22.7051-13.2031 22.1191-13.7891L19.9219-15.9766C16.582-19.2969 12.1484-19.2188 9.25781-16.3281C8.83789-15.918 8.80859-15.3418 9.04297-14.9512C9.27734-14.5898 9.73633-14.3555 10.3809-14.5215C11.8457-14.8633 13.3691-14.9219 14.7949-13.9844L14.209-12.5293C14.0137-12.0508 13.9844-11.6504 14.1113-11.2891L3.04688-0.898438C2.06055 0.0195312 1.98242 0.996094 2.8418 1.86523ZM10.752-15.957C13.1836-17.7344 16.4746-17.4316 18.7012-15.2051L21.1328-12.793C21.3672-12.5586 21.4062-12.373 21.3379-12.0312L21.0156-10.5469L22.5195-9.0625L23.5059-9.12109C23.7598-9.13086 23.8379-9.11133 24.0332-8.91602L24.6094-8.33984L22.168-5.89844L21.5918-6.47461C21.3965-6.66992 21.3672-6.74805 21.377-7.01172L21.4453-7.98828L19.9512-9.47266L18.4277-9.21875C18.1055-9.15039 17.959-9.17969 17.7148-9.41406L15.7129-11.416C15.459-11.6504 15.4297-11.8164 15.5859-12.1875L16.4648-14.2773C14.9023-15.7324 12.8711-16.3574 10.8398-15.7617C10.6836-15.7227 10.625-15.8496 10.752-15.957ZM5.27344 2.30469L4.10156 1.14258C3.63281 0.683594 3.74023 0.341797 4.14062-0.0195312L14.9512-10.1953L16.416-8.71094L6.42578 2.27539C6.07422 2.67578 5.74219 2.77344 5.27344 2.30469Z"/>
  </g>
  <text style="stroke:none;fill:black;font-family:-apple-system,&quot;SF Pro Display&quot;,&quot;SF Pro Text&quot;,Helvetica,sans-serif;font-weight:bold;" transform="matrix(1 0 0 1 1289 1953)">Exporting</text>
  <text style="stroke:none;fill:black;font-family:-apple-system,&quot;SF Pro Display&quot;,&quot;SF Pro Text&quot;,Helvetica,sans-serif;" transform="matrix(1 0 0 1 1289 1971)">Symbols should be outlined when exporting to ensure the</text>
  <text style="stroke:none;fill:black;font-family:-apple-system,&quot;SF Pro Display&quot;,&quot;SF Pro Text&quot;,Helvetica,sans-serif;" transform="matrix(1 0 0 1 1289 1989)">design is preserved when submitting to Xcode.</text>
  <text id="template-version" style="stroke:none;fill:black;font-family:-apple-system,&quot;SF Pro Display&quot;,&quot;SF Pro Text&quot;,Helvetica,sans-serif;text-anchor:end;" transform="matrix(1 0 0 1 3036 1933)">Template v.2.0</text>
  <text style="stroke:none;fill:black;font-family:-apple-system,&quot;SF Pro Display&quot;,&quot;SF Pro Text&quot;,Helvetica,sans-serif;text-anchor:end;" transform="matrix(1 0 0 1 3036 1951)">Requires Xcode 12 or greater</text>
  <text style="stroke:none;fill:black;font-family:-apple-system,&quot;SF Pro Display&quot;,&quot;SF Pro Text&quot;,Helvetica,sans-serif;text-anchor:end;" transform="matrix(1 0 0 1 3036 1969)">Generated from arrowshape.turn.up.forward</text>
  <text style="stroke:none;fill:black;font-family:-apple-system,&quot;SF Pro Display&quot;,&quot;SF Pro Text&quot;,Helvetica,sans-serif;text-anchor:end;" transform="matrix(1 0 0 1 3036 1987)">Typeset at 100 points</text>
  <text style="stroke:none;fill:black;font-family:-apple-system,&quot;SF Pro Display&quot;,&quot;SF Pro Text&quot;,Helvetica,sans-serif;" transform="matrix(1 0 0 1 263 726)">Small</text>
  <text style="stroke:none;fill:black;font-family:-apple-system,&quot;SF Pro Display&quot;,&quot;SF Pro Text&quot;,Helvetica,sans-serif;" transform="matrix(1 0 0 1 263 1156)">Medium</text>
  <text style="stroke:none;fill:black;font-family:-apple-system,&quot;SF Pro Display&quot;,&quot;SF Pro Text&quot;,Helvetica,sans-serif;" transform="matrix(1 0 0 1 263 1586)">Large</text>
 </g>
 <g id="Guides">
  <g id="H-reference" style="fill:#27AAE1;stroke:none;" transform="matrix(1 0 0 1 339 696)">
   <path d="M0.976562 0L3.66211 0L12.9883-24.4629L45.752-24.4629L55.127 0L57.7637 0L30.6152-70.459L28.125-70.459ZM29.3457-67.1387L29.4434-67.1387L44.873-26.709L13.8672-26.709Z"/>
  </g>
  <line id="Baseline-S" style="fill:none;stroke:#27AAE1;opacity:1;stroke-width:0.5;" x1="263" x2="3036" y1="696" y2="696"/>
  <line id="Capline-S" style="fill:none;stroke:#27AAE1;opacity:1;stroke-width:0.5;" x1="263" x2="3036" y1="625.541" y2="625.541"/>
  <g id="H-reference" style="fill:#27AAE1;stroke:none;" transform="matrix(1 0 0 1 339 1126)">
   <path d="M0.976562 0L3.66211 0L12.9883-24.4629L45.752-24.4629L55.127 0L57.7637 0L30.6152-70.459L28.125-70.459ZM29.3457-67.1387L29.4434-67.1387L44.873-26.709L13.8672-26.709Z"/>
  </g>
  <line id="Baseline-M" style="fill:none;stroke:#27AAE1;opacity:1;stroke-width:0.5;" x1="263" x2="3036" y1="1126" y2="1126"/>
  <line id="Capline-M" style="fill:none;stroke:#27AAE1;opacity:1;stroke-width:0.5;" x1="263" x2="3036" y1="1055.54" y2="1055.54"/>
  <g id="H-reference" style="fill:#27AAE1;stroke:none;" transform="matrix(1 0 0 1 339 1556)">
   <path d="M0.976562 0L3.66211 0L12.9883-24.4629L45.752-24.4629L55.127 0L57.7637 0L30.6152-70.459L28.125-70.459ZM29.3457-67.1387L29.4434-67.1387L44.873-26.709L13.8672-26.709Z"/>
  </g>
  <line id="Baseline-L" style="fill:none;stroke:#27AAE1;opacity:1;stroke-width:0.5;" x1="263" x2="3036" y1="1556" y2="1556"/>
  <line id="Capline-L" style="fill:none;stroke:#27AAE1;opacity:1;stroke-width:0.5;" x1="263" x2="3036" y1="1485.54" y2="1485.54"/>
  <line id="left-margin" style="fill:none;stroke:#00AEEF;stroke-width:0.5;opacity:1.0;" x1="1387.86" x2="1387.86" y1="1030.79" y2="1150.12"/>
  <line id="right-margin" style="fill:none;stroke:#00AEEF;stroke-width:0.5;opacity:1.0;" x1="1511.83" x2="1511.83" y1="1030.79" y2="1150.12"/>
 </g>
 <g id="Symbols">
  <g id="Black-L" transform="matrix(1 0 0 1 2851.76 1556)">
   <path d="M87.7441 26.3672C92.2363 26.3672 95.7031 24.6582 100 20.6543L150.439-25.9766C153.027-28.418 154.443-32.1777 154.443-35.2051C154.443-38.4766 153.076-41.9434 150.537-44.3848L100-90.9668C95.3125-95.2148 92.0898-96.8262 87.793-96.8262C80.8594-96.8262 75.5371-91.4062 75.5371-84.4727L75.5371-66.2598L74.9023-66.2598C36.2793-66.2598 15.2832-40.9668 15.2832 1.9043C15.2832 17.5293 19.5801 25.1953 27.2461 25.1953C32.4707 25.1953 36.4258 22.998 39.7461 16.6016C46.4844 4.6875 56.2988-3.71094 74.9023-3.71094L75.5371-3.71094L75.5371 14.209C75.5371 21.0938 80.8594 26.3672 87.7441 26.3672ZM93.0664 1.36719C92.4805 1.36719 91.9922 0.830078 91.9922 0.146484L91.9922-19.6777C91.9922-21.0938 91.3574-21.6797 89.9414-21.6797L82.8125-21.6797C56.9824-21.6797 40.7715-16.0156 32.8125-1.02539C32.666-0.683594 32.5195-0.585938 32.2754-0.585938C32.0801-0.585938 31.9336-0.732422 31.9336-1.07422C32.373-30.6641 49.4141-48.7305 82.8125-48.7305L89.9414-48.7305C91.3574-48.7305 91.9922-49.3652 91.9922-50.7812L91.9922-70.6543C91.9922-71.3867 92.4805-71.8262 93.0664-71.8262C93.4082-71.8262 93.7012-71.7285 93.9941-71.4844L131.299-36.1816C131.689-35.791 131.836-35.5469 131.836-35.2051C131.836-34.9121 131.689-34.668 131.299-34.2773L93.9941 0.878906C93.7012 1.17188 93.4082 1.36719 93.0664 1.36719Z"/>
  </g>
  <g id="Heavy-L" transform="matrix(1 0 0 1 2555.63 1556)">
   <path d="M87.8418 25.293C91.9434 25.293 95.1172 23.6816 99.0234 20.0684L149.268-26.6113C151.855-29.0039 153.125-32.4219 153.125-35.2051C153.125-38.1836 151.904-41.4062 149.316-43.8477L99.0234-90.332C94.7754-94.2383 91.8457-95.752 87.8906-95.752C81.6406-95.752 76.9531-90.8691 76.9531-84.668L76.9531-64.9414L75.9766-64.9414C36.1328-64.9414 15.1367-39.1602 15.1367 4.83398C15.1367 17.8711 19.0918 24.4141 25.6836 24.4141C30.2734 24.4141 33.8867 22.5586 36.8652 16.7969C44.4336 2.88086 55.7129-5.12695 75.9766-5.12695L76.9531-5.12695L76.9531 14.4043C76.9531 20.6055 81.6406 25.293 87.8418 25.293ZM92.5781 3.4668C91.9922 3.4668 91.5527 2.97852 91.5527 2.29492L91.5527-18.7988C91.5527-20.2148 90.918-20.8008 89.5508-20.8008L82.2754-20.8008C55.4199-20.8008 38.5254-14.1113 30.6641 1.36719C30.4688 1.75781 30.3223 1.9043 30.0781 1.9043C29.834 1.9043 29.6387 1.75781 29.6387 1.36719C30.2246-29.1992 46.875-49.6094 82.2754-49.6094L89.5508-49.6094C90.918-49.6094 91.5527-50.2441 91.5527-51.6602L91.5527-72.9492C91.5527-73.6328 91.9922-74.0723 92.627-74.0723C92.9688-74.0723 93.3105-73.9258 93.6035-73.6328L132.91-36.377C133.398-35.8887 133.594-35.5957 133.594-35.2051C133.594-34.8633 133.398-34.5703 132.91-34.082L93.6035 2.97852C93.2617 3.32031 92.9199 3.4668 92.5781 3.4668Z"/>
  </g>
  <g id="Bold-L" transform="matrix(1 0 0 1 2259.58 1556)">
   <path d="M87.9395 24.0723C91.6016 24.0723 94.4824 22.6074 97.9492 19.3848L147.998-27.2949C150.537-29.7363 151.611-32.7148 151.611-35.2539C151.611-37.8906 150.586-40.7227 147.998-43.1641L97.9492-89.6484C94.1406-93.1152 91.5527-94.5312 88.0371-94.5312C82.5195-94.5312 78.5156-90.2832 78.5156-84.8633L78.5156-63.4277L77.1484-63.4277C35.9863-63.4277 14.9902-37.1582 14.9902 8.05664C14.9902 18.2617 18.5059 23.4863 23.877 23.4863C27.7832 23.4863 31.0059 22.0215 33.6426 16.9922C42.1875 0.78125 55.0781-6.73828 77.1484-6.73828L78.5156-6.73828L78.5156 14.5996C78.5156 20.0195 82.5195 24.0723 87.9395 24.0723ZM92.0898 5.85938C91.5039 5.85938 91.0645 5.37109 91.0645 4.73633L91.0645-17.7734C91.0645-19.1895 90.4785-19.7754 89.0625-19.7754L81.7383-19.7754C53.7109-19.7754 36.0352-11.9141 28.2227 4.05273C28.0273 4.49219 27.8809 4.6875 27.5879 4.6875C27.2949 4.6875 27.0996 4.49219 27.0996 4.05273C27.832-27.5391 43.9941-50.5859 81.7383-50.5859L89.0625-50.5859C90.4785-50.5859 91.0645-51.2207 91.0645-52.6367L91.0645-75.4883C91.0645-76.123 91.5039-76.5625 92.0898-76.5625C92.4805-76.5625 92.8223-76.3672 93.1641-76.0742L134.766-36.5723C135.303-36.0352 135.498-35.6934 135.498-35.2539C135.498-34.8145 135.352-34.4238 134.766-33.8867L93.1641 5.32227C92.7734 5.66406 92.4316 5.85938 92.0898 5.85938Z"/>
  </g>
  <g id="Semibold-L" transform="matrix(1 0 0 1 1963.34 1556)">
   <path d="M87.9883 23.2422C91.3574 23.2422 94.043 21.8262 97.168 18.8965L147.07-27.7832C149.658-30.1758 150.586-32.9102 150.586-35.2539C150.586-37.6465 149.707-40.2832 147.119-42.7246L97.168-89.1602C93.7012-92.3828 91.3574-93.7012 88.0859-93.7012C83.1543-93.7012 79.5898-89.8438 79.5898-85.0098L79.5898-62.4023L77.9785-62.4023C35.8887-62.4023 14.8438-35.791 14.8438 10.3027C14.8438 18.5547 18.1152 22.8516 22.6562 22.8516C26.0742 22.8516 29.0039 21.6797 31.3965 17.1387C40.6738-0.634766 54.6387-7.8125 77.9785-7.8125L79.5898-7.8125L79.5898 14.7949C79.5898 19.5801 83.1543 23.2422 87.9883 23.2422ZM91.6992 7.4707C91.1133 7.4707 90.7227 7.03125 90.7227 6.39648L90.7227-17.0898C90.7227-18.5059 90.1367-19.0918 88.7207-19.0918L81.2988-19.0918C52.4902-19.0918 34.3262-10.4004 26.5625 5.9082C26.3672 6.34766 26.1719 6.64062 25.8789 6.64062C25.5371 6.64062 25.3906 6.39648 25.3906 5.95703C26.1719-26.416 42.041-51.2695 81.2988-51.2695L88.7207-51.2695C90.1367-51.2695 90.7227-51.8555 90.7227-53.2715L90.7227-77.2461C90.7227-77.8809 91.1621-78.2715 91.748-78.2715C92.1875-78.2715 92.5293-78.0273 92.8711-77.7344L135.986-36.7676C136.621-36.1328 136.865-35.7422 136.865-35.2539C136.865-34.8145 136.67-34.375 135.986-33.7402L92.8711 6.88477C92.4316 7.27539 92.0898 7.4707 91.6992 7.4707Z"/>
  </g>
  <g id="Medium-L" transform="matrix(1 0 0 1 1666.97 1556)">
   <path d="M88.0859 22.5586C91.1621 22.5586 93.6523 21.2891 96.6309 18.5547L146.387-28.125C148.975-30.5664 149.805-33.1055 149.805-35.2539C149.805-37.5 149.023-39.9414 146.387-42.4316L96.6309-88.8184C93.4082-91.7969 91.2109-93.1152 88.1348-93.1152C83.5938-93.1152 80.4199-89.5508 80.4199-85.1562L80.4199-61.6211L78.6133-61.6211C35.8398-61.6211 14.7949-34.7168 14.7949 11.9629C14.7949 18.75 17.8223 22.3633 21.7285 22.3633C24.7559 22.3633 27.5391 21.3867 29.6875 17.2363C39.4531-1.70898 54.2969-8.64258 78.6133-8.64258L80.4199-8.64258L80.4199 14.8926C80.4199 19.2871 83.5938 22.5586 88.0859 22.5586ZM91.4551 8.69141C90.8691 8.69141 90.4785 8.30078 90.4785 7.66602L90.4785-16.5527C90.4785-17.9688 89.8926-18.5547 88.4766-18.5547L81.0059-18.5547C51.5625-18.5547 33.0078-9.27734 25.293 7.32422C25.0977 7.8125 24.9023 8.10547 24.6094 8.10547C24.2188 8.10547 24.0723 7.8125 24.0723 7.37305C24.9512-25.5371 40.5762-51.8066 81.0059-51.8066L88.4766-51.8066C89.8926-51.8066 90.4785-52.3926 90.4785-53.8086L90.4785-78.5645C90.4785-79.1504 90.8691-79.541 91.4551-79.541C91.8945-79.541 92.2852-79.2969 92.627-79.0039L136.963-36.8652C137.646-36.2305 137.891-35.7422 137.891-35.2539C137.891-34.7656 137.646-34.3262 136.963-33.6426L92.627 8.10547C92.1875 8.54492 91.7969 8.69141 91.4551 8.69141Z"/>
  </g>
  <g id="Regular-L" transform="matrix(1 0 0 1 1370.69 1556)">
   <path d="M88.1348 21.7285C90.918 21.7285 93.2129 20.5566 95.8496 18.0664L145.508-28.6133C148.096-31.0547 148.828-33.3008 148.828-35.2539C148.828-37.3047 148.096-39.502 145.508-41.9922L95.8496-88.3301C92.9688-91.0156 91.0156-92.2852 88.2324-92.2852C84.2285-92.2852 81.4941-89.1113 81.4941-85.2539L81.4941-60.5957L79.4434-60.5957C35.7422-60.5957 14.6484-33.3496 14.6484 14.209C14.6484 19.043 17.4316 21.7285 20.5566 21.7285C23.0469 21.7285 25.5859 21.0449 27.4902 17.334C37.9395-3.125 53.8574-9.7168 79.4434-9.7168L81.4941-9.7168L81.4941 15.0391C81.4941 18.8965 84.2285 21.7285 88.1348 21.7285ZM91.0645 10.3027C90.5273 10.3027 90.1367 9.91211 90.1367 9.32617L90.1367-15.8691C90.1367-17.2852 89.5508-17.8711 88.1348-17.8711L80.6152-17.8711C50.3906-17.8711 31.2988-7.8125 23.6328 9.13086C23.4375 9.66797 23.2422 10.0098 22.9004 10.0098C22.5098 10.0098 22.3145 9.7168 22.3145 9.22852C23.3398-24.4141 38.623-52.4414 80.6152-52.4414L88.1348-52.4414C89.5508-52.4414 90.1367-53.0762 90.1367-54.4434L90.1367-80.3223C90.1367-80.8594 90.5273-81.25 91.1133-81.25C91.6016-81.25 91.9922-80.957 92.334-80.6641L138.184-37.0117C138.965-36.3281 139.209-35.791 139.209-35.2539C139.209-34.7168 138.965-34.2285 138.184-33.4961L92.334 9.7168C91.8457 10.1562 91.4551 10.3027 91.0645 10.3027Z"/>
  </g>
  <g id="Light-L" transform="matrix(1 0 0 1 1075.13 1556)">
   <path d="M86.6699 20.7031C89.1113 20.7031 91.0645 19.5801 93.1641 17.627L142.725-28.7109C145.508-31.3965 146.143-33.3984 146.143-35.2539C146.143-37.1582 145.557-39.1602 142.725-41.8457L93.1641-87.9883C90.918-90.0879 89.1602-91.2109 86.7676-91.2109C83.3008-91.2109 81.1035-88.5254 81.1035-85.2051L81.1035-59.375L78.7109-59.375C37.207-59.375 14.3066-34.4727 14.3066 14.3555C14.3066 18.3594 16.6504 20.7031 19.3359 20.7031C21.6309 20.7031 23.6328 19.873 25.2441 16.6504C34.9121-3.61328 51.4648-10.791 78.7109-10.791L81.1035-10.791L81.1035 14.8926C81.1035 18.1641 83.3008 20.7031 86.6699 20.7031ZM88.7207 12.207C88.0859 12.207 87.6953 11.7188 87.6953 11.0352L87.6953-15.2344C87.6953-16.6016 87.207-17.0898 85.8398-17.0898L79.5898-17.0898C48.877-17.0898 29.834-7.4707 21.875 11.0352C21.6309 11.6699 21.3867 12.1094 20.8984 12.1094C20.4102 12.1094 20.2148 11.7676 20.2148 11.2305C20.8008-27.6367 39.2578-53.0762 79.5898-53.0762L85.8398-53.0762C87.207-53.0762 87.6953-53.6133 87.6953-54.9316L87.6953-81.9336C87.6953-82.5684 88.1348-82.959 88.7695-82.959C89.3555-82.959 89.7461-82.6172 90.1855-82.2266L137.402-37.793C138.525-36.7188 138.867-36.0352 138.867-35.2539C138.867-34.5215 138.574-33.7891 137.402-32.7637L90.1367 11.4258C89.5508 11.9629 89.1602 12.207 88.7207 12.207Z"/>
  </g>
  <g id="Thin-L" transform="matrix(1 0 0 1 779.933 1556)">
   <path d="M84.7656 19.2871C86.6699 19.2871 88.2324 18.3105 89.6484 16.9922L138.965-28.8574C142.139-31.8359 142.627-33.5449 142.627-35.2539C142.627-37.0117 142.188-38.6719 138.965-41.6504L89.6484-87.5C88.2324-88.8184 86.7188-89.8438 84.8145-89.8438C82.0312-89.8438 80.5664-87.7441 80.5664-85.1562L80.5664-57.7148L77.7832-57.7148C39.1113-57.7148 13.8184-35.9863 13.8184 14.5508C13.8184 17.4805 15.5762 19.2871 17.7734 19.2871C19.7754 19.2871 21.0938 18.3594 22.2656 15.7227C30.9082-4.29688 48.3398-12.207 77.7832-12.207L80.5664-12.207L80.5664 14.6484C80.5664 17.2363 82.0312 19.2871 84.7656 19.2871ZM85.5957 14.6484C84.8633 14.6484 84.4727 14.1113 84.4727 13.3301L84.4727-14.4043C84.4727-15.6738 84.082-16.0645 82.8125-16.0645L78.2227-16.0645C46.875-16.0645 27.8809-7.08008 19.5312 13.5254C19.1895 14.3066 18.8965 14.9414 18.3105 14.9414C17.627 14.9414 17.3828 14.502 17.3828 13.8672C17.5293-31.9824 40.0879-53.8574 78.2227-53.8574L82.8125-53.8574C84.082-53.8574 84.4727-54.2969 84.4727-55.5176L84.4727-84.082C84.4727-84.7656 84.9609-85.2539 85.6445-85.2539C86.377-85.2539 86.8164-84.8145 87.3535-84.3262L136.328-38.7695C137.891-37.3047 138.428-36.3281 138.428-35.2539C138.428-34.2285 137.988-33.252 136.328-31.7383L87.3047 13.7207C86.5234 14.4043 86.084 14.6484 85.5957 14.6484Z"/>
  </g>
  <g id="Ultralight-L" transform="matrix(1 0 0 1 484.003 1556)">
   <path d="M83.7891 18.6035C85.4492 18.6035 86.8164 17.6758 87.8418 16.6992L137.061-28.9551C140.381-32.0801 140.82-33.5938 140.82-35.2539C140.82-36.9141 140.479-38.4277 137.061-41.6016L87.8418-87.2559C86.8164-88.1836 85.4492-89.1113 83.7891-89.1113C81.3965-89.1113 80.2734-87.3535 80.2734-85.1074L80.2734-56.8848L77.2949-56.8848C40.1367-56.8848 13.5742-36.7676 13.5742 14.6484C13.5742 17.041 14.9902 18.6035 16.9922 18.6035C18.8477 18.6035 19.7754 17.5781 20.752 15.2344C28.8574-4.63867 46.7773-12.9395 77.2949-12.9395L80.2734-12.9395L80.2734 14.5508C80.2734 16.7969 81.3965 18.6035 83.7891 18.6035ZM83.9844 15.918C83.252 15.918 82.8613 15.332 82.8613 14.502L82.8613-14.0137C82.8613-15.1855 82.4707-15.5762 81.2988-15.5762L77.4902-15.5762C45.8496-15.5762 26.8555-6.83594 18.3105 14.7949C17.9688 15.625 17.627 16.4062 16.9434 16.4062C16.2109 16.4062 15.9668 15.918 15.9668 15.2344C15.8203-34.1797 40.4785-54.2969 77.4902-54.2969L81.2988-54.2969C82.4707-54.2969 82.8613-54.6875 82.8613-55.8594L82.8613-85.1562C82.8613-85.9375 83.3496-86.4258 84.082-86.4258C84.8145-86.4258 85.3027-85.8887 85.8887-85.4004L135.791-39.3066C137.598-37.5977 138.232-36.4746 138.232-35.2539C138.232-34.082 137.695-32.959 135.791-31.25L85.8398 14.9414C84.9609 15.6738 84.4727 15.918 83.9844 15.918Z"/>
  </g>
  <g id="Black-M" transform="matrix(1 0 0 1 2869.95 1126)">
   <path d="M67.0898 13.4277C70.9473 13.4277 73.8281 11.9629 77.3926 8.64258L116.699-27.2949C118.799-29.2969 120.068-32.5684 120.068-35.2051C120.068-38.0371 118.848-41.0645 116.748-43.0664L77.3926-79.0527C73.5352-82.5684 70.7031-83.8379 67.0898-83.8379C61.084-83.8379 56.3965-79.1504 56.3965-73.1445L56.3965-60.4004L56.2012-60.4004C29.0527-60.4004 11.8652-42.7246 11.8652-10.2539C11.8652 4.78516 15.4297 12.1582 22.6074 12.1582C27.4414 12.1582 30.6641 9.91211 33.4961 4.3457C37.1094-2.05078 43.1641-9.47266 56.2012-9.47266L56.3965-9.47266L56.3965 2.73438C56.3965 8.78906 61.084 13.4277 67.0898 13.4277ZM71.4844-8.74023C70.9961-8.74023 70.5566-9.17969 70.5566-9.81445L70.5566-24.0723C70.5566-25.0977 70.1172-25.5371 69.043-25.5371L64.3066-25.5371C45.459-25.5371 33.8379-22.8027 27.3926-10.9375C27.2949-10.6934 27.1484-10.5957 26.9531-10.5957C26.7578-10.5957 26.6602-10.6934 26.6602-10.9375C26.6113-35.4492 42.0898-44.873 64.3066-44.873L69.043-44.873C70.1172-44.873 70.5566-45.2637 70.5566-46.3379L70.5566-60.498C70.5566-61.1328 70.9961-61.5234 71.4844-61.5234C71.7285-61.5234 71.9727-61.4746 72.2656-61.2793L99.1211-36.084C99.5117-35.6934 99.6582-35.498 99.6582-35.2051C99.6582-34.9609 99.5117-34.668 99.1211-34.3262L72.2656-9.13086C71.9727-8.88672 71.7285-8.74023 71.4844-8.74023Z"/>
  </g>
  <g id="Heavy-M" transform="matrix(1 0 0 1 2573.58 1126)">
   <path d="M67.5781 12.5C71.0938 12.5 73.7305 11.1816 77.002 8.10547L116.113-27.9297C118.213-29.8828 119.287-32.8125 119.287-35.2051C119.287-37.7441 118.262-40.4785 116.162-42.4316L77.002-78.4668C73.4375-81.7383 70.8984-82.9102 67.627-82.9102C62.207-82.9102 58.0566-78.7598 58.0566-73.3398L58.0566-59.2773L57.5684-59.2773C28.5645-59.2773 11.7676-40.4785 11.7676-7.12891C11.7676 5.37109 15.0879 11.5234 21.1914 11.5234C25.3418 11.5234 28.3691 9.7168 30.9082 4.6875C35.6934-3.95508 43.1152-10.7422 57.5684-10.7422L58.0566-10.7422L58.0566 2.97852C58.0566 8.39844 62.207 12.5 67.5781 12.5ZM71.582-6.88477C71.1426-6.88477 70.7031-7.32422 70.7031-7.91016L70.7031-23.2422C70.7031-24.3164 70.2637-24.7559 69.1895-24.7559L64.0137-24.7559C44.1406-24.7559 31.7871-20.752 25.4883-8.83789C25.3418-8.54492 25.2441-8.39844 25.0488-8.39844C24.8535-8.39844 24.707-8.54492 24.707-8.83789C24.9512-32.959 39.1113-45.6543 64.0137-45.6543L69.1895-45.6543C70.2637-45.6543 70.7031-46.0938 70.7031-47.168L70.7031-62.5488C70.7031-63.1348 71.1426-63.4766 71.582-63.4766C71.875-63.4766 72.1191-63.4277 72.3633-63.2324L101.123-36.084C101.514-35.7422 101.611-35.498 101.611-35.2051C101.611-34.9609 101.514-34.7168 101.123-34.3262L72.3633-7.27539C72.1191-7.03125 71.875-6.88477 71.582-6.88477Z"/>
  </g>
  <g id="Bold-M" transform="matrix(1 0 0 1 2277.26 1126)">
   <path d="M68.1152 11.4746C71.2402 11.4746 73.6328 10.2539 76.6113 7.51953L115.527-28.6621C117.529-30.5176 118.457-33.1055 118.457-35.2051C118.457-37.4512 117.578-39.8926 115.576-41.7969L76.6113-77.832C73.3887-80.8105 71.1426-81.9336 68.1641-81.9336C63.4277-81.9336 59.9121-78.2715 59.9121-73.584L59.9121-58.0078L59.082-58.0078C27.9785-58.0078 11.7188-37.9395 11.7188-3.66211C11.7188 6.00586 14.6973 10.8398 19.5801 10.8398C23.0469 10.8398 25.7812 9.47266 28.0273 5.12695C34.1309-6.05469 43.1152-12.1582 59.082-12.1582L59.9121-12.1582L59.9121 3.27148C59.9121 7.95898 63.4277 11.4746 68.1152 11.4746ZM71.7285-4.88281C71.2402-4.88281 70.8984-5.22461 70.8984-5.76172L70.8984-22.3145C70.8984-23.4375 70.459-23.877 69.3359-23.877L63.7207-23.877C42.6758-23.877 29.4434-18.457 23.3398-6.44531C23.2422-6.15234 23.0957-6.00586 22.9004-6.00586C22.7051-6.00586 22.5586-6.15234 22.5586-6.44531C23.0469-30.2246 35.8398-46.5332 63.7207-46.5332L69.3359-46.5332C70.459-46.5332 70.8984-47.0215 70.8984-48.0957L70.8984-64.8926C70.8984-65.3809 71.2891-65.7227 71.7285-65.7227C72.0215-65.7227 72.2656-65.5762 72.5098-65.3809L103.32-36.1328C103.711-35.7422 103.857-35.5469 103.857-35.2051C103.857-34.9609 103.711-34.7168 103.32-34.3262L72.5098-5.27344C72.2656-4.98047 71.9727-4.88281 71.7285-4.88281Z"/>
  </g>
  <g id="Semibold-M" transform="matrix(1 0 0 1 1980.82 1126)">
   <path d="M68.5059 10.791C71.3379 10.791 73.584 9.61914 76.3184 7.08008L115.088-29.1504C117.041-31.0059 117.871-33.3008 117.871-35.2539C117.871-37.2559 117.09-39.4531 115.137-41.3086L76.3184-77.3438C73.3398-80.127 71.3379-81.25 68.5547-81.25C64.3066-81.25 61.1816-77.9297 61.1816-73.7793L61.1816-57.1289L60.1562-57.1289C27.5879-57.1289 11.6699-36.1816 11.6699-1.2207C11.6699 6.44531 14.4531 10.3516 18.5059 10.3516C21.4355 10.3516 24.0234 9.32617 26.0742 5.41992C33.0078-7.51953 43.1152-13.1348 60.1562-13.1348L61.1816-13.1348L61.1816 3.4668C61.1816 7.61719 64.3066 10.791 68.5059 10.791ZM71.7773-3.4668C71.3379-3.4668 71.0449-3.80859 71.0449-4.29688L71.0449-21.6797C71.0449-22.8027 70.5566-23.291 69.4336-23.291L63.4766-23.291C41.6504-23.291 27.8809-16.8945 21.875-4.78516C21.7773-4.49219 21.6309-4.3457 21.4355-4.3457C21.2402-4.3457 21.0938-4.49219 21.0938-4.78516C21.7773-28.3203 33.5449-47.168 63.4766-47.168L69.4336-47.168C70.5566-47.168 71.0449-47.6562 71.0449-48.7305L71.0449-66.4551C71.0449-66.9434 71.3867-67.2363 71.8262-67.2363C72.1191-67.2363 72.3633-67.0898 72.6074-66.8945L104.883-36.1328C105.273-35.791 105.371-35.5469 105.371-35.2539C105.371-34.9609 105.273-34.7168 104.883-34.3262L72.6074-3.85742C72.3145-3.56445 72.0703-3.4668 71.7773-3.4668Z"/>
  </g>
  <g id="Medium-M" transform="matrix(1 0 0 1 1684.3 1126)">
   <path d="M68.75 10.2051C71.4355 10.2051 73.5352 9.17969 76.123 6.73828L114.795-29.541C116.699-31.3477 117.432-33.4473 117.432-35.2539C117.432-37.1094 116.699-39.1602 114.795-40.9668L76.123-77.002C73.291-79.6387 71.4355-80.7129 68.8477-80.7129C64.9414-80.7129 62.1582-77.6855 62.1582-73.877L62.1582-56.4941L60.9375-56.4941C27.2461-56.4941 11.6211-34.8633 11.6211 0.585938C11.6211 6.78711 14.2578 10.0098 17.6758 10.0098C20.2637 10.0098 22.6562 9.17969 24.5605 5.61523C32.2266-8.64258 43.1152-13.8672 60.9375-13.8672L62.1582-13.8672L62.1582 3.61328C62.1582 7.42188 64.9414 10.2051 68.75 10.2051ZM71.875-2.39258C71.4355-2.39258 71.1426-2.68555 71.1426-3.17383L71.1426-21.1914C71.1426-22.3145 70.6543-22.8027 69.5312-22.8027L63.2812-22.8027C40.918-22.8027 26.6602-15.7227 20.8008-3.51562C20.6543-3.22266 20.5078-3.07617 20.3125-3.07617C20.1172-3.07617 19.9707-3.22266 19.9707-3.56445C20.752-26.8555 31.8359-47.6074 63.2812-47.6074L69.5312-47.6074C70.6543-47.6074 71.1426-48.0957 71.1426-49.2188L71.1426-67.6758C71.1426-68.1152 71.4355-68.4082 71.875-68.4082C72.168-68.4082 72.4609-68.2617 72.7051-68.0176L106.055-36.1816C106.396-35.791 106.543-35.5469 106.543-35.2539C106.543-34.9609 106.445-34.7168 106.055-34.3262L72.6562-2.7832C72.4121-2.53906 72.1191-2.39258 71.875-2.39258Z"/>
  </g>
  <g id="Regular-M" transform="matrix(1 0 0 1 1387.86 1126)">
   <path d="M69.1406 9.52148C71.5332 9.52148 73.4863 8.54492 75.8301 6.34766L114.355-30.0293C116.211-31.7871 116.846-33.6426 116.846-35.2539C116.846-36.9141 116.26-38.7207 114.355-40.5273L75.8301-76.5625C73.2422-79.0039 71.6309-80.0293 69.2383-80.0293C65.8203-80.0293 63.3789-77.3438 63.3789-74.0723L63.3789-55.6152L61.9629-55.6152C26.8555-55.6152 11.5723-33.1055 11.5723 2.97852C11.5723 7.17773 13.9648 9.52148 16.6016 9.52148C18.6523 9.52148 20.8984 9.0332 22.6074 5.9082C31.1035-10.0586 43.0664-14.8438 61.9629-14.8438L63.3789-14.8438L63.3789 3.80859C63.3789 7.08008 65.8203 9.52148 69.1406 9.52148ZM71.9238-0.976562C71.5332-0.976562 71.2402-1.26953 71.2402-1.70898L71.2402-20.6055C71.2402-21.7285 70.752-22.2168 69.6289-22.2168L63.0859-22.2168C39.8926-22.2168 25.0977-14.1602 19.3359-1.9043C19.1895-1.5625 19.0918-1.41602 18.8477-1.41602C18.6523-1.41602 18.5059-1.5625 18.5059-1.95312C19.4824-25 29.541-48.2422 63.0859-48.2422L69.6289-48.2422C70.752-48.2422 71.2402-48.7305 71.2402-49.8535L71.2402-69.2383C71.2402-69.6289 71.5332-69.9219 71.9727-69.9219C72.2656-69.9219 72.5586-69.7266 72.8027-69.5312L107.568-36.1816C107.91-35.8398 108.057-35.5469 108.057-35.2539C108.057-34.9609 107.959-34.7168 107.568-34.3262L72.7539-1.41602C72.5098-1.12305 72.2168-0.976562 71.9238-0.976562Z"/>
  </g>
  <g id="Light-M" transform="matrix(1 0 0 1 1092.17 1126)">
   <path d="M67.8223 8.59375C69.873 8.59375 71.5332 7.66602 73.4375 5.9082L111.865-30.127C113.916-32.0801 114.453-33.7402 114.453-35.2539C114.453-36.8164 113.965-38.4277 111.865-40.4297L73.4375-76.2695C71.3867-78.1738 69.9219-79.1016 67.8711-79.1016C64.9414-79.1016 63.0371-76.8066 63.0371-73.9746L63.0371-54.4922L61.3281-54.4922C28.1738-54.4922 11.2305-34.1309 11.2305 3.125C11.2305 6.5918 13.2812 8.59375 15.5273 8.59375C17.3828 8.59375 19.1895 8.00781 20.5566 5.27344C28.418-10.498 40.9668-15.8203 61.3281-15.8203L63.0371-15.8203L63.0371 3.66211C63.0371 6.49414 64.9414 8.59375 67.8223 8.59375ZM69.8242 0.683594C69.3359 0.683594 69.0918 0.341797 69.0918-0.146484L69.0918-20.0195C69.0918-21.0938 68.6523-21.5332 67.5781-21.5332L62.1582-21.5332C38.5254-21.5332 23.7793-13.8672 17.7246-0.195312C17.5781 0.195312 17.3828 0.537109 17.0898 0.537109C16.748 0.537109 16.6016 0.292969 16.6016-0.146484C17.2363-27.9297 30.127-48.7793 62.1582-48.7793L67.5781-48.7793C68.6523-48.7793 69.0918-49.2188 69.0918-50.293L69.0918-70.7031C69.0918-71.1426 69.3848-71.4844 69.8242-71.4844C70.2637-71.4844 70.5566-71.2402 70.8496-70.9473L106.836-36.8652C107.52-36.1816 107.764-35.7422 107.764-35.2539C107.764-34.7656 107.568-34.3262 106.836-33.6426L70.8496 0.146484C70.4102 0.537109 70.1172 0.683594 69.8242 0.683594Z"/>
  </g>
  <g id="Thin-M" transform="matrix(1 0 0 1 796.828 1126)">
   <path d="M66.1133 7.32422C67.7246 7.32422 68.9941 6.54297 70.2148 5.37109L108.496-30.2734C110.889-32.5195 111.279-33.8867 111.279-35.2539C111.279-36.6211 110.938-37.9883 108.496-40.2344L70.2148-75.8301C68.9453-77.0508 67.7246-77.832 66.1621-77.832C63.8672-77.832 62.5488-76.123 62.5488-73.9258L62.5488-53.0273L60.498-53.0273C29.9316-53.0273 10.791-35.498 10.791 3.32031C10.791 5.81055 12.3047 7.32422 14.1113 7.32422C15.7227 7.32422 16.8945 6.64062 17.9199 4.44336C24.8047-11.1328 38.1348-17.0898 60.498-17.0898L62.5488-17.0898L62.5488 3.4668C62.5488 5.66406 63.8672 7.32422 66.1133 7.32422ZM66.9922 2.88086C66.5039 2.88086 66.1621 2.49023 66.1621 1.9043L66.1621-19.2871C66.1621-20.2637 65.8203-20.6055 64.8438-20.6055L60.8887-20.6055C36.7676-20.6055 22.0215-13.4766 15.625 2.00195C15.4297 2.58789 15.1855 3.07617 14.7461 3.07617C14.2578 3.07617 14.1113 2.73438 14.1113 2.24609C14.3066-31.7871 30.8594-49.5117 60.8887-49.5117L64.8438-49.5117C65.8203-49.5117 66.1621-49.8535 66.1621-50.8301L66.1621-72.6074C66.1621-73.1445 66.5527-73.4863 67.041-73.4863C67.5781-73.4863 67.9199-73.1934 68.3105-72.8516L105.908-37.7441C107.031-36.7188 107.373-35.9863 107.373-35.2539C107.373-34.5215 107.08-33.8379 105.908-32.7637L68.2617 2.24609C67.7246 2.73438 67.3828 2.88086 66.9922 2.88086Z"/>
  </g>
  <g id="Ultralight-M" transform="matrix(1 0 0 1 500.8 1126)">
   <path d="M65.2344 6.68945C66.6016 6.68945 67.7246 5.95703 68.6035 5.12695L106.787-30.3223C109.326-32.7148 109.668-33.9355 109.668-35.2539C109.668-36.5723 109.375-37.793 106.787-40.1855L68.6035-75.6348C67.7246-76.4648 66.6016-77.1973 65.2344-77.1973C63.2812-77.1973 62.3047-75.7324 62.3047-73.877L62.3047-52.2949L60.0586-52.2949C30.8105-52.2949 10.5957-36.1816 10.5957 3.36914C10.5957 5.41992 11.8164 6.68945 13.4277 6.68945C14.8926 6.68945 15.7227 5.95703 16.5527 4.05273C22.9492-11.4258 36.7188-17.7246 60.0586-17.7246L62.3047-17.7246L62.3047 3.36914C62.3047 5.22461 63.2812 6.68945 65.2344 6.68945ZM65.5762 4.05273C64.9902 4.05273 64.6973 3.61328 64.6973 2.97852L64.6973-18.8965C64.6973-19.8242 64.4043-20.1172 63.4766-20.1172L60.3027-20.1172C35.8398-20.1172 21.0938-13.3301 14.5508 3.17383C14.3066 3.80859 14.0625 4.3457 13.5742 4.3457C12.9883 4.3457 12.793 4.00391 12.793 3.4668C12.793-33.7402 31.25-49.8535 60.3027-49.8535L63.4766-49.8535C64.4043-49.8535 64.6973-50.1953 64.6973-51.123L64.6973-73.584C64.6973-74.1699 65.0879-74.5605 65.625-74.5605C66.2109-74.5605 66.6016-74.1699 67.041-73.7793L105.42-38.2324C106.738-36.9629 107.178-36.1328 107.178-35.2539C107.178-34.375 106.787-33.5449 105.42-32.2754L66.9434 3.27148C66.3086 3.85742 65.9668 4.05273 65.5762 4.05273Z"/>
  </g>
  <g id="Black-S" transform="matrix(1 0 0 1 2883.69 696)">
   <path d="M52.6367 2.83203C55.6152 2.83203 57.8613 1.70898 60.6445-0.878906L91.4062-29.0527C93.0664-30.6152 94.043-33.1543 94.043-35.2051C94.043-37.4023 93.1152-39.7461 91.4551-41.3086L60.6445-69.5312C57.6172-72.2656 55.4199-73.2422 52.6367-73.2422C47.9492-73.2422 44.3359-69.6289 44.3359-64.9414L44.3359-54.8828L44.1406-54.8828C22.7051-54.8828 9.27734-40.918 9.27734-15.4297C9.27734-3.80859 12.0605 1.85547 17.627 1.85547C21.3379 1.85547 23.877 0.146484 26.0742-4.19922C29.0039-9.375 33.8379-15.1367 44.1406-15.1367L44.3359-15.1367L44.3359-5.46875C44.3359-0.78125 47.9492 2.83203 52.6367 2.83203ZM56.0547-14.3555C55.6641-14.3555 55.3223-14.6973 55.3223-15.1855L55.3223-26.416C55.3223-27.2461 54.9805-27.5879 54.1504-27.5879L50.3906-27.5879C35.5469-27.5879 26.3672-25.3418 21.3379-16.0645C21.2402-15.8691 21.1426-15.7715 20.9961-15.7715C20.8496-15.7715 20.752-15.8691 20.752-16.0645C20.752-35.1562 32.7148-42.8223 50.3906-42.8223L54.1504-42.8223C54.9805-42.8223 55.3223-43.1641 55.3223-43.9941L55.3223-55.1758C55.3223-55.6641 55.6641-55.957 56.0547-55.957C56.25-55.957 56.4453-55.9082 56.6406-55.7617L77.832-35.8887C78.125-35.5957 78.2227-35.4492 78.2227-35.2051C78.2227-35.0098 78.125-34.8145 77.832-34.5215L56.6406-14.6484C56.4453-14.4531 56.25-14.3555 56.0547-14.3555Z"/>
  </g>
  <g id="Heavy-S" transform="matrix(1 0 0 1 2587.13 696)">
   <path d="M53.125 2.24609C55.9082 2.24609 58.0078 1.17188 60.6445-1.26953L91.2598-29.541C92.8711-31.0059 93.7012-33.3496 93.7012-35.2051C93.7012-37.207 92.8711-39.3555 91.3086-40.8691L60.6445-69.1406C57.7637-71.7285 55.7617-72.6562 53.1738-72.6562C48.877-72.6562 45.6543-69.3359 45.6543-65.1367L45.6543-54.1504L45.2637-54.1504C22.168-54.1504 9.27734-39.0625 9.27734-13.0371C9.27734-3.32031 11.8652 1.46484 16.6504 1.46484C19.9219 1.46484 22.3145 0.0976562 24.3164-3.85742C28.2227-10.791 34.082-16.0156 45.2637-16.0156L45.6543-16.0156L45.6543-5.27344C45.6543-1.02539 48.877 2.24609 53.125 2.24609ZM56.3477-13.1348C56.0059-13.1348 55.7129-13.4277 55.7129-13.916L55.7129-25.8301C55.7129-26.709 55.3223-27.0508 54.4922-27.0508L50.2441-27.0508C34.668-27.0508 24.9512-23.8281 20.0684-14.5996C19.9707-14.4043 19.873-14.3066 19.7266-14.3066C19.5801-14.3066 19.4824-14.4531 19.4824-14.6484C19.7266-32.959 30.4199-43.3594 50.2441-43.3594L54.4922-43.3594C55.3223-43.3594 55.7129-43.75 55.7129-44.5801L55.7129-56.5918C55.7129-57.0312 56.0059-57.3242 56.3477-57.3242C56.5918-57.3242 56.7871-57.2266 56.9336-57.0801L79.4434-35.8398C79.6875-35.5957 79.7852-35.4492 79.7852-35.2051C79.7852-35.0586 79.6875-34.8633 79.4434-34.6191L56.9336-13.4277C56.7383-13.2324 56.543-13.1348 56.3477-13.1348Z"/>
  </g>
  <g id="Bold-S" transform="matrix(1 0 0 1 2290.59 696)">
   <path d="M53.7109 1.5625C56.2012 1.5625 58.1543 0.585938 60.5957-1.66016L91.1133-30.0781C92.627-31.4941 93.3594-33.5449 93.3594-35.2539C93.3594-37.0117 92.627-38.9648 91.1621-40.3809L60.5957-68.6523C57.959-71.0938 56.1523-72.0215 53.7598-72.0215C49.9512-72.0215 47.0703-69.043 47.0703-65.2832L47.0703-53.3203L46.4844-53.3203C21.582-53.3203 9.22852-37.0117 9.22852-10.4004C9.22852-2.73438 11.6699 1.07422 15.5762 1.07422C18.3105 1.07422 20.5566 0.0488281 22.3633-3.4668C27.3438-12.3535 34.3262-16.9922 46.4844-16.9922L47.0703-16.9922L47.0703-5.0293C47.0703-1.26953 49.9512 1.5625 53.7109 1.5625ZM56.7383-11.7676C56.3965-11.7676 56.1035-12.0605 56.1035-12.4512L56.1035-25.2441C56.1035-26.123 55.7129-26.4648 54.834-26.4648L50.1465-26.4648C33.7402-26.4648 23.3398-22.1191 18.6035-12.9883C18.5059-12.793 18.457-12.6953 18.3105-12.6953C18.2129-12.6953 18.0664-12.8418 18.0664-13.0371C18.5547-30.4688 27.7832-43.9941 50.1465-43.9941L54.834-43.9941C55.7129-43.9941 56.1035-44.3848 56.1035-45.2637L56.1035-58.1543C56.1035-58.5449 56.3965-58.7891 56.7383-58.7891C56.9336-58.7891 57.1289-58.7402 57.2754-58.5938L81.2012-35.791C81.4453-35.5469 81.543-35.4004 81.543-35.2539C81.543-35.0586 81.4453-34.9121 81.2012-34.668L57.2754-12.0605C57.1289-11.8652 56.9336-11.7676 56.7383-11.7676Z"/>
  </g>
  <g id="Semibold-S" transform="matrix(1 0 0 1 1994 696)">
   <path d="M54.1016 1.12305C56.4453 1.12305 58.3008 0.195312 60.5957-1.95312L91.0156-30.4688C92.4805-31.8359 93.1152-33.6914 93.1152-35.2539C93.1152-36.8652 92.4805-38.623 91.0156-40.0391L60.5957-68.3105C58.0566-70.6543 56.4453-71.582 54.1504-71.582C50.6836-71.582 48.0957-68.8477 48.0957-65.4297L48.0957-52.7344L47.3633-52.7344C21.1426-52.7344 9.22852-35.5469 9.22852-8.54492C9.22852-2.39258 11.5723 0.78125 14.7949 0.78125C17.1875 0.78125 19.3359 0 21.0449-3.17383C26.7578-13.4277 34.4727-17.627 47.3633-17.627L48.0957-17.627L48.0957-4.83398C48.0957-1.46484 50.6836 1.12305 54.1016 1.12305ZM56.9824-10.8398C56.6406-10.8398 56.3965-11.084 56.3965-11.4746L56.3965-24.8047C56.3965-25.6836 56.0059-26.0742 55.0781-26.0742L50.0488-26.0742C33.0566-26.0742 22.2168-20.8984 17.627-11.8652C17.5293-11.6699 17.4805-11.6211 17.334-11.6211C17.2363-11.6211 17.1387-11.7188 17.1387-11.9629C17.7734-28.7598 26.0254-44.4336 50.0488-44.4336L55.0781-44.4336C56.0059-44.4336 56.3965-44.8242 56.3965-45.7031L56.3965-59.2773C56.3965-59.6191 56.6406-59.8633 56.9824-59.8633C57.1777-59.8633 57.373-59.7656 57.5195-59.6191L82.4707-35.7422C82.666-35.5469 82.7148-35.4004 82.7148-35.2539C82.7148-35.1074 82.666-34.9609 82.4707-34.7656L57.5195-11.1328C57.373-10.9375 57.1777-10.8398 56.9824-10.8398Z"/>
  </g>
  <g id="Medium-S" transform="matrix(1 0 0 1 1697.39 696)">
   <path d="M54.3945 0.732422C56.5918 0.732422 58.3984-0.146484 60.5957-2.14844L90.918-30.7617C92.334-32.0801 92.9199-33.7891 92.9199-35.2539C92.9199-36.7676 92.334-38.4277 90.918-39.7949L60.5957-68.0664C58.1543-70.3613 56.6406-71.2402 54.4922-71.2402C51.2207-71.2402 48.877-68.7012 48.877-65.5273L48.877-52.2949L47.998-52.2949C20.8496-52.2949 9.22852-34.4727 9.22852-7.17773C9.22852-2.09961 11.4258 0.585938 14.2578 0.585938C16.3574 0.585938 18.4082 0 20.0195-2.97852C26.3184-14.2578 34.6191-18.1641 47.998-18.1641L48.877-18.1641L48.877-4.73633C48.877-1.5625 51.2207 0.732422 54.3945 0.732422ZM57.1289-10.1562C56.8359-10.1562 56.5918-10.3516 56.5918-10.6934L56.5918-24.4629C56.5918-25.3418 56.2012-25.7812 55.2734-25.7812L49.9512-25.7812C32.5684-25.7812 21.3867-20.0195 16.8945-11.0352C16.7969-10.8398 16.748-10.7422 16.6016-10.7422C16.5039-10.7422 16.4062-10.8887 16.4062-11.1328C17.1387-27.4902 24.6582-44.7266 49.9512-44.7266L55.2734-44.7266C56.2012-44.7266 56.5918-45.166 56.5918-46.0449L56.5918-60.1074C56.5918-60.4004 56.8359-60.6445 57.1289-60.6445C57.373-60.6445 57.5684-60.5469 57.7148-60.4004L83.3984-35.6934C83.5449-35.5469 83.6426-35.4004 83.6426-35.2539C83.6426-35.1074 83.5449-34.9609 83.3984-34.8145L57.7148-10.4004C57.5684-10.2539 57.3242-10.1562 57.1289-10.1562Z"/>
  </g>
  <g id="Regular-S" transform="matrix(1 0 0 1 1400.8 696)">
   <path d="M54.7852 0.292969C56.8359 0.292969 58.4961-0.537109 60.5469-2.44141L90.8203-31.1035C92.1875-32.373 92.6758-33.9355 92.6758-35.2539C92.6758-36.6211 92.1875-38.1348 90.8203-39.4531L60.5469-67.7734C58.252-69.9219 56.9336-70.8008 54.8828-70.8008C51.9531-70.8008 49.8535-68.457 49.8535-65.6738L49.8535-51.709L48.877-51.709C20.4102-51.709 9.22852-33.0566 9.22852-5.37109C9.22852-1.70898 11.3281 0.292969 13.5254 0.292969C15.2344 0.292969 17.2363-0.0488281 18.7012-2.68555C25.6836-15.2832 34.7656-18.7988 48.877-18.7988L49.8535-18.7988L49.8535-4.54102C49.8535-1.75781 51.9531 0.292969 54.7852 0.292969ZM57.373-9.22852C57.0801-9.22852 56.8848-9.42383 56.8848-9.7168L56.8848-24.0234C56.8848-24.9512 56.4453-25.3906 55.5176-25.3906L49.8535-25.3906C31.9336-25.3906 20.3125-18.8477 15.918-9.96094C15.8203-9.7168 15.7715-9.66797 15.625-9.66797C15.5273-9.66797 15.4297-9.76562 15.4297-10.0098C16.3574-25.7812 22.9004-45.166 49.8535-45.166L55.5176-45.166C56.4453-45.166 56.8848-45.6055 56.8848-46.4844L56.8848-61.1816C56.8848-61.4746 57.0801-61.6699 57.373-61.6699C57.6172-61.6699 57.8125-61.5723 57.959-61.4258L84.6191-35.6445C84.7656-35.498 84.8145-35.4004 84.8145-35.2539C84.8145-35.1074 84.7656-35.0098 84.6191-34.8633L57.959-9.47266C57.7637-9.32617 57.5684-9.22852 57.373-9.22852Z"/>
  </g>
  <g id="Light-S" transform="matrix(1 0 0 1 1104.99 696)">
   <path d="M53.6133-0.537109C55.3711-0.537109 56.7871-1.26953 58.4473-2.83203L88.5742-31.2012C90.1367-32.666 90.5762-34.0332 90.5762-35.2539C90.5762-36.5234 90.1367-37.8418 88.5742-39.3555L58.4473-67.4805C56.6406-69.1895 55.4199-69.9707 53.7109-69.9707C51.2207-69.9707 49.5117-68.0176 49.5117-65.625L49.5117-50.7324L48.291-50.7324C21.582-50.7324 8.93555-33.9844 8.93555-5.22461C8.93555-2.24609 10.6445-0.537109 12.5488-0.537109C14.1113-0.537109 15.6738-0.976562 16.8945-3.22266C23.291-15.7227 32.9102-19.6289 48.291-19.6289L49.5117-19.6289L49.5117-4.6875C49.5117-2.29492 51.2207-0.537109 53.6133-0.537109ZM55.5176-7.71484C55.1758-7.71484 54.9316-7.95898 54.9316-8.34961L54.9316-23.5352C54.9316-24.4141 54.5898-24.7559 53.7109-24.7559L49.0234-24.7559C30.7129-24.7559 19.1406-18.6035 14.502-8.44727C14.3555-8.1543 14.2578-7.95898 14.0625-7.95898C13.8672-7.95898 13.7207-8.10547 13.7207-8.44727C14.3555-28.3691 23.3887-45.6543 49.0234-45.6543L53.7109-45.6543C54.5898-45.6543 54.9316-45.9961 54.9316-46.875L54.9316-62.4512C54.9316-62.793 55.1758-63.0371 55.5176-63.0371C55.8105-63.0371 56.0547-62.8418 56.25-62.6465L83.9844-36.2305C84.4238-35.8398 84.5703-35.5469 84.5703-35.2539C84.5703-34.9609 84.4238-34.668 83.9844-34.2773L56.25-8.10547C55.957-7.86133 55.7617-7.71484 55.5176-7.71484Z"/>
  </g>
  <g id="Thin-S" transform="matrix(1 0 0 1 809.474 696)">
   <path d="M52.1484-1.66016C53.4668-1.66016 54.541-2.29492 55.6152-3.32031L85.6445-31.2988C87.4512-33.0078 87.793-34.1309 87.793-35.2539C87.793-36.377 87.5-37.5 85.6445-39.209L55.6152-67.1387C54.4922-68.2129 53.4668-68.8477 52.1484-68.8477C50.2441-68.8477 49.1211-67.3828 49.1211-65.5762L49.1211-49.4629L47.5586-49.4629C23.0957-49.4629 8.54492-35.1562 8.54492-5.07812C8.54492-2.92969 9.81445-1.66016 11.3281-1.66016C12.6465-1.66016 13.6719-2.14844 14.5508-3.95508C20.1172-16.2109 30.4199-20.752 47.5586-20.752L49.1211-20.752L49.1211-4.88281C49.1211-3.02734 50.2441-1.66016 52.1484-1.66016ZM53.0273-5.76172C52.6367-5.76172 52.3926-6.10352 52.3926-6.54297L52.3926-22.9004C52.3926-23.6816 52.0996-23.9746 51.3184-23.9746L47.9492-23.9746C29.1504-23.9746 17.5781-18.2617 12.6465-6.49414C12.5-6.05469 12.3047-5.71289 12.0117-5.71289C11.6699-5.71289 11.5234-5.95703 11.5234-6.29883C11.7676-31.7871 24.0234-46.2891 47.9492-46.2891L51.3184-46.2891C52.0996-46.2891 52.3926-46.582 52.3926-47.3633L52.3926-64.1602C52.3926-64.5508 52.6855-64.8438 53.0762-64.8438C53.4668-64.8438 53.7109-64.5996 54.0039-64.3066L83.1543-37.0605C83.9355-36.2793 84.2285-35.791 84.2285-35.2539C84.2285-34.7168 83.9844-34.2285 83.1543-33.4473L53.9551-6.29883C53.5645-5.9082 53.3203-5.76172 53.0273-5.76172Z"/>
  </g>
  <g id="Ultralight-S" transform="matrix(1 0 0 1 513.373 696)">
   <path d="M51.3672-2.19727C52.4902-2.19727 53.3691-2.83203 54.1992-3.56445L84.1309-31.3965C86.0352-33.2031 86.377-34.2285 86.377-35.2539C86.377-36.2793 86.084-37.3047 84.1309-39.1113L54.1992-66.9434C53.3691-67.6758 52.4902-68.3105 51.3672-68.3105C49.707-68.3105 48.877-67.041 48.877-65.5273L48.877-48.7793L47.168-48.7793C23.877-48.7793 8.34961-35.791 8.34961-4.98047C8.34961-3.27148 9.375-2.19727 10.6934-2.19727C11.9141-2.19727 12.6465-2.7832 13.3301-4.3457C18.5059-16.5039 29.1504-21.3379 47.168-21.3379L48.877-21.3379L48.877-4.98047C48.877-3.41797 49.707-2.19727 51.3672-2.19727ZM51.7578-4.78516C51.3184-4.78516 51.0742-5.12695 51.0742-5.56641L51.0742-22.5586C51.0742-23.291 50.8301-23.5352 50.0977-23.5352L47.4121-23.5352C28.3203-23.5352 16.7969-18.1152 11.6699-5.46875C11.5234-4.98047 11.3281-4.54102 10.9375-4.54102C10.498-4.54102 10.3516-4.83398 10.3516-5.22461C10.4004-33.5449 24.3652-46.582 47.4121-46.582L50.0977-46.582C50.8301-46.582 51.0742-46.875 51.0742-47.6074L51.0742-65.0391C51.0742-65.4785 51.3672-65.7715 51.8066-65.7715C52.2461-65.7715 52.5391-65.4785 52.832-65.1855L82.7148-37.4512C83.6914-36.5234 84.0332-35.8887 84.0332-35.2539C84.0332-34.6191 83.7402-33.9844 82.7148-33.0566L52.7832-5.32227C52.3438-4.93164 52.0508-4.78516 51.7578-4.78516Z"/>
  </g>
 </g>
</svg>
